<svg width="1046" height="1047" viewBox="0 0 1046 1047" fill="none" xmlns="http://www.w3.org/2000/svg">
<g clip-path="url(#clip0_71_67)">
<path d="M643.673 165.988C627.09 169.563 614.078 177.479 601.067 191.779C594.689 198.93 589.332 205.825 589.332 207.101C589.332 212.209 584.994 208.889 580.913 200.717C575.3 188.46 562.289 179.522 543.665 174.67C507.182 165.477 481.16 179.267 464.577 217.061C456.413 235.447 453.862 258.941 454.627 303.885L455.393 346.021H471.975H488.558L489.834 293.67C491.11 236.213 493.406 226.765 506.672 217.827C516.622 211.443 536.011 211.698 543.41 218.338C555.4 229.063 557.186 238.001 558.207 294.181L559.227 347.297H581.678H604.129L605.149 295.458C606.17 238.256 607.7 232.383 625.049 215.784C631.937 209.144 634.998 208.123 646.989 208.123C660 208.123 661.786 208.889 669.695 217.571C687.043 236.469 686.278 220.38 686.278 562.315V870.797H709.239H732.2L732.71 567.423C733.475 281.924 733.731 263.793 738.068 254.089C747.762 232.383 761.539 223.7 785.775 223.7C812.053 223.7 826.34 232.893 837.31 256.642L843.178 269.411L844.454 569.466L845.729 869.521H900.58H955.432L956.197 572.019C956.962 271.709 956.197 235.702 947.778 207.612C943.441 193.056 935.277 180.033 926.093 173.138C915.122 165.221 890.375 162.412 861.547 165.732C818.686 171.095 780.673 185.906 748.783 210.166L733.475 221.913L731.435 213.741C725.056 189.481 713.321 175.436 694.442 169.052C682.196 164.966 656.174 163.434 643.673 165.988Z" fill="black"/>
<path d="M220.681 172.372C169.911 181.565 136.745 207.102 113.274 254.089C91.0786 298.523 91.844 286.265 91.844 599.344V873.351H103.324H114.805V607.771C114.805 313.589 114.55 319.973 131.133 284.733C142.868 259.962 153.584 246.173 166.34 239.788C184.198 230.595 199.25 235.958 209.2 255.366C220.936 278.349 220.425 269.411 221.956 577.127L223.232 869.521L302.32 870.287C386.51 871.053 400.031 869.776 421.206 859.051C436.259 851.645 506.162 793.422 517.898 778.866C530.399 763.033 535.756 755.117 535.756 751.286C535.756 748.988 527.082 748.222 500.294 748.222H464.832L434.728 771.46C417.89 783.973 404.113 795.209 403.603 796.231C403.348 797.252 413.553 799.55 426.309 801.338C439.065 803.125 451.821 805.679 454.883 807.211C459.985 810.02 459.985 810.276 453.862 813.595C442.637 819.724 414.828 822.533 376.305 821.767L338.037 821.001L336.761 522.223C335.23 209.655 335.485 216.039 324.26 197.653C308.953 172.627 270.174 163.179 220.681 172.372Z" fill="black"/>
<path d="M372.543 502.461V554H361.469V514.977C360.859 515.516 360.133 516.031 359.289 516.523C358.469 516.992 357.59 517.426 356.652 517.824C355.715 518.199 354.742 518.527 353.734 518.809C352.727 519.066 351.73 519.254 350.746 519.371V510.02C353.629 509.176 356.348 508.098 358.902 506.785C361.457 505.473 363.766 504.031 365.828 502.461H372.543Z" fill="#FF0000"/>
<path d="M509.375 850.789H530.75V860H497.211V856.203C497.211 853.625 497.645 851.316 498.512 849.277C499.379 847.215 500.469 845.375 501.781 843.758C503.094 842.117 504.523 840.676 506.07 839.434C507.641 838.168 509.129 837.031 510.535 836.023C512.012 834.969 513.301 833.961 514.402 833C515.527 832.039 516.465 831.09 517.215 830.152C517.988 829.191 518.562 828.23 518.938 827.27C519.312 826.285 519.5 825.242 519.5 824.141C519.5 821.984 518.891 820.355 517.672 819.254C516.453 818.152 514.59 817.602 512.082 817.602C507.746 817.602 503.598 819.324 499.637 822.77V812.996C504.02 810.16 508.965 808.742 514.473 808.742C517.027 808.742 519.312 809.082 521.328 809.762C523.367 810.418 525.09 811.367 526.496 812.609C527.902 813.852 528.969 815.363 529.695 817.145C530.445 818.902 530.82 820.871 530.82 823.051C530.82 825.371 530.457 827.434 529.73 829.238C529.027 831.043 528.078 832.684 526.883 834.16C525.711 835.637 524.352 836.996 522.805 838.238C521.258 839.457 519.652 840.641 517.988 841.789C516.863 842.586 515.773 843.383 514.719 844.18C513.688 844.953 512.773 845.727 511.977 846.5C511.18 847.25 510.547 847.988 510.078 848.715C509.609 849.441 509.375 850.133 509.375 850.789Z" fill="#FF9900"/>
<path d="M416.406 324.348V314.68C419.781 317.141 423.719 318.371 428.219 318.371C431.055 318.371 433.258 317.762 434.828 316.543C436.422 315.324 437.219 313.625 437.219 311.445C437.219 309.195 436.234 307.461 434.266 306.242C432.32 305.023 429.637 304.414 426.215 304.414H421.539V295.906H425.863C432.426 295.906 435.707 293.727 435.707 289.367C435.707 285.266 433.188 283.215 428.148 283.215C424.773 283.215 421.492 284.305 418.305 286.484V277.414C421.844 275.633 425.969 274.742 430.68 274.742C435.836 274.742 439.844 275.902 442.703 278.223C445.586 280.543 447.027 283.555 447.027 287.258C447.027 293.844 443.688 297.969 437.008 299.633V299.809C440.57 300.254 443.383 301.555 445.445 303.711C447.508 305.844 448.539 308.469 448.539 311.586C448.539 316.297 446.816 320.023 443.371 322.766C439.926 325.508 435.168 326.879 429.098 326.879C423.895 326.879 419.664 326.035 416.406 324.348Z" fill="#52FF00"/>
<path d="M525.855 989V938.586H544.207C549.832 938.586 554.156 939.617 557.18 941.68C560.203 943.742 561.715 946.648 561.715 950.398C561.715 953.117 560.789 955.496 558.938 957.535C557.109 959.574 554.766 960.992 551.906 961.789V961.93C555.492 962.375 558.352 963.699 560.484 965.902C562.641 968.105 563.719 970.789 563.719 973.953C563.719 978.57 562.066 982.238 558.762 984.957C555.457 987.652 550.945 989 545.227 989H525.855ZM537.211 946.953V958.906H542.203C544.547 958.906 546.387 958.344 547.723 957.219C549.082 956.07 549.762 954.5 549.762 952.508C549.762 948.805 546.996 946.953 541.465 946.953H537.211ZM537.211 967.344V980.633H543.363C545.988 980.633 548.039 980.023 549.516 978.805C551.016 977.586 551.766 975.922 551.766 973.812C551.766 971.797 551.027 970.215 549.551 969.066C548.098 967.918 546.059 967.344 543.434 967.344H537.211ZM616.383 989H604.008L600.422 977.785H582.492L578.941 989H566.637L584.988 938.586H598.453L616.383 989ZM597.82 969.066L592.406 952.121C592.008 950.855 591.727 949.344 591.562 947.586H591.281C591.164 949.062 590.871 950.527 590.402 951.98L584.918 969.066H597.82Z" fill="#8B704F"/>
<path d="M85.4622 354.954L82.9705 354.751L82.9622 354.852L82.9622 354.954L85.4622 354.954ZM343.5 285.5L341 285.5L343.5 285.5ZM341.732 818.768C342.708 819.744 344.291 819.744 345.268 818.768L361.178 802.858C362.154 801.882 362.154 800.299 361.178 799.322C360.201 798.346 358.618 798.346 357.642 799.322L343.5 813.465L329.358 799.322C328.381 798.346 326.799 798.346 325.822 799.322C324.846 800.299 324.846 801.882 325.822 802.858L341.732 818.768ZM343.5 257.885L346 257.885L343.5 257.885ZM90.496 293.155L92.9878 293.358L90.496 293.155ZM133.662 214.024L132.143 212.039L133.662 214.024ZM181.128 177.692L182.648 179.677L181.128 177.692ZM259.303 158.302L259.719 155.837L259.303 158.302ZM87.9622 873.954L87.9622 354.954L82.9622 354.954L82.9622 873.954L87.9622 873.954ZM341 285.5L341 817L346 817L346 285.5L341 285.5ZM341 257.885L341 285.5L346 285.5L346 257.885L341 257.885ZM87.954 355.157L92.9878 293.358L88.0043 292.952L82.9705 354.751L87.954 355.157ZM135.182 216.009L182.648 179.677L179.608 175.707L132.143 212.039L135.182 216.009ZM92.9878 293.358C95.4795 262.768 110.81 234.664 135.182 216.009L132.143 212.039C106.648 231.553 90.6108 260.952 88.0043 292.952L92.9878 293.358ZM258.887 160.767C306.293 168.761 341 209.811 341 257.885L346 257.885C346 207.37 309.531 164.237 259.719 155.837L258.887 160.767ZM259.719 155.837C231.415 151.064 202.401 158.261 179.608 175.707L182.648 179.677C204.339 163.074 231.951 156.225 258.887 160.767L259.719 155.837Z" fill="#FF0000"/>
<path d="M520 784L521.978 785.529L521.978 785.529L520 784ZM541.417 752.884L543.503 754.263L541.417 752.884ZM533.106 737.5L533.106 740L533.106 740L533.106 737.5ZM453.732 735.732C452.756 736.709 452.756 738.292 453.732 739.268L469.642 755.178C470.619 756.154 472.202 756.154 473.178 755.178C474.154 754.202 474.154 752.619 473.178 751.642L459.036 737.5L473.178 723.358C474.154 722.382 474.154 720.799 473.178 719.823C472.201 718.846 470.619 718.846 469.642 719.823L453.732 735.732ZM228.445 875.57C228.294 878.066 228.295 878.066 228.296 878.066C228.297 878.066 228.299 878.066 228.301 878.066C228.304 878.066 228.31 878.067 228.318 878.067C228.333 878.068 228.356 878.069 228.386 878.071C228.446 878.075 228.536 878.08 228.655 878.087C228.892 878.101 229.244 878.122 229.704 878.148C230.624 878.202 231.979 878.279 233.716 878.374C237.19 878.565 242.196 878.829 248.327 879.122C260.586 879.708 277.346 880.412 295.345 880.882C331.215 881.817 372.398 881.837 392.466 878.026L391.534 873.114C372.101 876.804 331.507 876.823 295.475 875.883C277.523 875.415 260.801 874.713 248.566 874.128C242.448 873.835 237.454 873.572 233.99 873.381C232.258 873.286 230.908 873.21 229.992 873.157C229.535 873.13 229.185 873.11 228.95 873.096C228.833 873.089 228.744 873.084 228.685 873.08C228.655 873.078 228.633 873.077 228.618 873.076C228.611 873.076 228.605 873.075 228.601 873.075C228.6 873.075 228.598 873.075 228.597 873.075C228.597 873.075 228.596 873.075 228.445 875.57ZM392.466 878.026C402.806 876.063 415.532 869.887 428.774 861.777C442.077 853.63 456.131 843.384 469.177 833.058C482.227 822.728 494.304 812.289 503.656 803.739C512.94 795.25 519.699 788.478 521.978 785.529L518.022 782.471C516.051 785.022 509.623 791.508 500.282 800.049C491.009 808.527 479.023 818.888 466.073 829.137C453.119 839.391 439.235 849.507 426.163 857.513C413.03 865.557 400.944 871.327 391.534 873.114L392.466 878.026ZM521.978 785.529C526.825 779.257 536.24 765.245 543.503 754.263L539.332 751.505C532.034 762.541 522.731 776.377 518.022 782.471L521.978 785.529ZM533.106 735L455.5 735L455.5 740L533.106 740L533.106 735ZM543.503 754.263C548.985 745.973 543.007 735 533.106 735L533.106 740C539.06 740 542.596 746.57 539.332 751.505L543.503 754.263Z" fill="#FF9900"/>
<path d="M454.961 237.958L457.461 237.957L454.961 237.958ZM478.403 188.899L476.833 186.954L478.403 188.899ZM485.898 182.853L487.467 184.798L485.898 182.853ZM567.802 185.239L569.483 183.388L569.483 183.388L567.802 185.239ZM572.097 189.138L570.416 190.989L570.416 190.989L572.097 189.138ZM592.751 235.757L590.251 235.758L592.751 235.757ZM591.031 348.083C592.007 349.058 593.59 349.058 594.566 348.081L610.469 332.164C611.445 331.188 611.445 329.605 610.468 328.629C609.491 327.653 607.908 327.654 606.932 328.63L592.796 342.778L578.648 328.642C577.671 327.666 576.088 327.667 575.113 328.644C574.137 329.621 574.137 331.204 575.114 332.179L591.031 348.083ZM457.507 346.258L457.461 237.957L452.461 237.959L452.507 346.26L457.507 346.258ZM479.972 190.845L487.467 184.798L484.328 180.907L476.833 186.954L479.972 190.845ZM566.122 187.09L570.416 190.989L573.777 187.287L569.483 183.388L566.122 187.09ZM590.251 235.758L590.298 346.315L595.298 346.313L595.251 235.756L590.251 235.758ZM570.416 190.989C583.041 202.45 590.243 218.707 590.251 235.758L595.251 235.756C595.243 217.295 587.445 199.695 573.777 187.287L570.416 190.989ZM457.461 237.957C457.453 219.657 465.729 202.336 479.972 190.845L476.833 186.954C461.413 199.394 452.453 218.146 452.461 237.959L457.461 237.957ZM487.467 184.798C510.669 166.079 544.049 167.052 566.122 187.09L569.483 183.388C545.586 161.694 509.447 160.641 484.328 180.907L487.467 184.798Z" fill="#52FF00"/>
<path d="M594.437 195.142L596.473 196.591L594.437 195.142ZM740.9 246.726L738.4 246.733L740.9 246.726ZM740.736 876.272C741.715 877.246 743.298 877.242 744.272 876.263L760.141 860.313C761.115 859.334 761.111 857.751 760.132 856.777C759.153 855.803 757.571 855.807 756.597 856.786L742.491 870.964L728.313 856.858C727.334 855.885 725.751 855.889 724.777 856.867C723.803 857.846 723.807 859.429 724.786 860.403L740.736 876.272ZM667.993 162.486L668.284 160.003L668.284 160.003L667.993 162.486ZM669.452 162.657L669.161 165.14L669.161 165.14L669.452 162.657ZM736.282 219.637L738.688 218.958L736.282 219.637ZM737.923 225.445L735.517 226.125L737.923 225.445ZM593.023 201.439L596.473 196.591L592.4 193.692L588.95 198.54L593.023 201.439ZM738.4 246.733L740 874.506L745 874.494L743.4 246.72L738.4 246.733ZM667.702 164.969L669.161 165.14L669.743 160.174L668.284 160.003L667.702 164.969ZM733.876 220.317L735.517 226.125L740.329 224.765L738.688 218.958L733.876 220.317ZM669.161 165.14C699.911 168.743 725.457 190.524 733.876 220.317L738.688 218.958C729.718 187.217 702.502 164.012 669.743 160.174L669.161 165.14ZM743.4 246.72C743.381 239.296 742.348 231.909 740.329 224.765L735.517 226.125C737.412 232.831 738.382 239.764 738.4 246.733L743.4 246.72ZM596.473 196.591C612.665 173.84 639.967 161.72 667.702 164.969L668.284 160.003C638.736 156.541 609.65 169.454 592.4 193.692L596.473 196.591Z" fill="#0500FF"/>
<path d="M794.215 181.346L795.416 183.539L795.416 183.539L794.215 181.346ZM959.101 254.064L961.601 254.064L959.101 254.064ZM957.333 870.267C958.309 871.244 959.892 871.244 960.869 870.267L976.778 854.358C977.755 853.381 977.755 851.798 976.778 850.822C975.802 849.846 974.219 849.846 973.243 850.822L959.101 864.964L944.959 850.822C943.982 849.846 942.399 849.846 941.423 850.822C940.447 851.798 940.447 853.381 941.423 854.358L957.333 870.267ZM803.039 177.297L802.186 174.947L803.039 177.297ZM930 169.5L931.511 167.509L930 169.5ZM959.647 241.983L957.151 241.85L959.647 241.983ZM743.817 211.788L795.416 183.539L793.014 179.153L741.416 207.402L743.817 211.788ZM956.601 254.064L956.601 868.5L961.601 868.5L961.601 254.064L956.601 254.064ZM803.893 179.646C813.478 176.163 837.035 168.193 862.131 164.116C874.679 162.077 887.523 161.027 899.149 161.962C910.8 162.899 921.003 165.811 928.489 171.492L931.511 167.509C922.967 161.026 911.696 157.955 899.55 156.978C887.379 155.999 874.102 157.105 861.329 159.18C835.781 163.331 811.887 171.422 802.186 174.947L803.893 179.646ZM928.489 171.492C956.571 192.801 957.9 227.781 957.151 241.85L962.144 242.116C962.909 227.745 961.714 190.427 931.511 167.509L928.489 171.492ZM961.601 254.064C961.601 250.116 961.924 246.244 962.144 242.116L957.151 241.85C956.941 245.784 956.601 249.939 956.601 254.064L961.601 254.064ZM795.416 183.539C798.183 182.023 800.979 180.705 803.893 179.646L802.186 174.947C798.984 176.11 795.954 177.543 793.014 179.153L795.416 183.539Z" fill="#FAFF00"/>
<path d="M781.762 497.586V529.367H787.809V537.664H781.762V548H771.637V537.664H749.664V528.98C751.609 526.801 753.625 524.422 755.711 521.844C757.797 519.242 759.812 516.57 761.758 513.828C763.703 511.086 765.508 508.332 767.172 505.566C768.859 502.777 770.289 500.117 771.461 497.586H781.762ZM759.613 529.367H771.637V511.754C770.816 513.277 769.926 514.824 768.965 516.395C768.004 517.941 766.996 519.477 765.941 521C764.887 522.5 763.82 523.965 762.742 525.395C761.664 526.801 760.621 528.125 759.613 529.367Z" fill="#0500FF"/>
<path d="M977.285 546.699V537.207C980.73 539.316 984.398 540.371 988.289 540.371C991.219 540.371 993.504 539.68 995.145 538.297C996.809 536.891 997.641 534.992 997.641 532.602C997.641 527.609 994.113 525.113 987.059 525.113C984.457 525.113 981.457 525.312 978.059 525.711L979.957 497.586H1006.64V506.656H988.43L987.727 516.746C989.531 516.605 991.09 516.535 992.402 516.535C997.582 516.535 1001.64 517.895 1004.57 520.613C1007.5 523.332 1008.96 526.988 1008.96 531.582C1008.96 536.668 1007.21 540.828 1003.72 544.062C1000.23 547.273 995.496 548.879 989.52 548.879C984.668 548.879 980.59 548.152 977.285 546.699Z" fill="#FAFF00"/>
</g>
<defs>
<clipPath id="clip0_71_67">
<rect width="1046" height="1047" fill="white"/>
</clipPath>
</defs>
</svg>
