<svg width="1337" height="1129" viewBox="0 0 1337 1129" fill="none" xmlns="http://www.w3.org/2000/svg">
<g clip-path="url(#clip0_71_14)">
<path d="M369.475 160.477C351.477 165.621 331.936 176.165 317.795 188.252C280.77 219.885 247.859 287.008 239.375 348.216C237.575 361.331 236.546 453.4 236.546 614.906V861.538H246.831H257.116V616.449C257.116 481.947 258.401 360.56 259.687 346.93C263.801 304.239 281.027 266.177 306.996 242.516C321.394 229.143 334.507 223.743 351.734 223.743C377.96 223.743 395.701 241.231 405.471 276.464C410.099 293.437 413.699 386.535 413.956 489.405V571.444L393.13 593.561C371.018 617.478 347.877 650.397 341.192 667.627C328.594 700.289 324.48 762.525 333.479 785.671C344.278 813.96 376.16 853.565 394.672 861.795C413.699 870.539 442.239 867.71 493.148 852.279L514.231 845.85V747.352C514.231 693.345 515.002 648.339 515.774 647.31C518.859 644.224 538.914 660.426 560.769 683.315C572.596 695.917 593.937 722.92 607.821 743.494C644.846 797.244 675.442 837.877 686.241 847.65C700.383 860.766 713.753 864.881 737.15 863.595C783.174 861.023 817.113 831.448 831.511 781.299C835.368 768.697 835.625 744.266 835.111 555.242L834.34 343.329L827.14 328.67C813.256 300.381 790.63 289.065 734.322 281.607C727.38 280.578 723.009 279.035 724.037 277.75C727.637 274.406 774.946 256.147 809.914 244.831C850.024 231.715 870.85 228.115 897.847 229.401C933.072 230.944 948.756 242.002 959.812 273.12C962.126 279.293 963.154 357.217 964.183 573.501L965.468 865.395H1020.75H1076.03L1076.8 559.357C1077.31 357.474 1076.54 246.374 1074.74 232.744C1068.06 181.309 1039.52 156.877 986.295 156.877C957.755 156.877 937.186 162.021 863.651 186.452C815.827 202.654 789.859 212.941 766.204 225.286C738.436 239.945 682.899 274.921 663.615 290.351L657.187 295.237L675.185 297.038C744.092 303.467 780.345 314.011 795.515 331.756L802.2 339.986V568.872V798.015L783.174 796.729C749.749 794.672 749.234 794.158 682.642 709.547C600.879 605.905 565.911 571.701 529.915 560.642L515.517 556.013L514.231 417.653C512.688 283.407 512.431 278.521 507.032 259.747C493.405 214.999 470.264 180.023 444.553 165.878C432.211 159.192 427.84 158.163 406.243 157.649C391.33 157.391 376.931 158.42 369.475 160.477ZM413.956 687.687C413.956 734.236 412.928 771.526 411.385 775.127C408.299 783.613 398.529 788.243 389.016 785.671C378.217 783.099 358.162 760.982 354.562 747.866C350.706 732.95 354.819 710.833 367.932 677.914C381.559 643.967 404.186 606.934 411.642 606.934C412.928 606.934 413.956 640.881 413.956 687.687Z" fill="black"/>
<path d="M642.629 1054.21C638.949 1055.99 634.145 1056.88 628.215 1056.88C620.48 1056.88 614.398 1054.61 609.969 1050.06C605.539 1045.51 603.324 1039.45 603.324 1031.88C603.324 1023.82 605.809 1017.28 610.777 1012.27C615.77 1007.25 622.238 1004.74 630.184 1004.74C635.105 1004.74 639.254 1005.36 642.629 1006.61V1017.54C639.254 1015.52 635.41 1014.52 631.098 1014.52C626.363 1014.52 622.543 1016 619.637 1018.98C616.73 1021.96 615.277 1025.99 615.277 1031.07C615.277 1035.95 616.648 1039.84 619.391 1042.75C622.133 1045.63 625.824 1047.07 630.465 1047.07C634.895 1047.07 638.949 1045.99 642.629 1043.84V1054.21ZM695.75 1056H683.375L679.789 1044.79H661.859L658.309 1056H646.004L664.355 1005.59H677.82L695.75 1056ZM677.188 1036.07L671.773 1019.12C671.375 1017.86 671.094 1016.34 670.93 1014.59H670.648C670.531 1016.06 670.238 1017.53 669.77 1018.98L664.285 1036.07H677.188Z" fill="#8B704F"/>
<path d="M232 370.263L229.5 370.263L232 370.263ZM522.5 316.092L520 316.092L522.5 316.092ZM520.732 845.268C521.709 846.244 523.291 846.244 524.268 845.268L540.178 829.358C541.154 828.382 541.154 826.799 540.178 825.822C539.201 824.846 537.618 824.846 536.642 825.822L522.5 839.964L508.358 825.822C507.382 824.846 505.799 824.846 504.822 825.822C503.846 826.799 503.846 828.382 504.822 829.358L520.732 845.268ZM500.804 207.477L503.177 206.691L503.177 206.691L500.804 207.477ZM508.954 232.092L506.581 232.878L508.954 232.092ZM397.116 153.146L397.231 150.648L397.116 153.146ZM431.182 154.713L431.067 157.211L431.182 154.713ZM237.016 319.23L234.564 318.744L237.016 319.23ZM246.39 272.005L243.938 271.518L246.39 272.005ZM311.062 176.72L309.697 174.626L309.697 174.626L311.062 176.72ZM491.646 188.772L493.722 187.379L491.646 188.772ZM234.5 859L234.5 370.263L229.5 370.263L229.5 859L234.5 859ZM520 316.092L520 843.5L525 843.5L525 316.092L520 316.092ZM498.43 208.263L506.581 232.878L511.328 231.306L503.177 206.691L498.43 208.263ZM397.001 155.643L431.067 157.211L431.297 152.216L397.231 150.648L397.001 155.643ZM239.468 319.717L248.842 272.492L243.938 271.518L234.564 318.744L239.468 319.717ZM248.842 272.492C256.453 234.15 279.669 200.179 312.428 178.814L309.697 174.626C275.827 196.715 251.815 231.836 243.938 271.518L248.842 272.492ZM397.231 150.648C366.391 149.229 335.543 157.77 309.697 174.626L312.428 178.814C337.409 162.522 367.223 154.272 397.001 155.643L397.231 150.648ZM489.57 190.165C493.328 195.769 496.309 201.857 498.43 208.263L503.177 206.691C500.913 199.856 497.733 193.359 493.722 187.379L489.57 190.165ZM525 316.092C525 287.281 520.384 258.657 511.328 231.306L506.581 232.878C515.47 259.721 520 287.816 520 316.092L525 316.092ZM234.5 370.263C234.5 353.292 236.164 336.363 239.468 319.717L234.564 318.744C231.196 335.71 229.5 352.965 229.5 370.263L234.5 370.263ZM493.722 187.379C479.666 166.423 456.504 153.376 431.297 152.216L431.067 157.211C454.69 158.298 476.397 170.525 489.57 190.165L493.722 187.379Z" fill="#FF0000"/>
<path d="M783.655 788.771L782.518 790.997L783.655 788.771ZM789.771 793.878C791.084 793.453 791.804 792.043 791.378 790.73L784.444 769.325C784.019 768.011 782.609 767.291 781.296 767.717C779.982 768.142 779.262 769.552 779.688 770.866L785.851 789.892L766.825 796.056C765.511 796.481 764.791 797.891 765.217 799.205C765.642 800.518 767.052 801.238 768.366 800.812L789.771 793.878ZM496.636 549.93L496.381 552.417L496.636 549.93ZM503.849 550.671L504.105 548.184L503.849 550.671ZM580.828 579.133L582.252 577.078L582.252 577.078L580.828 579.133ZM586.077 582.77L584.653 584.825L586.077 582.77ZM627.114 621.4L625.149 622.946L627.114 621.4ZM713.089 730.734L711.123 732.279L713.089 730.734ZM338.387 663.062L336.143 661.96L338.387 663.062ZM355.563 628.093L353.319 626.991L355.563 628.093ZM351.626 844.277L349.633 845.786L351.626 844.277ZM346.068 836.935L348.061 835.427L346.068 836.935ZM320 759.31L317.5 759.31L320 759.31ZM320 742.209L322.5 742.209L320 742.209ZM431.087 873.906L431.606 876.351L431.087 873.906ZM372.994 863.75L374.312 861.625L374.312 861.625L372.994 863.75ZM415.32 566.059L414.134 563.857L415.32 566.059ZM782.518 790.997L787.863 793.727L790.137 789.274L784.792 786.544L782.518 790.997ZM496.381 552.417L503.594 553.158L504.105 548.184L496.892 547.443L496.381 552.417ZM579.404 581.188L584.653 584.825L587.501 580.715L582.252 577.078L579.404 581.188ZM625.149 622.946L711.123 732.279L715.054 729.188L629.08 619.855L625.149 622.946ZM340.631 664.165L357.807 629.195L353.319 626.991L336.143 661.96L340.631 664.165ZM353.619 842.769L348.061 835.427L344.075 838.444L349.633 845.786L353.619 842.769ZM322.5 759.31L322.5 742.209L317.5 742.209L317.5 759.31L322.5 759.31ZM514.981 853.554L430.568 871.46L431.606 876.351L516.019 858.446L514.981 853.554ZM430.568 871.46C411.249 875.558 391.095 872.035 374.312 861.625L371.677 865.874C389.555 876.963 411.026 880.717 431.606 876.351L430.568 871.46ZM348.061 835.427C331.475 813.517 322.5 786.79 322.5 759.31L317.5 759.31C317.5 787.879 326.831 815.666 344.075 838.444L348.061 835.427ZM336.143 661.96C323.878 686.934 317.5 714.386 317.5 742.209L322.5 742.209C322.5 715.151 328.702 688.452 340.631 664.165L336.143 661.96ZM584.653 584.825C599.976 595.443 613.626 608.292 625.149 622.946L629.08 619.855C617.248 604.809 603.234 591.617 587.501 580.715L584.653 584.825ZM416.505 568.26C440.943 555.1 468.77 549.581 496.381 552.417L496.892 547.443C468.285 544.505 439.455 550.223 414.134 563.857L416.505 568.26ZM784.792 786.544C757.671 772.695 733.877 753.126 715.054 729.188L711.123 732.279C730.394 756.786 754.753 776.819 782.518 790.997L784.792 786.544ZM503.594 553.158C530.824 555.955 556.904 565.597 579.404 581.188L582.252 577.078C559.058 561.007 532.175 551.067 504.105 548.184L503.594 553.158ZM349.633 845.786C355.684 853.78 363.157 860.59 371.677 865.874L374.312 861.625C366.314 856.665 359.3 850.272 353.619 842.769L349.633 845.786ZM414.134 563.857C387.778 578.049 366.515 600.123 353.319 626.991L357.807 629.195C370.544 603.262 391.066 581.958 416.505 568.26L414.134 563.857Z" fill="#52FF00"/>
<path d="M794.161 390.133L791.661 390.078L794.161 390.133ZM729.723 317.048L729.465 319.535L729.723 317.048ZM698 313.75L698.258 311.263L698 313.75ZM645.924 306.559C644.852 307.429 644.689 309.003 645.559 310.075L659.738 327.545C660.608 328.617 662.183 328.781 663.255 327.911C664.327 327.041 664.491 325.466 663.62 324.394L651.016 308.866L666.545 296.262C667.617 295.391 667.781 293.817 666.911 292.745C666.041 291.673 664.466 291.509 663.394 292.379L645.924 306.559ZM763.895 329.926L762.448 331.964L763.895 329.926ZM788.499 761.055L796.66 390.188L791.661 390.078L783.501 760.945L788.499 761.055ZM729.982 314.561L698.258 311.263L697.741 316.237L729.465 319.535L729.982 314.561ZM698.258 311.263L647.758 306.013L647.241 310.987L697.741 316.237L698.258 311.263ZM765.342 327.887C754.899 320.475 742.719 315.886 729.982 314.561L729.465 319.535C741.346 320.77 752.707 325.051 762.448 331.964L765.342 327.887ZM796.66 390.188C797.203 365.511 785.471 342.172 765.342 327.887L762.448 331.964C781.224 345.289 792.168 367.06 791.661 390.078L796.66 390.188Z" fill="#0500FF"/>
<path d="M992.485 148.165L992.215 150.65L992.215 150.65L992.485 148.165ZM994.028 148.333L994.298 145.848L994.298 145.848L994.028 148.333ZM1092 257.548L1089.5 257.548L1092 257.548ZM1090.23 860.768C1091.21 861.744 1092.79 861.744 1093.77 860.768L1109.68 844.858C1110.65 843.882 1110.65 842.299 1109.68 841.322C1108.7 840.346 1107.12 840.346 1106.14 841.322L1092 855.465L1077.86 841.322C1076.88 840.346 1075.3 840.346 1074.32 841.322C1073.35 842.299 1073.35 843.882 1074.32 844.858L1090.23 860.768ZM776.136 212.465L774.856 210.317L776.136 212.465ZM804.271 199.618L803.487 197.244L804.271 199.618ZM944.614 153.23L945.399 155.603L945.399 155.603L944.614 153.23ZM1070.11 191.736L1072.11 190.238L1070.11 191.736ZM992.215 150.65L993.757 150.818L994.298 145.848L992.756 145.68L992.215 150.65ZM1089.5 257.548L1089.5 859L1094.5 859L1094.5 257.548L1089.5 257.548ZM665.78 281.147L777.416 214.612L774.856 210.317L663.22 276.852L665.78 281.147ZM805.056 201.991L945.399 155.603L943.83 150.856L803.487 197.244L805.056 201.991ZM777.416 214.612C786.142 209.411 795.411 205.179 805.056 201.991L803.487 197.244C793.496 200.546 783.895 204.93 774.856 210.317L777.416 214.612ZM1068.1 193.234C1081.99 211.799 1089.5 234.362 1089.5 257.548L1094.5 257.548C1094.5 233.282 1086.64 209.668 1072.11 190.238L1068.1 193.234ZM992.756 145.68C976.265 143.885 959.58 145.65 943.83 150.856L945.399 155.603C960.47 150.622 976.435 148.933 992.215 150.65L992.756 145.68ZM993.757 150.818C1023.35 154.039 1050.27 169.4 1068.1 193.234L1072.11 190.238C1053.45 165.295 1025.27 149.218 994.298 145.848L993.757 150.818Z" fill="#FAFF00"/>
<path d="M222.543 294.461V346H211.469V306.977C210.859 307.516 210.133 308.031 209.289 308.523C208.469 308.992 207.59 309.426 206.652 309.824C205.715 310.199 204.742 310.527 203.734 310.809C202.727 311.066 201.73 311.254 200.746 311.371V302.02C203.629 301.176 206.348 300.098 208.902 298.785C211.457 297.473 213.766 296.031 215.828 294.461H222.543Z" fill="#FF0000"/>
<path d="M594.375 569.789H615.75V579H582.211V575.203C582.211 572.625 582.645 570.316 583.512 568.277C584.379 566.215 585.469 564.375 586.781 562.758C588.094 561.117 589.523 559.676 591.07 558.434C592.641 557.168 594.129 556.031 595.535 555.023C597.012 553.969 598.301 552.961 599.402 552C600.527 551.039 601.465 550.09 602.215 549.152C602.988 548.191 603.562 547.23 603.938 546.27C604.312 545.285 604.5 544.242 604.5 543.141C604.5 540.984 603.891 539.355 602.672 538.254C601.453 537.152 599.59 536.602 597.082 536.602C592.746 536.602 588.598 538.324 584.637 541.77V531.996C589.02 529.16 593.965 527.742 599.473 527.742C602.027 527.742 604.312 528.082 606.328 528.762C608.367 529.418 610.09 530.367 611.496 531.609C612.902 532.852 613.969 534.363 614.695 536.145C615.445 537.902 615.82 539.871 615.82 542.051C615.82 544.371 615.457 546.434 614.73 548.238C614.027 550.043 613.078 551.684 611.883 553.16C610.711 554.637 609.352 555.996 607.805 557.238C606.258 558.457 604.652 559.641 602.988 560.789C601.863 561.586 600.773 562.383 599.719 563.18C598.688 563.953 597.773 564.727 596.977 565.5C596.18 566.25 595.547 566.988 595.078 567.715C594.609 568.441 594.375 569.133 594.375 569.789Z" fill="#52FF00"/>
<path d="M752.406 461.348V451.68C755.781 454.141 759.719 455.371 764.219 455.371C767.055 455.371 769.258 454.762 770.828 453.543C772.422 452.324 773.219 450.625 773.219 448.445C773.219 446.195 772.234 444.461 770.266 443.242C768.32 442.023 765.637 441.414 762.215 441.414H757.539V432.906H761.863C768.426 432.906 771.707 430.727 771.707 426.367C771.707 422.266 769.188 420.215 764.148 420.215C760.773 420.215 757.492 421.305 754.305 423.484V414.414C757.844 412.633 761.969 411.742 766.68 411.742C771.836 411.742 775.844 412.902 778.703 415.223C781.586 417.543 783.027 420.555 783.027 424.258C783.027 430.844 779.688 434.969 773.008 436.633V436.809C776.57 437.254 779.383 438.555 781.445 440.711C783.508 442.844 784.539 445.469 784.539 448.586C784.539 453.297 782.816 457.023 779.371 459.766C775.926 462.508 771.168 463.879 765.098 463.879C759.895 463.879 755.664 463.035 752.406 461.348Z" fill="#0500FF"/>
<path d="M1128.76 339.586V371.367H1134.81V379.664H1128.76V390H1118.64V379.664H1096.66V370.98C1098.61 368.801 1100.62 366.422 1102.71 363.844C1104.8 361.242 1106.81 358.57 1108.76 355.828C1110.7 353.086 1112.51 350.332 1114.17 347.566C1115.86 344.777 1117.29 342.117 1118.46 339.586H1128.76ZM1106.61 371.367H1118.64V353.754C1117.82 355.277 1116.93 356.824 1115.96 358.395C1115 359.941 1114 361.477 1112.94 363C1111.89 364.5 1110.82 365.965 1109.74 367.395C1108.66 368.801 1107.62 370.125 1106.61 371.367Z" fill="#FAFF00"/>
</g>
<defs>
<clipPath id="clip0_71_14">
<rect width="1337" height="1129" fill="white"/>
</clipPath>
</defs>
</svg>
