<svg width="1331" height="1331" viewBox="0 0 1331 1331" fill="none" xmlns="http://www.w3.org/2000/svg">
<path d="M935.607 286.777C881.429 293.028 835.847 314.647 804.33 348.769C787.66 366.741 778.283 381.849 769.427 405.551C756.925 438.891 755.362 460.51 755.362 617.834V762.916L703.789 824.907C650.132 889.243 619.657 920.76 607.936 923.625C604.29 924.667 598.559 924.146 594.913 922.323L588.661 919.458V668.886C588.661 391.486 588.922 398.779 571.731 362.574C561.052 340.173 538.391 314.908 520.418 305.791C471.19 280.786 413.886 289.642 370.909 328.973C335.224 361.792 309.959 409.198 302.145 458.427C300.582 469.106 299.54 571.731 299.54 738.952V1002.81H311.261H322.982V736.348C322.982 445.403 322.722 450.613 338.35 418.314C350.071 393.309 359.969 381.588 376.379 373.774C389.402 367.262 392.528 366.741 408.416 368.304C441.236 371.69 463.375 387.579 474.055 415.97C483.432 440.975 484.474 474.055 484.474 742.599V1002.81H536.047H587.62L599.341 995.255C623.043 980.147 649.351 948.891 717.854 855.643L754.06 806.414L755.362 897.318C756.143 947.589 757.706 990.566 758.748 992.91C765.26 1005.67 803.288 1005.41 829.856 992.389C849.912 982.752 880.648 954.361 893.932 933.784C909.82 909.3 915.551 887.42 915.03 851.736C914.509 792.87 892.109 738.432 860.852 720.199C841.057 708.478 822.563 708.998 791.046 722.803C786.618 724.627 786.358 719.157 787.139 596.215L788.181 467.543L795.214 444.101C814.749 381.067 846.526 350.071 896.537 344.862C928.574 341.736 962.956 352.676 979.626 371.69C990.566 384.453 999.162 402.426 1004.37 424.826C1008.54 442.538 1009.06 467.022 1009.84 723.324L1010.88 1002.81H1067.93H1125.23V718.115C1124.97 489.683 1124.45 429.775 1121.58 414.147C1104.13 318.294 1040.32 274.535 935.607 286.777ZM808.237 790.525C817.614 796.516 829.335 815.791 836.108 835.587C842.88 856.424 845.745 894.974 841.577 914.509C835.326 943.942 814.228 968.947 795.474 968.947H786.618V875.439V781.669L794.172 784.014C798.339 785.056 804.591 787.921 808.237 790.525Z" fill="black"/>
<path d="M665.973 1179V1128.59H683.832C701.738 1128.59 710.691 1136.78 710.691 1153.16C710.691 1161.01 708.242 1167.28 703.344 1171.97C698.469 1176.66 691.965 1179 683.832 1179H665.973ZM677.328 1137.83V1169.79H682.953C687.875 1169.79 691.73 1168.31 694.52 1165.36C697.332 1162.41 698.738 1158.39 698.738 1153.3C698.738 1148.5 697.344 1144.72 694.555 1141.98C691.789 1139.21 687.898 1137.83 682.883 1137.83H677.328ZM762.266 1179H749.891L746.305 1167.79H728.375L724.824 1179H712.52L730.871 1128.59H744.336L762.266 1179ZM743.703 1159.07L738.289 1142.12C737.891 1140.86 737.609 1139.34 737.445 1137.59H737.164C737.047 1139.06 736.754 1140.53 736.285 1141.98L730.801 1159.07H743.703Z" fill="#8B704F"/>
<path d="M593.969 427.574L596.469 427.543L593.969 427.574ZM598.254 919.289C599.242 920.253 600.825 920.234 601.789 919.246L617.502 903.141C618.466 902.153 618.447 900.57 617.459 899.606C616.47 898.642 614.888 898.661 613.923 899.649L599.957 913.964L585.641 899.998C584.653 899.033 583.07 899.053 582.106 900.041C581.142 901.029 581.161 902.612 582.15 903.576L598.254 919.289ZM292 498.566L289.5 498.566L292 498.566ZM571.737 350.59L569.555 351.81L569.555 351.81L571.737 350.59ZM574.913 356.268L572.731 357.488L574.913 356.268ZM315.219 393.569L312.952 392.514L312.952 392.514L315.219 393.569ZM330.12 361.526L327.853 360.472L330.12 361.526ZM386.294 300.28L387.539 302.447L387.539 302.447L386.294 300.28ZM387.39 299.649L386.145 297.482L386.145 297.482L387.39 299.649ZM489.107 286.328L489.753 283.913L489.107 286.328ZM591.469 427.605L597.5 917.531L602.5 917.469L596.469 427.543L591.469 427.605ZM294.5 1007L294.5 498.566L289.5 498.566L289.5 1007L294.5 1007ZM569.555 351.81L572.731 357.488L577.094 355.047L573.919 349.369L569.555 351.81ZM317.486 394.623L332.387 362.58L327.853 360.472L312.952 392.514L317.486 394.623ZM387.539 302.447L388.636 301.817L386.145 297.482L385.048 298.112L387.539 302.447ZM332.387 362.58C344.13 337.327 363.394 316.324 387.539 302.447L385.048 298.112C360.008 312.503 340.031 334.284 327.853 360.472L332.387 362.58ZM488.462 288.743C522.902 297.949 552.153 320.697 569.555 351.81L573.919 349.369C555.857 317.077 525.498 293.467 489.753 283.913L488.462 288.743ZM294.5 498.566C294.5 462.657 302.345 427.183 317.486 394.623L312.952 392.514C297.504 425.735 289.5 461.929 289.5 498.566L294.5 498.566ZM596.469 427.543C596.156 402.141 589.496 377.219 577.094 355.047L572.731 357.488C584.725 378.933 591.166 403.036 591.469 427.605L596.469 427.543ZM489.753 283.913C454.781 274.566 417.53 279.444 386.145 297.482L388.636 301.817C418.876 284.438 454.766 279.737 488.462 288.743L489.753 283.913Z" fill="#FF0000"/>
<path d="M772.025 735.63L773.913 737.268L772.025 735.63ZM792.056 1011L792.4 1013.48L792.056 1011ZM768.505 1012.49C767.672 1013.59 767.89 1015.16 768.992 1015.99L786.943 1029.56C788.044 1030.39 789.612 1030.17 790.444 1029.07C791.277 1027.97 791.059 1026.4 789.957 1025.57L774.001 1013.51L786.06 997.557C786.892 996.455 786.674 994.888 785.572 994.055C784.471 993.223 782.903 993.441 782.07 994.542L768.505 1012.49ZM832.582 708L832.582 710.5L832.582 708ZM840.352 708L840.352 705.5L840.352 708ZM919.563 833.078L922.06 833.206L919.563 833.078ZM917.225 878.765L914.728 878.637L917.225 878.765ZM873.995 966.652L875.62 968.551L873.995 966.652ZM855.576 982.409L853.951 980.509L855.576 982.409ZM896.057 745.137L898.365 744.175L898.365 744.175L896.057 745.137ZM910.187 779.048L907.879 780.009L910.187 779.048ZM881.352 724.067L883.051 722.233L881.352 724.067ZM633.888 898.638L773.913 737.268L770.137 733.991L630.112 895.361L633.888 898.638ZM791.711 1008.52L770.155 1011.52L770.844 1016.48L792.4 1013.48L791.711 1008.52ZM832.582 710.5L840.352 710.5L840.352 705.5L832.582 705.5L832.582 710.5ZM917.066 832.95L914.728 878.637L919.721 878.893L922.06 833.206L917.066 832.95ZM872.37 964.752L853.951 980.509L857.202 984.308L875.62 968.551L872.37 964.752ZM893.749 746.098L907.879 780.009L912.494 778.086L898.365 744.175L893.749 746.098ZM879.654 725.901C885.748 731.544 890.555 738.432 893.749 746.098L898.365 744.175C894.894 735.847 889.671 728.363 883.051 722.233L879.654 725.901ZM914.728 878.637C913.024 911.938 897.708 943.076 872.37 964.752L875.62 968.551C902.001 945.983 917.947 913.564 919.721 878.893L914.728 878.637ZM840.352 710.5C854.925 710.5 868.961 716 879.654 725.901L883.051 722.233C871.434 711.476 856.184 705.5 840.352 705.5L840.352 710.5ZM792.4 1013.48C816.344 1010.15 838.832 1000.02 857.202 984.308L853.951 980.509C836.308 995.603 814.709 1005.33 791.711 1008.52L792.4 1013.48ZM773.913 737.268C788.667 720.266 810.071 710.5 832.582 710.5L832.582 705.5C808.622 705.5 785.84 715.894 770.137 733.991L773.913 737.268ZM922.06 833.206C923.025 814.349 919.756 795.515 912.494 778.086L907.879 780.009C914.854 796.75 917.993 814.839 917.066 832.95L922.06 833.206Z" fill="#52FF00"/>
<path d="M749.999 488.7L747.499 488.7L749.999 488.7ZM1133.5 453.943L1136 453.943L1136 453.943L1133.5 453.943ZM1131.73 1006.77C1132.71 1007.74 1134.29 1007.74 1135.27 1006.77L1151.18 990.858C1152.15 989.882 1152.15 988.299 1151.18 987.322C1150.2 986.346 1148.62 986.346 1147.64 987.322L1133.5 1001.46L1119.36 987.322C1118.38 986.346 1116.8 986.346 1115.82 987.322C1114.84 988.299 1114.84 989.882 1115.82 990.858L1131.73 1006.77ZM865.721 302.269L864.612 300.029L865.721 302.269ZM885.173 292.638L886.283 294.878L885.173 292.638ZM1122.37 391.258L1124.74 390.465L1122.37 391.258ZM1124.15 396.579L1121.78 397.373L1124.15 396.579ZM1003.4 280.357L1004.02 277.937L1003.4 280.357ZM760.333 423.95L757.957 423.171L760.333 423.95ZM752.499 994.999L752.499 488.7L747.499 488.7L747.499 994.999L752.499 994.999ZM1131 453.943L1131 1005L1136 1005L1136 453.943L1131 453.943ZM866.831 304.509L886.283 294.878L884.064 290.397L864.612 300.029L866.831 304.509ZM1120 392.052L1121.78 397.373L1126.52 395.786L1124.74 390.465L1120 392.052ZM1002.77 282.778C1057.83 296.999 1101.95 338.125 1120 392.052L1124.74 390.465C1106.16 334.932 1060.72 292.581 1004.02 277.937L1002.77 282.778ZM762.708 424.728C779.877 372.306 817.397 328.986 866.831 304.509L864.612 300.029C813.976 325.101 775.543 369.475 757.957 423.171L762.708 424.728ZM1136 453.943C1136 434.173 1132.8 414.533 1126.52 395.786L1121.78 397.373C1127.89 415.609 1131 434.712 1131 453.943L1136 453.943ZM752.499 488.7C752.499 466.97 755.945 445.378 762.708 424.728L757.957 423.171C751.029 444.324 747.499 466.441 747.499 488.7L752.499 488.7ZM886.283 294.878C922.401 276.994 963.748 272.699 1002.77 282.778L1004.02 277.937C963.836 267.558 921.258 271.981 884.064 290.397L886.283 294.878Z" fill="#0500FF"/>
<path d="M267.543 583.461V635H256.469V595.977C255.859 596.516 255.133 597.031 254.289 597.523C253.469 597.992 252.59 598.426 251.652 598.824C250.715 599.199 249.742 599.527 248.734 599.809C247.727 600.066 246.73 600.254 245.746 600.371V591.02C248.629 590.176 251.348 589.098 253.902 587.785C256.457 586.473 258.766 585.031 260.828 583.461H267.543Z" fill="#FF0000"/>
<path d="M660.375 810.789H681.75V820H648.211V816.203C648.211 813.625 648.645 811.316 649.512 809.277C650.379 807.215 651.469 805.375 652.781 803.758C654.094 802.117 655.523 800.676 657.07 799.434C658.641 798.168 660.129 797.031 661.535 796.023C663.012 794.969 664.301 793.961 665.402 793C666.527 792.039 667.465 791.09 668.215 790.152C668.988 789.191 669.562 788.23 669.938 787.27C670.312 786.285 670.5 785.242 670.5 784.141C670.5 781.984 669.891 780.355 668.672 779.254C667.453 778.152 665.59 777.602 663.082 777.602C658.746 777.602 654.598 779.324 650.637 782.77V772.996C655.02 770.16 659.965 768.742 665.473 768.742C668.027 768.742 670.312 769.082 672.328 769.762C674.367 770.418 676.09 771.367 677.496 772.609C678.902 773.852 679.969 775.363 680.695 777.145C681.445 778.902 681.82 780.871 681.82 783.051C681.82 785.371 681.457 787.434 680.73 789.238C680.027 791.043 679.078 792.684 677.883 794.16C676.711 795.637 675.352 796.996 673.805 798.238C672.258 799.457 670.652 800.641 668.988 801.789C667.863 802.586 666.773 803.383 665.719 804.18C664.688 804.953 663.773 805.727 662.977 806.5C662.18 807.25 661.547 807.988 661.078 808.715C660.609 809.441 660.375 810.133 660.375 810.789Z" fill="#52FF00"/>
<path d="M1143.41 679.348V669.68C1146.78 672.141 1150.72 673.371 1155.22 673.371C1158.05 673.371 1160.26 672.762 1161.83 671.543C1163.42 670.324 1164.22 668.625 1164.22 666.445C1164.22 664.195 1163.23 662.461 1161.27 661.242C1159.32 660.023 1156.64 659.414 1153.21 659.414H1148.54V650.906H1152.86C1159.43 650.906 1162.71 648.727 1162.71 644.367C1162.71 640.266 1160.19 638.215 1155.15 638.215C1151.77 638.215 1148.49 639.305 1145.3 641.484V632.414C1148.84 630.633 1152.97 629.742 1157.68 629.742C1162.84 629.742 1166.84 630.902 1169.7 633.223C1172.59 635.543 1174.03 638.555 1174.03 642.258C1174.03 648.844 1170.69 652.969 1164.01 654.633V654.809C1167.57 655.254 1170.38 656.555 1172.45 658.711C1174.51 660.844 1175.54 663.469 1175.54 666.586C1175.54 671.297 1173.82 675.023 1170.37 677.766C1166.93 680.508 1162.17 681.879 1156.1 681.879C1150.89 681.879 1146.66 681.035 1143.41 679.348Z" fill="#0500FF"/>
</svg>
