<svg width="1143" height="1142" viewBox="0 0 1143 1142" fill="none" xmlns="http://www.w3.org/2000/svg">
<g clip-path="url(#clip0_71_47)">
<path d="M240.632 151.98C190.5 165.146 153.546 203.499 136.358 260.456C123.754 302.244 123.181 314.837 123.181 633.395V936.211L134.066 935.352L144.666 934.494L146.384 618.225C147.53 338.307 148.39 299.668 152.4 282.781C166.151 227.255 185.63 208.937 233.47 206.648C256.96 205.789 260.111 206.075 269.278 212.372C281.883 220.958 291.05 237.559 297.066 262.46C301.076 279.633 301.936 319.13 303.654 581.017C304.8 799.972 306.233 882.689 308.811 890.13C319.983 922.759 343.187 935.925 389.308 935.925C450.325 935.925 478.685 917.893 523.947 850.346L546.578 816.573L548.296 831.17C549.156 839.184 550.015 850.919 550.015 857.215C550.015 874.388 556.604 896.999 565.484 909.593C569.781 915.89 579.808 924.476 588.115 929.056C616.762 944.511 678.352 941.649 716.166 922.759C727.051 917.321 739.942 908.162 745.099 902.437C758.563 886.982 770.308 859.791 776.324 829.453C781.766 804.266 782.053 787.665 782.053 544.096C782.053 300.24 781.766 285.071 776.896 276.484C768.875 262.46 756.557 258.166 716.739 255.877C697.259 254.732 682.649 253.015 683.795 251.583C687.519 248.149 760.854 226.396 781.48 222.962C804.397 218.955 849.086 221.245 869.998 227.541C890.337 233.552 901.223 243.569 907.239 261.315C911.822 275.053 912.395 300.526 913.254 605.918L914.114 935.925H975.418H1037.01V592.18C1037.01 285.357 1036.43 246.432 1032.42 228.114C1019.25 170.584 995.184 153.125 928.151 153.412C889.191 153.698 861.69 159.422 799.241 181.174C720.176 208.079 647.127 243.569 620.772 267.039L608.741 277.915L627.361 276.484C702.129 269.901 715.593 271.046 734.213 283.926L741.948 289.364V569.569C741.948 788.524 741.088 850.06 738.51 851.777C732.208 855.784 685.8 856.643 665.748 853.208C637.387 848.057 625.356 840.901 617.908 824.873C612.178 812.566 611.605 805.41 610.173 742.443L608.741 673.465L572.933 704.663L537.124 736.146L531.109 757.899C520.223 797.969 506.186 830.884 495.587 841.474C488.425 848.629 474.961 848.629 459.778 841.76C444.882 835.177 434.856 823.156 426.262 802.262L419.673 785.662L418.241 518.05C416.809 254.446 416.522 250.152 410.506 232.693C395.324 187.757 363.526 157.991 321.415 149.118C298.784 144.539 264.981 145.684 240.632 151.98Z" fill="black"/>
<path d="M497.812 1092V1041.59H515.672C533.578 1041.59 542.531 1049.78 542.531 1066.16C542.531 1074.01 540.082 1080.28 535.184 1084.97C530.309 1089.66 523.805 1092 515.672 1092H497.812ZM509.168 1050.83V1082.79H514.793C519.715 1082.79 523.57 1081.31 526.359 1078.36C529.172 1075.41 530.578 1071.39 530.578 1066.3C530.578 1061.5 529.184 1057.72 526.395 1054.98C523.629 1052.21 519.738 1050.83 514.723 1050.83H509.168ZM594.527 1092H583.137V1071.47H562.254V1092H550.898V1041.59H562.254V1061.7H583.137V1041.59H594.527V1092ZM650.426 1092H638.051L634.465 1080.79H616.535L612.984 1092H600.68L619.031 1041.59H632.496L650.426 1092ZM631.863 1072.07L626.449 1055.12C626.051 1053.86 625.77 1052.34 625.605 1050.59H625.324C625.207 1052.06 624.914 1053.53 624.445 1054.98L618.961 1072.07H631.863Z" fill="#8B704F"/>
<path d="M117.199 315.236L119.699 315.265L117.199 315.236ZM432 277.42L434.5 277.42L432 277.42ZM430.232 774.268C431.209 775.244 432.792 775.244 433.768 774.268L449.678 758.358C450.654 757.381 450.654 755.799 449.678 754.822C448.702 753.846 447.119 753.846 446.142 754.822L432 768.964L417.858 754.822C416.882 753.846 415.299 753.846 414.323 754.822C413.346 755.799 413.346 757.381 414.323 758.358L430.232 774.268ZM125.763 265.125L123.395 264.322L125.763 265.125ZM131.307 248.77L133.675 249.573L131.307 248.77ZM235.178 146.543L235.943 148.923L235.178 146.543ZM240.507 144.831L239.742 142.451L240.507 144.831ZM324.178 142.475L324.807 140.055L324.807 140.055L324.178 142.475ZM328.555 143.614L327.926 146.033L327.926 146.033L328.555 143.614ZM409.227 201.402L407.139 202.777L407.139 202.777L409.227 201.402ZM112.5 930.029L119.699 315.265L114.699 315.207L107.5 929.971L112.5 930.029ZM429.5 277.42L429.5 772.5L434.5 772.5L434.5 277.42L429.5 277.42ZM128.131 265.927L133.675 249.573L128.939 247.967L123.395 264.322L128.131 265.927ZM235.943 148.923L241.272 147.211L239.742 142.451L234.413 144.163L235.943 148.923ZM323.548 144.894L327.926 146.033L329.185 141.194L324.807 140.055L323.548 144.894ZM327.926 146.033C360.442 154.494 388.665 174.712 407.139 202.777L411.315 200.028C392.162 170.929 362.898 149.967 329.185 141.194L327.926 146.033ZM133.675 249.573C149.897 201.718 187.835 164.38 235.943 148.923L234.413 144.163C184.798 160.104 145.67 198.612 128.939 247.967L133.675 249.573ZM434.5 277.42C434.5 249.911 426.44 223.005 411.315 200.027L407.139 202.777C421.726 224.938 429.5 250.888 429.5 277.42L434.5 277.42ZM119.699 315.265C119.895 298.478 122.741 281.827 128.131 265.927L123.395 264.322C117.837 280.72 114.902 297.893 114.699 315.207L119.699 315.265ZM241.272 147.211C267.922 138.649 296.458 137.845 323.548 144.894L324.807 140.055C296.799 132.768 267.296 133.598 239.742 142.451L241.272 147.211Z" fill="#FF0000"/>
<path d="M732 814.724L734.5 814.724L734.5 814.724L732 814.724ZM732 313.435L734.5 313.435L732 313.435ZM470.287 819.459L470.987 817.059L470.287 819.459ZM500.005 805.893L502.277 806.937L500.005 805.893ZM528.65 743.528L530.922 744.572L528.65 743.528ZM614.944 677.623L612.45 677.802L614.944 677.623ZM624.691 813.719L622.197 813.898L622.197 813.898L624.691 813.719ZM643.828 836.251L643.248 838.683L643.828 836.251ZM683.537 845.72L684.117 843.288L683.537 845.72ZM698.177 844.787L699.061 847.125L698.177 844.787ZM715.841 838.109L716.725 840.447L715.841 838.109ZM727.424 299.018L725.382 300.459L725.382 300.459L727.424 299.018ZM725.698 296.572L727.741 295.131L725.698 296.572ZM710.322 286.505L709.818 288.953L709.818 288.953L710.322 286.505ZM676.098 279.448L675.593 281.896L675.593 281.896L676.098 279.448ZM666.872 279.284L666.454 276.82L666.454 276.82L666.872 279.284ZM610.462 287.052C609.662 288.178 609.927 289.739 611.053 290.538L629.397 303.566C630.523 304.365 632.084 304.101 632.883 302.975C633.683 301.849 633.418 300.289 632.292 299.489L615.986 287.909L627.566 271.603C628.365 270.477 628.101 268.916 626.975 268.117C625.849 267.317 624.289 267.582 623.489 268.708L610.462 287.052ZM533.622 736.353L535.397 738.114L533.622 736.353ZM594.022 675.485L595.797 677.246L595.797 677.246L594.022 675.485ZM595.682 673.291L597.859 674.52L597.859 674.52L595.682 673.291ZM734.5 814.724L734.5 313.435L729.5 313.435L729.5 814.724L734.5 814.724ZM454.3 817.4L469.587 821.859L470.987 817.059L455.7 812.6L454.3 817.4ZM502.277 806.937L530.922 744.572L526.378 742.485L497.734 804.85L502.277 806.937ZM612.45 677.802L622.197 813.898L627.184 813.54L617.438 677.445L612.45 677.802ZM643.248 838.683L682.957 848.152L684.117 843.288L644.408 833.819L643.248 838.683ZM699.061 847.125L716.725 840.447L714.957 835.771L697.292 842.448L699.061 847.125ZM729.467 297.576L727.741 295.131L723.656 298.014L725.382 300.459L729.467 297.576ZM710.827 284.056L676.603 276.999L675.593 281.896L709.818 288.953L710.827 284.056ZM666.454 276.82L612.082 286.035L612.918 290.965L667.289 281.749L666.454 276.82ZM535.397 738.114L595.797 677.246L592.248 673.724L531.848 734.592L535.397 738.114ZM595.797 677.246C596.603 676.434 597.297 675.517 597.859 674.52L593.505 672.062C593.162 672.67 592.739 673.229 592.248 673.724L595.797 677.246ZM676.603 276.999C673.26 276.31 669.819 276.249 666.454 276.82L667.289 281.749C670.042 281.283 672.858 281.333 675.593 281.896L676.603 276.999ZM727.741 295.131C723.714 289.426 717.667 285.466 710.827 284.056L709.818 288.953C715.414 290.107 720.361 293.346 723.656 298.014L727.741 295.131ZM682.957 848.152C688.307 849.428 693.916 849.07 699.061 847.125L697.292 842.448C693.083 844.04 688.494 844.332 684.117 843.288L682.957 848.152ZM622.197 813.898C623.054 825.868 631.575 835.899 643.248 838.683L644.408 833.819C634.857 831.542 627.886 823.334 627.184 813.54L622.197 813.898ZM617.438 677.445C616.531 664.786 599.744 661.011 593.505 672.062L597.859 674.52C601.663 667.782 611.898 670.084 612.45 677.802L617.438 677.445ZM469.587 821.859C482.676 825.676 496.586 819.327 502.277 806.937L497.734 804.85C493.077 814.987 481.696 820.182 470.987 817.059L469.587 821.859ZM734.5 313.435C734.5 307.755 732.742 302.216 729.467 297.576L725.382 300.459C728.061 304.255 729.5 308.788 729.5 313.435L734.5 313.435ZM530.922 744.572C532.023 742.173 533.538 739.988 535.397 738.114L531.848 734.592C529.576 736.882 527.724 739.554 526.378 742.485L530.922 744.572ZM729.5 814.724C729.5 824.081 723.709 832.462 714.957 835.771L716.725 840.447C727.422 836.403 734.5 826.161 734.5 814.724L729.5 814.724Z" fill="#52FF00"/>
<path d="M949.132 143.152L949.541 140.686L949.132 143.152ZM967.725 146.233L967.316 148.699L967.725 146.233ZM1042.34 233.389L1039.84 233.412L1039.84 233.412L1042.34 233.389ZM1047.25 940.784C1048.23 941.751 1049.82 941.737 1050.78 940.751L1066.54 924.692C1067.51 923.706 1067.5 922.123 1066.51 921.156C1065.52 920.189 1063.94 920.204 1062.97 921.19L1048.97 935.465L1034.69 921.457C1033.71 920.49 1032.12 920.505 1031.16 921.49C1030.19 922.475 1030.2 924.058 1031.19 925.025L1047.25 940.784ZM642.375 242.726L643.906 244.703L643.906 244.703L642.375 242.726ZM699.673 211.554L700.502 213.913L699.673 211.554ZM876.487 149.47L875.659 147.111L876.487 149.47ZM1016.9 171.847L1015.11 173.596L1016.9 171.847ZM948.724 145.618L967.316 148.699L968.133 143.766L949.541 140.686L948.724 145.618ZM1039.84 233.412L1046.5 939.024L1051.5 938.976L1044.84 233.365L1039.84 233.412ZM608.03 272.477L643.906 244.703L640.845 240.749L604.97 268.523L608.03 272.477ZM700.502 213.913L877.315 151.828L875.659 147.111L698.845 209.195L700.502 213.913ZM643.906 244.703C660.997 231.47 680.107 221.074 700.502 213.913L698.845 209.195C677.944 216.534 658.361 227.188 640.845 240.749L643.906 244.703ZM1015.11 173.596C1030.77 189.595 1039.63 211.029 1039.84 233.412L1044.84 233.365C1044.62 209.691 1035.24 187.021 1018.69 170.099L1015.11 173.596ZM949.541 140.686C924.765 136.581 899.354 138.791 875.659 147.111L877.315 151.828C900.217 143.787 924.777 141.651 948.724 145.618L949.541 140.686ZM967.316 148.699C985.489 151.71 1002.23 160.43 1015.11 173.596L1018.69 170.099C1005.06 156.174 987.354 146.951 968.133 143.766L967.316 148.699Z" fill="#0500FF"/>
<path d="M86.543 516.461V568H75.4688V528.977C74.8594 529.516 74.1328 530.031 73.2891 530.523C72.4688 530.992 71.5898 531.426 70.6523 531.824C69.7148 532.199 68.7422 532.527 67.7344 532.809C66.7266 533.066 65.7305 533.254 64.7461 533.371V524.02C67.6289 523.176 70.3477 522.098 72.9023 520.785C75.457 519.473 77.7656 518.031 79.8281 516.461H86.543Z" fill="#FF0000"/>
<path d="M693.375 558.789H714.75V568H681.211V564.203C681.211 561.625 681.645 559.316 682.512 557.277C683.379 555.215 684.469 553.375 685.781 551.758C687.094 550.117 688.523 548.676 690.07 547.434C691.641 546.168 693.129 545.031 694.535 544.023C696.012 542.969 697.301 541.961 698.402 541C699.527 540.039 700.465 539.09 701.215 538.152C701.988 537.191 702.562 536.23 702.938 535.27C703.312 534.285 703.5 533.242 703.5 532.141C703.5 529.984 702.891 528.355 701.672 527.254C700.453 526.152 698.59 525.602 696.082 525.602C691.746 525.602 687.598 527.324 683.637 530.77V520.996C688.02 518.16 692.965 516.742 698.473 516.742C701.027 516.742 703.312 517.082 705.328 517.762C707.367 518.418 709.09 519.367 710.496 520.609C711.902 521.852 712.969 523.363 713.695 525.145C714.445 526.902 714.82 528.871 714.82 531.051C714.82 533.371 714.457 535.434 713.73 537.238C713.027 539.043 712.078 540.684 710.883 542.16C709.711 543.637 708.352 544.996 706.805 546.238C705.258 547.457 703.652 548.641 701.988 549.789C700.863 550.586 699.773 551.383 698.719 552.18C697.688 552.953 696.773 553.727 695.977 554.5C695.18 555.25 694.547 555.988 694.078 556.715C693.609 557.441 693.375 558.133 693.375 558.789Z" fill="#52FF00"/>
<path d="M1065.41 566.348V556.68C1068.78 559.141 1072.72 560.371 1077.22 560.371C1080.05 560.371 1082.26 559.762 1083.83 558.543C1085.42 557.324 1086.22 555.625 1086.22 553.445C1086.22 551.195 1085.23 549.461 1083.27 548.242C1081.32 547.023 1078.64 546.414 1075.21 546.414H1070.54V537.906H1074.86C1081.43 537.906 1084.71 535.727 1084.71 531.367C1084.71 527.266 1082.19 525.215 1077.15 525.215C1073.77 525.215 1070.49 526.305 1067.3 528.484V519.414C1070.84 517.633 1074.97 516.742 1079.68 516.742C1084.84 516.742 1088.84 517.902 1091.7 520.223C1094.59 522.543 1096.03 525.555 1096.03 529.258C1096.03 535.844 1092.69 539.969 1086.01 541.633V541.809C1089.57 542.254 1092.38 543.555 1094.45 545.711C1096.51 547.844 1097.54 550.469 1097.54 553.586C1097.54 558.297 1095.82 562.023 1092.37 564.766C1088.93 567.508 1084.17 568.879 1078.1 568.879C1072.89 568.879 1068.66 568.035 1065.41 566.348Z" fill="#0500FF"/>
</g>
<defs>
<clipPath id="clip0_71_47">
<rect width="1143" height="1142" fill="white"/>
</clipPath>
</defs>
</svg>
