<svg width="1036" height="1036" viewBox="0 0 1036 1036" fill="none" xmlns="http://www.w3.org/2000/svg">
<g clip-path="url(#clip0_71_71)">
<path d="M266.549 167.894C244.423 172.58 221.517 184.814 164.511 222.037C120.78 250.931 114.793 255.616 109.847 265.768C102.819 280.345 99.6954 296.744 103.86 296.744C105.682 296.744 129.63 283.208 157.222 266.809C184.814 250.41 208.762 236.874 210.584 236.874C219.694 236.874 219.955 245.204 221.256 562.251L222.558 873.312H274.618H326.678L327.459 587.5L327.98 301.689L348.023 292.319C396.439 269.933 478.434 244.163 486.243 248.848C488.586 250.41 493.011 256.137 495.874 261.863C501.08 271.755 501.08 278.523 502.382 572.663L503.683 873.312H555.744H607.804L608.585 580.212L609.106 287.112L639.821 274.097C673.4 259.781 729.625 240.518 746.545 237.915C761.642 235.573 769.191 241.039 774.918 258.219C779.082 270.974 779.343 294.922 780.384 573.444L781.165 874.613L836.349 874.092L891.533 873.312V553.141C891.533 211.365 891.533 209.803 878.778 184.814C875.394 178.046 869.147 171.018 864.201 168.155C855.611 163.209 854.57 163.209 826.718 167.113C782.466 173.621 752.792 184.814 679.908 221.516C639.3 242.08 613.791 253.534 613.01 251.711C612.489 249.889 611.448 240.258 610.667 230.367C608.585 204.337 602.338 185.855 592.186 174.923C583.856 165.812 582.555 165.291 568.238 165.812C539.865 166.593 485.462 187.938 390.713 235.052C358.695 251.191 331.364 264.466 330.323 264.987C329.281 265.507 327.72 253.013 326.678 237.395C324.336 200.432 317.047 178.046 304.813 169.977C294.922 163.209 289.195 162.949 266.549 167.894Z" fill="black"/>
<path d="M370.543 576.461V628H359.469V588.977C358.859 589.516 358.133 590.031 357.289 590.523C356.469 590.992 355.59 591.426 354.652 591.824C353.715 592.199 352.742 592.527 351.734 592.809C350.727 593.066 349.73 593.254 348.746 593.371V584.02C351.629 583.176 354.348 582.098 356.902 580.785C359.457 579.473 361.766 578.031 363.828 576.461H370.543Z" fill="#FF0000"/>
<path d="M642.375 616.789H663.75V626H630.211V622.203C630.211 619.625 630.645 617.316 631.512 615.277C632.379 613.215 633.469 611.375 634.781 609.758C636.094 608.117 637.523 606.676 639.07 605.434C640.641 604.168 642.129 603.031 643.535 602.023C645.012 600.969 646.301 599.961 647.402 599C648.527 598.039 649.465 597.09 650.215 596.152C650.988 595.191 651.562 594.23 651.938 593.27C652.312 592.285 652.5 591.242 652.5 590.141C652.5 587.984 651.891 586.355 650.672 585.254C649.453 584.152 647.59 583.602 645.082 583.602C640.746 583.602 636.598 585.324 632.637 588.77V578.996C637.02 576.16 641.965 574.742 647.473 574.742C650.027 574.742 652.312 575.082 654.328 575.762C656.367 576.418 658.09 577.367 659.496 578.609C660.902 579.852 661.969 581.363 662.695 583.145C663.445 584.902 663.82 586.871 663.82 589.051C663.82 591.371 663.457 593.434 662.73 595.238C662.027 597.043 661.078 598.684 659.883 600.16C658.711 601.637 657.352 602.996 655.805 604.238C654.258 605.457 652.652 606.641 650.988 607.789C649.863 608.586 648.773 609.383 647.719 610.18C646.688 610.953 645.773 611.727 644.977 612.5C644.18 613.25 643.547 613.988 643.078 614.715C642.609 615.441 642.375 616.133 642.375 616.789Z" fill="#52FF00"/>
<path d="M559.738 996.625C554.816 999.461 548.699 1000.88 541.387 1000.88C533.277 1000.88 526.879 998.641 522.191 994.164C517.527 989.664 515.195 983.477 515.195 975.602C515.195 967.68 517.75 961.223 522.859 956.23C527.969 951.238 534.766 948.742 543.25 948.742C548.594 948.742 553.305 949.48 557.383 950.957V961.609C553.492 959.359 548.734 958.234 543.109 958.234C538.398 958.234 534.555 959.77 531.578 962.84C528.625 965.887 527.148 969.965 527.148 975.074C527.148 980.254 528.473 984.262 531.121 987.098C533.793 989.934 537.391 991.352 541.914 991.352C544.633 991.352 546.789 990.965 548.383 990.191V980.348H538.293V971.277H559.738V996.625ZM613.879 1000H601.504L597.918 988.785H579.988L576.438 1000H564.133L582.484 949.586H595.949L613.879 1000ZM595.316 980.066L589.902 963.121C589.504 961.855 589.223 960.344 589.059 958.586H588.777C588.66 960.062 588.367 961.527 587.898 962.98L582.414 980.066H595.316Z" fill="#8B704F"/>
<path d="M336.643 260.385L339.143 260.372L339.143 260.372L336.643 260.385ZM338.242 876.778C339.224 877.749 340.807 877.74 341.777 876.758L357.6 860.762C358.571 859.78 358.563 858.197 357.581 857.226C356.599 856.255 355.016 856.264 354.045 857.246L339.981 871.465L325.762 857.4C324.78 856.429 323.197 856.438 322.226 857.42C321.255 858.401 321.264 859.984 322.245 860.955L338.242 876.778ZM279.66 152.379L279.897 149.89L279.66 152.379ZM336.828 252.822L339.326 252.919L339.326 252.919L336.828 252.822ZM336.818 253.087L339.316 253.184L339.316 253.183L336.818 253.087ZM334.143 260.399L337.5 875.014L342.5 874.987L339.143 260.372L334.143 260.399ZM107 254C108.77 255.766 108.77 255.765 108.771 255.765C108.771 255.764 108.772 255.763 108.774 255.762C108.777 255.759 108.781 255.754 108.787 255.748C108.8 255.736 108.818 255.717 108.844 255.692C108.894 255.642 108.97 255.566 109.071 255.466C109.273 255.265 109.576 254.966 109.974 254.575C110.771 253.794 111.951 252.646 113.477 251.185C116.529 248.263 120.967 244.093 126.496 239.105C137.558 229.127 152.976 215.895 170.41 202.864C187.854 189.824 207.257 177.031 226.295 167.892C245.389 158.725 263.821 153.38 279.422 154.868L279.897 149.89C262.943 148.274 243.515 154.079 224.131 163.384C204.69 172.717 184.998 185.717 167.416 198.859C149.824 212.009 134.285 225.346 123.147 235.392C117.577 240.417 113.103 244.622 110.02 247.573C108.478 249.048 107.284 250.211 106.473 251.006C106.068 251.403 105.759 251.709 105.55 251.916C105.445 252.02 105.366 252.098 105.313 252.152C105.286 252.179 105.266 252.199 105.252 252.213C105.245 252.22 105.24 252.225 105.236 252.229C105.234 252.23 105.233 252.232 105.232 252.233C105.231 252.234 105.23 252.235 107 254ZM279.422 154.868C306.728 157.471 320.623 176.951 327.673 198.667C334.733 220.416 334.675 243.803 334.33 252.725L339.326 252.919C339.679 243.816 339.764 219.721 332.428 197.124C325.082 174.494 310.044 152.765 279.897 149.89L279.422 154.868ZM339.143 260.372C339.13 257.989 339.221 255.635 339.316 253.184L334.32 252.99C334.226 255.424 334.13 257.888 334.143 260.399L339.143 260.372ZM339.316 253.183L339.326 252.919L334.33 252.725L334.32 252.99L339.316 253.183Z" fill="#FF0000"/>
<path d="M616.741 307.019L619.241 307.019L619.241 307.019L616.741 307.019ZM614.973 876.378C615.95 877.354 617.533 877.354 618.509 876.378L634.419 860.468C635.395 859.492 635.395 857.909 634.419 856.933C633.443 855.956 631.86 855.956 630.883 856.933L616.741 871.075L602.599 856.933C601.623 855.956 600.04 855.956 599.064 856.933C598.087 857.909 598.087 859.492 599.063 860.468L614.973 876.378ZM568 156L568.237 153.511L568 156ZM617.223 297.082L614.733 296.865L614.733 296.865L617.223 297.082ZM614.241 307.019L614.241 874.61L619.241 874.61L619.241 307.019L614.241 307.019ZM347 246C348.313 248.128 348.313 248.127 348.314 248.127C348.316 248.126 348.317 248.125 348.319 248.124C348.324 248.121 348.331 248.117 348.34 248.111C348.358 248.1 348.386 248.083 348.423 248.06C348.497 248.015 348.608 247.947 348.755 247.856C349.049 247.676 349.488 247.408 350.064 247.058C351.217 246.358 352.917 245.331 355.106 244.025C359.484 241.414 365.814 237.688 373.614 233.236C389.218 224.33 410.693 212.523 434.191 200.913C457.697 189.299 483.181 177.906 506.81 169.808C530.525 161.681 552.047 156.99 567.763 158.489L568.237 153.511C551.397 151.906 529.017 156.913 505.189 165.078C481.277 173.273 455.58 184.768 431.976 196.431C408.363 208.097 386.796 219.954 371.136 228.893C363.304 233.364 356.947 237.106 352.545 239.731C350.344 241.044 348.632 242.078 347.469 242.785C346.887 243.138 346.443 243.409 346.144 243.592C345.994 243.684 345.88 243.754 345.804 243.801C345.766 243.824 345.737 243.842 345.717 243.854C345.708 243.86 345.7 243.865 345.695 243.868C345.693 243.869 345.691 243.871 345.689 243.871C345.688 243.872 345.687 243.873 347 246ZM567.763 158.489C581.284 159.778 591.1 167.177 598.278 178.236C605.506 189.371 609.98 204.124 612.631 219.711C617.929 250.863 615.813 284.498 614.733 296.865L619.714 297.3C620.803 284.824 622.969 250.673 617.56 218.872C614.858 202.982 610.231 187.467 602.472 175.514C594.665 163.485 583.61 154.977 568.237 153.511L567.763 158.489ZM619.241 307.019C619.241 303.771 619.427 300.584 619.714 297.3L614.733 296.865C614.438 300.24 614.241 303.58 614.241 307.019L619.241 307.019Z" fill="#52FF00"/>
<path d="M893.482 269.625L890.982 269.625L893.482 269.625ZM891.714 875.988C892.69 876.964 894.273 876.964 895.249 875.988L911.159 860.078C912.135 859.102 912.135 857.519 911.159 856.543C910.183 855.566 908.6 855.566 907.624 856.543L893.481 870.685L879.339 856.543C878.363 855.566 876.78 855.566 875.804 856.543C874.827 857.519 874.827 859.102 875.804 860.078L891.714 875.988ZM852 158.5L851.763 160.989L852 158.5ZM893.651 263.43L896.148 263.543L896.148 263.543L893.651 263.43ZM890.982 269.625L890.981 874.22L895.981 874.22L895.982 269.625L890.982 269.625ZM629.5 235C630.663 237.213 630.663 237.213 630.664 237.213C630.665 237.212 630.667 237.211 630.669 237.21C630.674 237.208 630.681 237.204 630.69 237.199C630.708 237.189 630.736 237.175 630.774 237.155C630.848 237.116 630.961 237.057 631.109 236.98C631.407 236.825 631.85 236.594 632.432 236.294C633.595 235.692 635.312 234.809 637.522 233.688C641.941 231.444 648.33 228.244 656.201 224.423C671.946 216.78 693.611 206.655 717.299 196.728C740.996 186.797 766.675 177.08 790.457 170.237C814.312 163.372 835.978 159.484 851.763 160.989L852.237 156.011C835.467 154.412 813.041 158.535 789.074 165.432C765.033 172.35 739.156 182.146 715.367 192.116C691.569 202.09 669.818 212.255 654.017 219.925C646.116 223.761 639.7 226.974 635.258 229.229C633.037 230.357 631.309 231.245 630.135 231.852C629.548 232.156 629.1 232.389 628.798 232.546C628.647 232.625 628.532 232.685 628.455 232.725C628.416 232.746 628.387 232.761 628.367 232.771C628.358 232.776 628.35 232.78 628.345 232.783C628.343 232.784 628.341 232.785 628.339 232.786C628.338 232.787 628.337 232.787 629.5 235ZM851.763 160.989C861.848 161.951 869.391 167.431 875.105 175.672C880.863 183.977 884.679 194.987 887.154 206.616C892.103 229.859 891.541 254.786 891.154 263.317L896.148 263.543C896.541 254.899 897.129 229.456 892.045 205.575C889.504 193.642 885.508 181.903 879.214 172.824C872.876 163.682 864.127 157.145 852.237 156.011L851.763 160.989ZM895.982 269.625C895.982 267.6 896.054 265.613 896.148 263.543L891.154 263.317C891.059 265.408 890.982 267.485 890.982 269.625L895.982 269.625Z" fill="#0500FF"/>
<path d="M906.406 626.348V616.68C909.781 619.141 913.719 620.371 918.219 620.371C921.055 620.371 923.258 619.762 924.828 618.543C926.422 617.324 927.219 615.625 927.219 613.445C927.219 611.195 926.234 609.461 924.266 608.242C922.32 607.023 919.637 606.414 916.215 606.414H911.539V597.906H915.863C922.426 597.906 925.707 595.727 925.707 591.367C925.707 587.266 923.188 585.215 918.148 585.215C914.773 585.215 911.492 586.305 908.305 588.484V579.414C911.844 577.633 915.969 576.742 920.68 576.742C925.836 576.742 929.844 577.902 932.703 580.223C935.586 582.543 937.027 585.555 937.027 589.258C937.027 595.844 933.688 599.969 927.008 601.633V601.809C930.57 602.254 933.383 603.555 935.445 605.711C937.508 607.844 938.539 610.469 938.539 613.586C938.539 618.297 936.816 622.023 933.371 624.766C929.926 627.508 925.168 628.879 919.098 628.879C913.895 628.879 909.664 628.035 906.406 626.348Z" fill="#0500FF"/>
</g>
<defs>
<clipPath id="clip0_71_71">
<rect width="1036" height="1036" fill="white"/>
</clipPath>
</defs>
</svg>
