<svg width="1331" height="1365" viewBox="0 0 1331 1365" fill="none" xmlns="http://www.w3.org/2000/svg">
<g clip-path="url(#clip0_71_17)">
<path d="M1001.9 189.66C965.042 197.696 934.557 214.323 894.927 247.299L879.685 260.046L874.143 250.07C857.792 220.974 853.081 215.154 840.333 209.612C824.259 202.407 796.823 200.19 779.918 204.347C759.133 209.612 710.358 237.6 691.236 255.335C671.837 272.793 662.137 290.251 656.872 315.746C654.655 326.276 653.546 408.578 652.992 584.544C652.438 787.667 651.606 841.15 648.558 853.897L644.678 870.246L598.674 868.861C573.455 868.307 547.959 866.09 541.863 864.427C529.114 860.27 506.39 839.764 497.244 823.969C483.942 801.523 484.219 802.077 482.279 530.23L480.339 272.516L473.965 253.673C465.651 227.901 445.698 207.118 424.082 200.744C391.38 191.323 332.352 198.805 296.047 217.094C243.392 243.697 204.04 286.649 187.412 334.866L181.315 352.879L180.484 651.605L179.652 950.055H193.786H207.643V665.184C207.643 357.867 207.643 360.361 222.608 327.939C232.584 306.047 248.658 289.974 271.383 279.444C289.119 271.408 293.276 270.576 311.29 271.685C336.231 272.793 347.871 280.275 358.402 302.444C374.475 335.144 374.475 334.035 376.415 599.508L378.078 843.367L388.609 865.258C413.828 918.464 470.086 950.055 539.091 950.055C567.359 950.055 583.986 945.898 601.723 934.259C611.977 927.331 659.92 870.246 670.451 852.234C680.428 835.053 681.537 807.342 681.537 563.761C681.537 296.071 680.151 312.698 703.984 286.372C724.492 264.203 749.156 254.504 764.953 262.817C771.604 266.42 778.255 279.444 783.798 298.842C787.401 311.866 787.955 357.59 788.786 632.207L789.895 950.055L844.49 949.5L899.084 948.669L899.916 651.328C900.47 363.132 900.193 353.156 894.927 327.107C891.879 312.42 888.553 297.456 887.722 294.408C886.336 289.143 888.83 287.48 910.724 279.444C944.257 267.251 971.97 261.432 985.272 263.926C999.406 266.697 1014.37 282.492 1022.96 303.553L1029.34 319.625L1030.72 634.147L1032.11 948.669L1092.52 949.5L1152.66 950.055V636.364C1152.66 301.059 1152.38 293.577 1138.8 248.408C1130.77 222.359 1119.4 207.949 1096.4 196.588C1079.22 187.997 1075.06 186.889 1049.29 186.335C1031 185.78 1014.37 186.889 1001.9 189.66Z" fill="black"/>
<path d="M172.593 376.653L175.593 376.672L172.593 376.653ZM271.702 221.939L272.974 224.657L271.702 221.939ZM335.17 192.239L333.898 189.521L335.17 192.239ZM487.339 287.441L484.339 287.486L487.339 287.441ZM492.911 800.653C494.1 801.807 495.999 801.778 497.153 800.589L515.956 781.213C517.11 780.024 517.082 778.125 515.893 776.971C514.704 775.817 512.805 775.846 511.651 777.035L494.936 794.258L477.713 777.544C476.524 776.39 474.625 776.418 473.471 777.607C472.317 778.796 472.346 780.695 473.535 781.849L492.911 800.653ZM480.315 250.905L477.513 251.976L477.513 251.976L480.315 250.905ZM171.978 943.973L175.593 376.672L169.593 376.634L165.978 943.935L171.978 943.973ZM272.974 224.657L336.441 194.956L333.898 189.521L270.431 219.222L272.974 224.657ZM484.339 287.486L492 798.545L498 798.455L490.339 287.396L484.339 287.486ZM477.513 251.976C481.847 263.322 484.157 275.341 484.339 287.486L490.339 287.396C490.146 274.55 487.702 261.837 483.118 249.835L477.513 251.976ZM175.593 376.672C176.009 311.457 213.906 252.299 272.974 224.657L270.431 219.222C209.266 247.846 170.024 309.104 169.593 376.634L175.593 376.672ZM336.441 194.956C391.101 169.377 455.979 195.6 477.513 251.976L483.118 249.835C460.34 190.203 391.715 162.465 333.898 189.521L336.441 194.956Z" fill="#FF0000"/>
<path d="M549.373 841.008L548.038 843.122L549.373 841.008ZM646 787.733L648.5 787.733L646 787.733ZM646 308.338L648.5 308.338L646 308.338ZM661.78 266.633L663.654 268.288L661.78 266.633ZM695.005 229.015L696.879 230.67L695.005 229.015ZM906.087 324.985L903.587 325.007L906.087 324.985ZM909.748 949.783C910.732 950.751 912.315 950.737 913.283 949.752L929.054 933.705C930.022 932.72 930.008 931.137 929.023 930.169C928.039 929.202 926.456 929.215 925.488 930.2L911.469 944.465L897.205 930.446C896.22 929.478 894.637 929.492 893.669 930.477C892.702 931.461 892.715 933.044 893.7 934.012L909.748 949.783ZM723.039 210.712L722.278 208.331L722.278 208.331L723.039 210.712ZM767.48 196.503L766.719 194.122L766.719 194.122L767.48 196.503ZM793.076 193.837L793.33 191.35L793.076 193.837ZM827.571 197.365L827.826 194.878L827.826 194.878L827.571 197.365ZM880.902 240.037L878.532 240.831L880.902 240.037ZM902.83 305.531L905.2 304.737L902.83 305.531ZM503.665 815.114L548.038 843.122L550.707 838.894L506.334 810.886L503.665 815.114ZM648.5 787.733L648.5 308.338L643.5 308.338L643.5 787.733L648.5 787.733ZM663.654 268.288L696.879 230.67L693.131 227.36L659.906 264.978L663.654 268.288ZM903.587 325.007L909 948.022L914 947.978L908.587 324.963L903.587 325.007ZM723.8 213.093L768.242 198.884L766.719 194.122L722.278 208.331L723.8 213.093ZM792.822 196.324L827.317 199.852L827.826 194.878L793.33 191.35L792.822 196.324ZM878.532 240.831L900.459 306.325L905.2 304.737L883.273 239.243L878.532 240.831ZM827.317 199.852C850.954 202.27 870.988 218.299 878.532 240.831L883.273 239.243C875.106 214.85 853.416 197.495 827.826 194.878L827.317 199.852ZM768.242 198.884C776.171 196.349 784.539 195.477 792.822 196.324L793.33 191.35C784.364 190.433 775.304 191.377 766.719 194.122L768.242 198.884ZM908.587 324.963C908.527 318.085 907.384 311.26 905.2 304.737L900.459 306.325C902.476 312.349 903.532 318.654 903.587 325.007L908.587 324.963ZM696.879 230.67C704.103 222.49 713.406 216.417 723.8 213.093L722.278 208.331C711.024 211.929 700.953 218.504 693.131 227.36L696.879 230.67ZM548.038 843.122C591.653 870.652 648.5 839.311 648.5 787.733L643.5 787.733C643.5 835.373 590.993 864.323 550.707 838.894L548.038 843.122ZM648.5 308.338C648.5 293.587 653.889 279.344 663.654 268.288L659.906 264.978C649.334 276.948 643.5 292.368 643.5 308.338L648.5 308.338Z" fill="#00FF38"/>
<path d="M1159.5 304.112L1162 304.112L1162 304.112L1159.5 304.112ZM1157.73 952.768C1158.71 953.744 1160.29 953.744 1161.27 952.768L1177.18 936.858C1178.15 935.882 1178.15 934.299 1177.18 933.322C1176.2 932.346 1174.62 932.346 1173.64 933.322L1159.5 947.465L1145.36 933.322C1144.38 932.346 1142.8 932.346 1141.82 933.322C1140.85 934.299 1140.85 935.882 1141.82 936.858L1157.73 952.768ZM1086.29 185.244L1087.66 183.153L1086.29 185.244ZM1122.02 208.652L1120.65 210.744L1122.02 208.652ZM1138.28 230.166L1135.89 230.913L1138.28 230.166ZM1157.68 292.167L1155.29 292.914L1157.68 292.167ZM955.5 197L954.455 194.729L955.5 197ZM1063.74 178.925L1063.63 176.428L1063.74 178.925ZM1157 304.112L1157 951L1162 951L1162 304.112L1157 304.112ZM1084.92 187.336L1120.65 210.744L1123.39 206.561L1087.66 183.153L1084.92 187.336ZM1135.89 230.913L1155.29 292.914L1160.06 291.421L1140.66 229.42L1135.89 230.913ZM887.5 241C889.042 242.968 889.042 242.968 889.042 242.968C889.042 242.967 889.043 242.967 889.043 242.967C889.044 242.966 889.046 242.965 889.048 242.963C889.052 242.96 889.059 242.954 889.068 242.947C889.087 242.933 889.114 242.911 889.151 242.883C889.225 242.825 889.335 242.739 889.481 242.626C889.772 242.4 890.204 242.066 890.766 241.635C891.888 240.773 893.526 239.525 895.582 237.986C899.696 234.907 905.479 230.664 912.155 226.01C925.541 216.678 942.39 205.785 956.545 199.271L954.455 194.729C939.876 201.438 922.725 212.546 909.295 221.908C902.563 226.601 896.733 230.879 892.586 233.983C890.512 235.536 888.858 236.796 887.721 237.669C887.152 238.105 886.713 238.445 886.415 238.676C886.266 238.792 886.153 238.88 886.076 238.94C886.037 238.97 886.008 238.993 885.989 239.008C885.979 239.016 885.971 239.022 885.966 239.026C885.963 239.028 885.961 239.03 885.96 239.031C885.959 239.031 885.959 239.032 885.958 239.032C885.958 239.032 885.958 239.032 887.5 241ZM956.545 199.271C970.359 192.914 990.959 188.71 1011.37 185.967C1031.72 183.232 1051.61 181.98 1063.85 181.423L1063.63 176.428C1051.3 176.989 1031.25 178.25 1010.71 181.011C990.229 183.763 968.992 188.038 954.455 194.729L956.545 199.271ZM1120.65 210.744C1127.91 215.501 1133.3 222.629 1135.89 230.913L1140.66 229.42C1137.72 220.031 1131.62 211.953 1123.39 206.561L1120.65 210.744ZM1087.66 183.153C1080.54 178.488 1072.19 176.038 1063.63 176.428L1063.85 181.423C1071.31 181.083 1078.63 183.212 1084.92 187.336L1087.66 183.153ZM1162 304.112C1162 299.808 1161.35 295.528 1160.06 291.421L1155.29 292.914C1156.42 296.538 1157 300.314 1157 304.112L1162 304.112Z" fill="#2400FF"/>
<path d="M188.543 212.461V264H177.469V224.977C176.859 225.516 176.133 226.031 175.289 226.523C174.469 226.992 173.59 227.426 172.652 227.824C171.715 228.199 170.742 228.527 169.734 228.809C168.727 229.066 167.73 229.254 166.746 229.371V220.02C169.629 219.176 172.348 218.098 174.902 216.785C177.457 215.473 179.766 214.031 181.828 212.461H188.543Z" fill="#FF0000"/>
<path d="M607.375 312.789H628.75V322H595.211V318.203C595.211 315.625 595.645 313.316 596.512 311.277C597.379 309.215 598.469 307.375 599.781 305.758C601.094 304.117 602.523 302.676 604.07 301.434C605.641 300.168 607.129 299.031 608.535 298.023C610.012 296.969 611.301 295.961 612.402 295C613.527 294.039 614.465 293.09 615.215 292.152C615.988 291.191 616.562 290.23 616.938 289.27C617.312 288.285 617.5 287.242 617.5 286.141C617.5 283.984 616.891 282.355 615.672 281.254C614.453 280.152 612.59 279.602 610.082 279.602C605.746 279.602 601.598 281.324 597.637 284.77V274.996C602.02 272.16 606.965 270.742 612.473 270.742C615.027 270.742 617.312 271.082 619.328 271.762C621.367 272.418 623.09 273.367 624.496 274.609C625.902 275.852 626.969 277.363 627.695 279.145C628.445 280.902 628.82 282.871 628.82 285.051C628.82 287.371 628.457 289.434 627.73 291.238C627.027 293.043 626.078 294.684 624.883 296.16C623.711 297.637 622.352 298.996 620.805 300.238C619.258 301.457 617.652 302.641 615.988 303.789C614.863 304.586 613.773 305.383 612.719 306.18C611.688 306.953 610.773 307.727 609.977 308.5C609.18 309.25 608.547 309.988 608.078 310.715C607.609 311.441 607.375 312.133 607.375 312.789Z" fill="#52FF00"/>
<path d="M1157.41 242.348V232.68C1160.78 235.141 1164.72 236.371 1169.22 236.371C1172.05 236.371 1174.26 235.762 1175.83 234.543C1177.42 233.324 1178.22 231.625 1178.22 229.445C1178.22 227.195 1177.23 225.461 1175.27 224.242C1173.32 223.023 1170.64 222.414 1167.21 222.414H1162.54V213.906H1166.86C1173.43 213.906 1176.71 211.727 1176.71 207.367C1176.71 203.266 1174.19 201.215 1169.15 201.215C1165.77 201.215 1162.49 202.305 1159.3 204.484V195.414C1162.84 193.633 1166.97 192.742 1171.68 192.742C1176.84 192.742 1180.84 193.902 1183.7 196.223C1186.59 198.543 1188.03 201.555 1188.03 205.258C1188.03 211.844 1184.69 215.969 1178.01 217.633V217.809C1181.57 218.254 1184.38 219.555 1186.45 221.711C1188.51 223.844 1189.54 226.469 1189.54 229.586C1189.54 234.297 1187.82 238.023 1184.37 240.766C1180.93 243.508 1176.17 244.879 1170.1 244.879C1164.89 244.879 1160.66 244.035 1157.41 242.348Z" fill="#0500FF"/>
<path d="M661.984 1104H650.594V1083.47H629.711V1104H618.355V1053.59H629.711V1073.7H650.594V1053.59H661.984V1104ZM717.883 1104H705.508L701.922 1092.79H683.992L680.441 1104H668.137L686.488 1053.59H699.953L717.883 1104ZM699.32 1084.07L693.906 1067.12C693.508 1065.86 693.227 1064.34 693.062 1062.59H692.781C692.664 1064.06 692.371 1065.53 691.902 1066.98L686.418 1084.07H699.32Z" fill="#8B704F"/>
</g>
<defs>
<clipPath id="clip0_71_17">
<rect width="1331" height="1365" fill="white"/>
</clipPath>
</defs>
</svg>
