<svg width="1151" height="1151" viewBox="0 0 1151 1151" fill="none" xmlns="http://www.w3.org/2000/svg">
<g clip-path="url(#clip0_71_57)">
<path d="M311.081 187.78C225.675 206.728 168.267 247.734 136.027 313.061C118.211 348.976 118.776 334.836 118.776 662.886V961.523H132.916H146.774L147.622 661.189L148.471 360.571L154.975 339.644C171.095 287.326 191.456 268.944 236.422 266.399C265.267 264.985 277.145 268.661 292.982 284.215C302.314 293.547 306.839 301.749 313.061 319.848L320.979 343.603L322.393 623.576C323.524 868.199 324.373 904.398 328.049 911.468C333.988 921.648 363.682 943.99 376.408 947.383C397.618 953.322 425.615 955.867 505.931 959.261C629.232 964.351 780.813 956.716 792.974 944.555C794.954 942.576 783.641 929.284 752.816 898.459L709.83 855.19L707.002 838.505C703.609 817.861 703.326 701.347 706.437 701.347C719.728 701.347 868.765 856.039 937.202 940.879L953.605 961.523H1015.54C1049.76 961.523 1077.47 960.675 1077.47 959.827C1077.47 957.281 1030.24 896.196 997.156 855.756C913.73 753.947 811.922 646.766 768.653 615.092C757.907 607.457 749.423 600.104 749.423 598.69C749.423 597.559 792.974 543.261 846.423 478.499C1030.24 255.369 1077.47 196.83 1074.93 194.284C1070.12 189.477 1034.2 186.649 971.421 186.932C848.403 186.932 810.225 192.588 772.612 216.626C728.495 245.188 691.731 304.011 681.833 363.399C679.288 377.822 678.44 445.977 679.288 617.92L680.136 852.645L688.903 871.027C693.711 881.208 701.629 893.651 707.002 898.742C712.093 903.832 715.769 908.64 714.921 909.205C711.527 912.599 638.565 922.214 605.194 923.911C527.424 927.305 477.934 912.882 457.855 880.36L451.068 869.613L449.371 575.5C447.674 255.369 448.24 262.439 431.554 229.634C422.505 211.535 402.991 194.567 384.327 188.628C367.358 182.972 334.271 182.689 311.081 187.78ZM903.832 277.145C923.911 278.559 947.1 280.539 955.302 281.67L970.29 283.367L947.949 307.688C912.882 346.148 870.179 398.467 786.187 505.365L708.416 604.346L707.568 531.949C706.72 450.502 710.396 387.72 718.314 347.562C726.799 306.273 729.627 301.183 747.16 294.679C799.761 275.448 832.566 271.772 903.832 277.145Z" fill="black"/>
<path d="M562.035 1067C562.035 1073.75 560.465 1078.91 557.324 1082.5C554.207 1086.09 549.684 1087.88 543.754 1087.88C541.105 1087.88 538.656 1087.42 536.406 1086.51V1075.86C538.352 1077.33 540.531 1078.07 542.945 1078.07C548.125 1078.07 550.715 1074.23 550.715 1066.54V1036.59H562.035V1067ZM615.227 1087H602.852L599.266 1075.79H581.336L577.785 1087H565.48L583.832 1036.59H597.297L615.227 1087ZM596.664 1067.07L591.25 1050.12C590.852 1048.86 590.57 1047.34 590.406 1045.59H590.125C590.008 1047.06 589.715 1048.53 589.246 1049.98L583.762 1067.07H596.664Z" fill="#8B704F"/>
<path d="M111 392.07L113.5 392.07L111 392.07ZM451.946 285.343L449.446 285.377L451.946 285.343ZM458.257 870.792C459.246 871.755 460.829 871.733 461.792 870.743L477.481 854.615C478.444 853.626 478.422 852.043 477.432 851.08C476.442 850.117 474.86 850.139 473.897 851.129L459.951 865.465L445.615 851.519C444.626 850.556 443.043 850.578 442.08 851.568C441.117 852.558 441.139 854.14 442.129 855.103L458.257 870.792ZM337.437 177.643L337.22 180.134L337.437 177.643ZM353.141 179.014L353.358 176.524L353.141 179.014ZM134.496 304.214L136.662 305.462L134.496 304.214ZM142.254 290.747L140.088 289.499L142.254 290.747ZM200.842 229.754L202.176 231.869L200.842 229.754ZM249.728 198.91L248.394 196.795L249.728 198.91ZM433.38 226.206L431.309 227.606L433.38 226.206ZM113.5 961L113.5 392.07L108.5 392.07L108.5 961L113.5 961ZM449.446 285.377L457.5 869.035L462.5 868.966L454.446 285.309L449.446 285.377ZM337.22 180.134L352.923 181.505L353.358 176.524L337.655 175.152L337.22 180.134ZM136.662 305.462L144.421 291.995L140.088 289.499L132.33 302.966L136.662 305.462ZM202.176 231.869L251.062 201.024L248.394 196.795L199.508 227.64L202.176 231.869ZM144.421 291.995C158.499 267.557 178.323 246.919 202.176 231.869L199.508 227.64C174.968 243.124 154.572 264.356 140.088 289.499L144.421 291.995ZM352.923 181.505C384.663 184.277 413.461 201.214 431.309 227.606L435.451 224.805C416.759 197.165 386.599 179.427 353.358 176.524L352.923 181.505ZM454.446 285.309C454.148 263.72 447.546 242.69 435.451 224.805L431.309 227.606C442.858 244.683 449.162 264.764 449.446 285.377L454.446 285.309ZM113.5 392.07C113.5 361.67 121.487 331.804 136.662 305.462L132.33 302.966C116.718 330.067 108.5 360.794 108.5 392.07L113.5 392.07ZM337.655 175.152C306.336 172.417 274.983 180.019 248.394 196.795L251.062 201.024C276.726 184.831 306.989 177.493 337.22 180.134L337.655 175.152Z" fill="#FF0000"/>
<path d="M683.577 890.736L681.121 891.2L683.577 890.736ZM670.753 866.232L672.774 864.76L672.774 864.76L670.753 866.232ZM580 899L579.817 901.494L579.908 901.5L580 901.5L580 899ZM673.182 899L673.182 896.5L673.182 899ZM817 185.5L816.682 183.02L816.682 183.02L817 185.5ZM1052.43 172.063L1052.3 169.566L1052.43 172.063ZM1078.1 222.415L1080.05 223.983L1078.1 222.415ZM780.515 589.269C780.663 590.642 781.896 591.634 783.269 591.486L805.639 589.069C807.011 588.921 808.004 587.688 807.856 586.315C807.707 584.942 806.474 583.95 805.102 584.098L785.217 586.246L783.069 566.362C782.921 564.989 781.688 563.997 780.315 564.145C778.942 564.293 777.95 565.526 778.098 566.899L780.515 589.269ZM664.064 846.611L666.564 846.632L664.064 846.611ZM670.457 354.111L667.957 354.076L667.957 354.076L670.457 354.111ZM671.346 347.693L668.929 347.052L668.929 347.052L671.346 347.693ZM726.5 236.5L724.678 234.788L726.5 236.5ZM686.034 890.272C684.997 884.787 681.483 876.712 672.774 864.76L668.733 867.704C677.254 879.398 680.283 886.768 681.121 891.2L686.034 890.272ZM484.816 894.494L579.817 901.494L580.184 896.507L485.184 889.507L484.816 894.494ZM580 901.5L673.182 901.5L673.182 896.5L580 896.5L580 901.5ZM817.318 187.979C830.476 186.292 966.782 179.028 1052.56 174.559L1052.3 169.566C966.727 174.024 830.089 181.301 816.682 183.02L817.318 187.979ZM1076.15 220.848L781.053 587.433L784.948 590.568L1080.05 223.983L1076.15 220.848ZM666.564 846.632C667.2 770.293 672.428 392.323 672.957 354.145L667.957 354.076C667.428 392.242 662.2 770.233 661.564 846.59L666.564 846.632ZM673.762 348.334C675.701 341.026 681.046 322.303 690.079 300.972C699.127 279.606 711.799 255.807 728.322 238.211L724.678 234.788C707.566 253.011 694.618 277.433 685.475 299.022C676.318 320.644 670.904 339.609 668.929 347.052L673.762 348.334ZM728.322 238.211C766.359 197.704 798.291 190.419 817.318 187.979L816.682 183.02C796.71 185.581 763.64 193.295 724.678 234.788L728.322 238.211ZM1052.56 174.559C1077.13 173.279 1091.59 201.664 1076.15 220.848L1080.05 223.983C1098.18 201.45 1081.21 168.06 1052.3 169.566L1052.56 174.559ZM681.121 891.2C681.303 892.163 681.179 892.857 680.94 893.38C680.694 893.921 680.249 894.445 679.544 894.92C678.082 895.907 675.762 896.5 673.182 896.5L673.182 901.5C676.367 901.5 679.78 900.794 682.342 899.064C683.649 898.182 684.789 896.993 685.49 895.454C686.2 893.896 686.387 892.141 686.034 890.272L681.121 891.2ZM672.957 354.145C672.985 352.081 673.23 350.339 673.762 348.334L668.929 347.052C668.295 349.443 667.992 351.592 667.957 354.076L672.957 354.145ZM672.774 864.76C668.833 859.351 666.509 853.137 666.564 846.632L661.564 846.59C661.499 854.347 664.274 861.586 668.733 867.704L672.774 864.76Z" fill="#52FF00"/>
<path d="M942.5 775L944.788 773.993L942.5 775ZM1088.75 961.988C1090.13 962.124 1091.35 961.12 1091.49 959.746L1093.71 937.356C1093.84 935.982 1092.84 934.758 1091.46 934.622C1090.09 934.486 1088.87 935.489 1088.73 936.863L1086.76 956.766L1066.86 954.794C1065.48 954.658 1064.26 955.662 1064.12 957.036C1063.99 958.41 1064.99 959.634 1066.36 959.77L1088.75 961.988ZM783 609C781.235 610.77 781.235 610.771 781.237 610.772C781.238 610.773 781.24 610.775 781.242 610.777C781.247 610.782 781.253 610.789 781.263 610.798C781.281 610.817 781.309 610.845 781.346 610.881C781.42 610.955 781.531 611.065 781.676 611.21C781.968 611.501 782.4 611.933 782.964 612.496C784.093 613.623 785.75 615.277 787.86 617.388C792.081 621.608 798.116 627.652 805.377 634.943C819.898 649.527 839.315 669.1 858.903 689.063C878.493 709.029 898.245 729.374 913.438 745.503C921.037 753.57 927.48 760.567 932.189 765.928C934.545 768.611 936.449 770.863 937.841 772.625C939.299 774.472 940.017 775.564 940.212 776.007L944.788 773.993C944.296 772.874 943.166 771.301 941.765 769.526C940.296 767.666 938.327 765.34 935.946 762.628C931.18 757.202 924.69 750.156 917.078 742.075C901.849 725.908 882.069 705.534 862.472 685.561C842.872 665.587 823.446 646.004 808.92 631.416C801.657 624.121 795.618 618.075 791.396 613.852C789.284 611.741 787.627 610.085 786.497 608.957C785.932 608.394 785.499 607.962 785.207 607.671C785.061 607.525 784.951 607.415 784.877 607.341C784.84 607.304 784.812 607.276 784.793 607.257C784.784 607.248 784.776 607.241 784.772 607.236C784.769 607.234 784.768 607.232 784.766 607.231C784.765 607.23 784.765 607.229 783 609ZM940.212 776.007C940.665 777.037 941.676 778.63 942.99 780.546C944.35 782.53 946.168 785.047 948.367 788.007C952.768 793.932 958.741 801.695 965.742 810.642C979.746 828.54 997.895 851.223 1015.87 873.507C1033.84 895.793 1051.64 917.687 1064.94 934.009C1071.6 942.171 1077.13 948.939 1081 953.668C1082.93 956.032 1084.45 957.886 1085.48 959.149C1086 959.781 1086.39 960.265 1086.66 960.591C1086.79 960.753 1086.9 960.877 1086.96 960.96C1087 961.001 1087.02 961.032 1087.04 961.053C1087.05 961.064 1087.06 961.072 1087.06 961.077C1087.06 961.08 1087.06 961.082 1087.06 961.083C1087.07 961.084 1087.07 961.085 1089 959.5C1090.93 957.915 1090.93 957.914 1090.93 957.913C1090.93 957.912 1090.93 957.91 1090.93 957.907C1090.92 957.902 1090.92 957.894 1090.91 957.884C1090.89 957.863 1090.86 957.832 1090.83 957.79C1090.76 957.708 1090.66 957.584 1090.53 957.422C1090.26 957.096 1089.87 956.613 1089.35 955.981C1088.32 954.719 1086.8 952.866 1084.87 950.502C1081 945.776 1075.47 939.009 1068.82 930.85C1055.52 914.532 1037.72 892.645 1019.76 870.368C1001.79 848.09 983.661 825.429 969.68 807.561C962.688 798.625 956.744 790.9 952.381 785.026C950.198 782.087 948.423 779.627 947.114 777.718C945.758 775.741 945.023 774.525 944.788 773.993L940.212 776.007Z" fill="#0500FF"/>
<path d="M87.543 578.461V630H76.4688V590.977C75.8594 591.516 75.1328 592.031 74.2891 592.523C73.4688 592.992 72.5898 593.426 71.6523 593.824C70.7148 594.199 69.7422 594.527 68.7344 594.809C67.7266 595.066 66.7305 595.254 65.7461 595.371V586.02C68.6289 585.176 71.3477 584.098 73.9023 582.785C76.457 581.473 78.7656 580.031 80.8281 578.461H87.543Z" fill="#FF0000"/>
<path d="M635.375 671.789H656.75V681H623.211V677.203C623.211 674.625 623.645 672.316 624.512 670.277C625.379 668.215 626.469 666.375 627.781 664.758C629.094 663.117 630.523 661.676 632.07 660.434C633.641 659.168 635.129 658.031 636.535 657.023C638.012 655.969 639.301 654.961 640.402 654C641.527 653.039 642.465 652.09 643.215 651.152C643.988 650.191 644.562 649.23 644.938 648.27C645.312 647.285 645.5 646.242 645.5 645.141C645.5 642.984 644.891 641.355 643.672 640.254C642.453 639.152 640.59 638.602 638.082 638.602C633.746 638.602 629.598 640.324 625.637 643.77V633.996C630.02 631.16 634.965 629.742 640.473 629.742C643.027 629.742 645.312 630.082 647.328 630.762C649.367 631.418 651.09 632.367 652.496 633.609C653.902 634.852 654.969 636.363 655.695 638.145C656.445 639.902 656.82 641.871 656.82 644.051C656.82 646.371 656.457 648.434 655.73 650.238C655.027 652.043 654.078 653.684 652.883 655.16C651.711 656.637 650.352 657.996 648.805 659.238C647.258 660.457 645.652 661.641 643.988 662.789C642.863 663.586 641.773 664.383 640.719 665.18C639.688 665.953 638.773 666.727 637.977 667.5C637.18 668.25 636.547 668.988 636.078 669.715C635.609 670.441 635.375 671.133 635.375 671.789Z" fill="#52FF00"/>
<path d="M922.406 727.348V717.68C925.781 720.141 929.719 721.371 934.219 721.371C937.055 721.371 939.258 720.762 940.828 719.543C942.422 718.324 943.219 716.625 943.219 714.445C943.219 712.195 942.234 710.461 940.266 709.242C938.32 708.023 935.637 707.414 932.215 707.414H927.539V698.906H931.863C938.426 698.906 941.707 696.727 941.707 692.367C941.707 688.266 939.188 686.215 934.148 686.215C930.773 686.215 927.492 687.305 924.305 689.484V680.414C927.844 678.633 931.969 677.742 936.68 677.742C941.836 677.742 945.844 678.902 948.703 681.223C951.586 683.543 953.027 686.555 953.027 690.258C953.027 696.844 949.688 700.969 943.008 702.633V702.809C946.57 703.254 949.383 704.555 951.445 706.711C953.508 708.844 954.539 711.469 954.539 714.586C954.539 719.297 952.816 723.023 949.371 725.766C945.926 728.508 941.168 729.879 935.098 729.879C929.895 729.879 925.664 729.035 922.406 727.348Z" fill="#0500FF"/>
</g>
<defs>
<clipPath id="clip0_71_57">
<rect width="1151" height="1151" fill="white"/>
</clipPath>
</defs>
</svg>
