<svg width="1357" height="1084" viewBox="0 0 1357 1084" fill="none" xmlns="http://www.w3.org/2000/svg">
<g clip-path="url(#clip0_78_41)">
<path d="M273.084 51.1155C243.35 58.0858 215.994 74.3499 188.044 101.65C156.823 131.855 141.956 153.637 131.251 184.422C113.708 234.086 113.708 231.762 113.708 555.01V850.957H130.062H146.118L147.01 541.069C147.902 232.924 147.902 230.891 154.147 212.885C163.067 187.908 173.771 171.063 189.53 157.413C205.587 143.472 223.725 137.954 246.918 140.277C276.652 142.891 300.142 157.703 314.415 183.261C332.552 216.079 331.958 202.139 332.85 541.069L334.039 850.957L397.076 850.376L460.113 849.505L461.005 664.502L461.599 479.789L481.819 477.465C502.038 475.432 598.377 480.079 608.189 483.564C612.947 485.597 613.244 496.343 613.244 654.046C613.244 832.079 613.839 839.05 626.922 851.248C640.302 863.736 653.98 856.766 722.369 803.617C763.105 771.96 773.512 759.182 786 726.073C823.168 625.875 813.653 503.314 763.997 449.003C750.319 433.901 739.318 429.545 684.607 415.604L653.385 407.472L652.493 293.043L651.899 178.904L659.332 163.512C668.847 144.634 691.148 124.885 716.422 112.686C733.965 104.264 738.723 103.393 761.618 103.393C783.919 103.393 789.569 104.554 805.03 111.815C827.331 122.271 851.416 145.505 869.851 174.838C881.448 193.135 884.421 200.686 886.8 218.403C888.286 230.601 889.773 369.135 889.773 545.426V851.248L936.753 850.376L983.436 849.505L984.923 522.772L986.41 195.749L997.114 181.518C1010.2 163.512 1040.53 140.568 1056.88 136.211C1078.59 130.693 1091.67 134.178 1105.94 149.281C1122.3 166.997 1130.62 184.713 1133.89 208.528C1135.08 219.274 1136.27 368.264 1136.57 539.327V850.957H1200.5H1264.43L1263.83 481.241L1262.94 111.815L1254.91 97.0033C1245.69 79.5776 1229.93 65.3466 1211.2 57.2145C1192.17 48.7921 1142.22 46.7591 1115.46 53.439C1067.58 65.3466 1024.77 96.7129 990.87 144.924C981.949 157.703 973.921 168.158 973.029 168.449C972.137 168.449 965.596 158.865 958.459 146.957C940.619 117.043 919.507 92.6469 903.154 81.901C876.987 65.0561 834.765 55.1815 787.19 55.1815C705.123 55.1815 635.248 101.069 617.407 166.706C614.434 178.033 613.244 207.366 613.244 290.429V399.63L579.942 404.277C561.507 406.891 530.285 413.861 510.661 419.96C491.036 425.769 472.006 431.287 468.438 431.868L462.194 433.32L461.005 307.274C459.815 189.069 459.221 180.066 452.976 158.284C444.948 128.951 431.865 108.04 410.159 88.5809C369.72 52.5677 321.848 39.4984 273.084 51.1155ZM666.171 507.96C698.582 524.224 711.07 557.624 711.367 627.908C711.367 645.043 709.286 674.376 706.907 693.254C696.798 767.314 682.525 796.937 658.738 792.291C653.683 791.419 653.385 784.158 652.493 646.786C652.196 567.498 652.493 502.442 653.385 502.442C654.278 502.442 659.927 505.056 666.171 507.96Z" fill="black"/>
<path d="M97.9398 255.201L100.44 255.202L97.9398 255.201ZM306.326 32.9587L306.466 30.4627L306.326 32.9587ZM332.292 34.4345L332.433 31.9385L332.292 34.4345ZM477.655 188.287L480.155 188.288L477.655 188.287ZM475.887 859.876C476.864 860.853 478.447 860.854 479.423 859.879L495.333 843.979C496.309 843.004 496.309 841.421 495.333 840.444C494.357 839.467 492.774 839.466 491.797 840.441L477.655 854.574L463.513 840.423C462.537 839.446 460.954 839.445 459.977 840.42C459.001 841.396 459.001 842.979 459.977 843.956L475.887 859.876ZM228.854 48.1121L229.927 50.3707L228.854 48.1121ZM100.44 858.111L100.44 255.202L95.4397 255.199L95.4398 858.108L100.44 858.111ZM306.186 35.4546L332.152 36.9304L332.433 31.9385L306.466 30.4627L306.186 35.4546ZM475.155 188.285L475.155 858.108L480.155 858.111L480.155 188.288L475.155 188.285ZM332.152 36.9304C412.396 41.4911 475.155 107.916 475.155 188.285L480.155 188.288C480.155 105.266 415.325 36.6497 332.433 31.9385L332.152 36.9304ZM100.44 255.202C100.44 167.632 150.836 87.9121 229.927 50.3707L227.781 45.8535C146.946 84.2222 95.4397 165.699 95.4397 255.199L100.44 255.202ZM229.927 50.3707C253.692 39.0904 279.914 33.9614 306.186 35.4546L306.466 30.4627C279.359 28.922 252.302 34.2142 227.781 45.8535L229.927 50.3707Z" fill="#FF0000"/>
<path d="M598.805 237.429L601.305 237.394L598.805 237.429ZM822.674 42.7319L822.07 45.1572L822.674 42.7319ZM884.816 58.2656L885.421 55.8403L884.816 58.2656ZM937.622 97.8567L939.78 96.5958L939.78 96.5958L937.622 97.8567ZM998.552 202.053L1001.05 202.055L1001.05 201.377L1000.71 200.792L998.552 202.053ZM996.784 851.12C997.76 852.097 999.343 852.098 1000.32 851.122L1016.23 835.223C1017.21 834.247 1017.21 832.664 1016.23 831.687C1015.25 830.71 1013.67 830.709 1012.69 831.685L998.552 845.818L984.409 831.666C983.433 830.689 981.85 830.688 980.874 831.664C979.897 832.639 979.897 834.222 980.874 835.199L996.784 851.12ZM777.053 39.224L776.823 36.7345L776.823 36.7345L777.053 39.224ZM610.095 849.319L601.305 237.394L596.306 237.463L605.095 849.387L610.095 849.319ZM822.07 45.1572L884.211 60.6909L885.421 55.8403L823.279 40.3065L822.07 45.1572ZM935.464 99.1176L996.394 203.314L1000.71 200.792L939.78 96.5958L935.464 99.1176ZM996.052 202.052L996.052 849.351L1001.05 849.355L1001.05 202.055L996.052 202.052ZM884.211 60.6909C905.768 66.0796 924.246 79.9336 935.464 99.1176L939.78 96.5958C927.882 76.2491 908.284 61.5556 885.421 55.8403L884.211 60.6909ZM601.305 237.394C599.852 136.195 676.502 50.962 777.283 41.7135L776.823 36.7345C673.442 46.2215 594.815 133.653 596.306 237.463L601.305 237.394ZM777.283 41.7135C792.298 40.3357 807.439 41.4999 822.07 45.1572L823.279 40.3065C808.103 36.5129 792.397 35.3052 776.823 36.7345L777.283 41.7135Z" fill="#0500FF"/>
<path d="M1101.95 38.4966L1102.88 40.818L1101.95 38.4966ZM1120.51 31.0733L1119.7 28.7072L1119.64 28.728L1119.58 28.7519L1120.51 31.0733ZM1273.45 140.507L1270.95 140.505L1273.45 140.507ZM1271.69 858.151C1272.66 859.128 1274.25 859.129 1275.22 858.153L1291.13 842.254C1292.11 841.278 1292.11 839.695 1291.13 838.718C1290.16 837.741 1288.57 837.74 1287.6 838.716L1273.45 852.849L1259.31 838.697C1258.34 837.72 1256.75 837.719 1255.78 838.695C1254.8 839.671 1254.8 841.253 1255.78 842.23L1271.69 858.151ZM1102.88 40.818L1121.44 33.3946L1119.58 28.7519L1101.02 36.1752L1102.88 40.818ZM1270.95 140.505L1270.95 856.382L1275.95 856.386L1275.95 140.509L1270.95 140.505ZM1121.32 33.4393C1194.68 8.39872 1270.95 62.9724 1270.95 140.505L1275.95 140.509C1275.95 59.5465 1196.31 2.5592 1119.7 28.7072L1121.32 33.4393ZM975.537 158.581C1002 104.959 1047.35 63.0191 1102.88 40.818L1101.02 36.1752C1044.35 58.834 998.062 101.638 971.053 156.365L975.537 158.581Z" fill="#FFE600"/>
<path d="M773.425 786.591L772.163 784.42L773.425 786.591ZM648.583 853.322C648.224 854.639 649.023 856.013 650.367 856.392L672.272 862.565C673.616 862.944 674.996 862.184 675.355 860.867C675.714 859.55 674.915 858.176 673.571 857.797L654.1 852.31L659.297 833.237C659.656 831.92 658.857 830.545 657.513 830.167C656.169 829.788 654.788 830.548 654.429 831.865L648.583 853.322ZM801.482 448.175L799.035 448.72L801.482 448.175ZM829.988 562.954L827.542 563.5L829.988 562.954ZM828.289 646.365L830.709 647.099L828.289 646.365ZM794.742 760.152L797.162 760.886L794.742 760.152ZM571.299 394.67L570.575 392.281L571.299 394.67ZM630.653 390.816L630.958 388.36L630.653 390.816ZM756.959 408.428L757.265 405.972L756.959 408.428ZM772.163 784.42L649.755 851.837L652.279 856.179L774.687 788.761L772.163 784.42ZM799.035 448.72L827.542 563.5L832.434 562.409L803.928 447.63L799.035 448.72ZM825.869 645.631L792.322 759.418L797.162 760.886L830.709 647.099L825.869 645.631ZM464.703 426.76L572.024 397.059L570.575 392.281L463.253 421.982L464.703 426.76ZM630.347 393.272L756.654 410.884L757.265 405.972L630.958 388.36L630.347 393.272ZM572.024 397.059C590.912 391.832 610.771 390.542 630.347 393.272L630.958 388.36C610.691 385.534 590.13 386.869 570.575 392.281L572.024 397.059ZM827.542 563.5C834.295 590.688 833.718 619.009 825.869 645.631L830.709 647.099C838.802 619.647 839.397 590.445 832.434 562.409L827.542 563.5ZM774.687 788.761C785.609 782.746 793.662 772.757 797.162 760.886L792.322 759.418C789.183 770.066 781.959 779.024 772.163 784.42L774.687 788.761ZM803.928 447.63C798.484 425.711 779.91 409.129 757.265 405.972L756.654 410.884C777.221 413.752 794.091 428.813 799.035 448.72L803.928 447.63Z" fill="#52FF00"/>
<path d="M136.793 26.4609V78H125.719V38.9766C125.11 39.5156 124.383 40.0312 123.54 40.5234C122.719 40.9922 121.84 41.4258 120.903 41.8242C119.965 42.1992 118.993 42.5273 117.985 42.8086C116.977 43.0664 115.981 43.2539 114.997 43.3711V34.0195C117.879 33.1758 120.598 32.0977 123.153 30.7852C125.708 29.4727 128.016 28.0313 130.079 26.4609H136.793Z" fill="#FF0000"/>
<path d="M758.625 384.789H780V394H746.461V390.203C746.461 387.625 746.895 385.316 747.762 383.277C748.629 381.215 749.719 379.375 751.032 377.758C752.344 376.117 753.774 374.676 755.321 373.434C756.891 372.168 758.379 371.031 759.786 370.023C761.262 368.969 762.551 367.961 763.653 367C764.778 366.039 765.715 365.09 766.465 364.152C767.239 363.191 767.813 362.23 768.188 361.27C768.563 360.285 768.75 359.242 768.75 358.141C768.75 355.984 768.141 354.355 766.922 353.254C765.704 352.152 763.84 351.602 761.333 351.602C756.997 351.602 752.848 353.324 748.887 356.77V346.996C753.27 344.16 758.215 342.742 763.723 342.742C766.278 342.742 768.563 343.082 770.579 343.762C772.618 344.418 774.34 345.367 775.747 346.609C777.153 347.852 778.219 349.363 778.946 351.145C779.696 352.902 780.071 354.871 780.071 357.051C780.071 359.371 779.708 361.434 778.981 363.238C778.278 365.043 777.329 366.684 776.133 368.16C774.961 369.637 773.602 370.996 772.055 372.238C770.508 373.457 768.903 374.641 767.239 375.789C766.114 376.586 765.024 377.383 763.969 378.18C762.938 378.953 762.024 379.727 761.227 380.5C760.43 381.25 759.797 381.988 759.329 382.715C758.86 383.441 758.625 384.133 758.625 384.789Z" fill="#52FF00"/>
<path d="M1005.01 27.5859V59.3672H1011.06V67.6641H1005.01V78H994.887V67.6641H972.915V58.9805C974.86 56.8008 976.876 54.4219 978.961 51.8438C981.047 49.2422 983.063 46.5703 985.008 43.8281C986.954 41.0859 988.758 38.332 990.422 35.5664C992.11 32.7773 993.54 30.1172 994.711 27.5859H1005.01ZM982.864 59.3672H994.887V41.7539C994.067 43.2773 993.176 44.8242 992.215 46.3945C991.254 47.9414 990.247 49.4766 989.192 51C988.137 52.5 987.071 53.9648 985.993 55.3945C984.915 56.8008 983.872 58.125 982.864 59.3672Z" fill="#FFE600"/>
<path d="M564.267 170.811V161.143C567.642 163.604 571.58 164.834 576.08 164.834C578.916 164.834 581.119 164.225 582.689 163.006C584.283 161.787 585.08 160.088 585.08 157.909C585.08 155.659 584.095 153.924 582.126 152.705C580.181 151.487 577.498 150.877 574.076 150.877H569.4V142.37H573.724C580.287 142.37 583.568 140.19 583.568 135.83C583.568 131.729 581.048 129.678 576.009 129.678C572.634 129.678 569.353 130.768 566.166 132.948V123.877C569.705 122.096 573.83 121.205 578.541 121.205C583.697 121.205 587.705 122.366 590.564 124.686C593.447 127.006 594.888 130.018 594.888 133.721C594.888 140.307 591.548 144.432 584.869 146.096V146.272C588.431 146.717 591.244 148.018 593.306 150.174C595.369 152.307 596.4 154.932 596.4 158.049C596.4 162.76 594.677 166.487 591.232 169.229C587.787 171.971 583.029 173.342 576.959 173.342C571.755 173.342 567.525 172.498 564.267 170.811Z" fill="#0500FF"/>
</g>
<path d="M626.521 983H612.177L597.482 961.098C597.201 960.676 596.755 959.75 596.146 958.32H595.97V983H584.615V932.586H595.97V956.422H596.146C596.427 955.766 596.896 954.828 597.552 953.609L611.474 932.586H625.009L607.431 956.633L626.521 983ZM675.705 983H663.33L659.744 971.785H641.814L638.263 983H625.958L644.31 932.586H657.775L675.705 983ZM657.142 963.066L651.728 946.121C651.33 944.855 651.048 943.344 650.884 941.586H650.603C650.486 943.062 650.193 944.527 649.724 945.98L644.24 963.066H657.142Z" fill="#8B704F"/>
<defs>
<clipPath id="clip0_78_41">
<rect width="1231" height="880" fill="white" transform="translate(81)"/>
</clipPath>
</defs>
</svg>
