<svg width="1297" height="1297" viewBox="0 0 1297 1297" fill="none" xmlns="http://www.w3.org/2000/svg">
<path d="M528.207 217.782C505.403 223.483 484.308 235.455 451.812 261.395C435.279 274.223 421.311 285.055 421.026 285.055C420.456 285.055 418.176 279.924 416.18 273.938C407.059 246.002 376.843 219.777 351.188 217.497C331.519 215.501 298.168 223.483 271.943 236.31C230.895 256.549 194.693 301.303 177.019 352.898L169.608 374.847L168.753 688.978L167.897 1003.39H182.15H196.403L197.258 697.814C198.113 414.185 198.683 390.81 203.244 374.847C219.492 320.402 246.003 293.321 275.648 300.733C285.91 303.298 302.443 320.687 310.995 338.075L317.836 352.043L318.692 676.15L319.262 1000.54H369.146H419.031V663.038V325.818L432.999 312.705C451.242 295.602 466.92 287.905 483.453 287.905C499.701 287.905 510.248 293.892 519.94 309C537.614 336.08 536.759 320.402 538.469 653.346L540.179 957.215L548.731 969.472C558.708 983.725 576.096 993.417 598.33 997.692C618.854 1001.4 734.872 1001.4 763.092 997.407C790.172 993.702 802.43 988.856 814.687 976.883C832.931 959.21 832.361 968.332 832.361 664.178C832.361 367.151 831.79 376.558 847.183 346.912C854.88 331.519 873.694 311.85 889.086 302.728C900.204 296.172 905.335 295.032 922.153 295.317C945.812 295.317 961.205 302.158 974.603 318.406C994.272 342.066 993.132 322.967 994.272 679.001L995.127 1000.54H1056.41H1117.7L1116.56 673.3C1115.71 368.576 1115.42 345.201 1110.57 329.523C1089.48 259.685 1045.3 228.329 967.762 228.044C898.493 228.044 852.314 256.264 822.669 316.696C798.154 366.866 799.864 341.781 798.154 664.463L796.729 951.513L789.602 957.5C775.635 968.902 757.676 972.607 723.185 971.467C684.702 970.042 663.323 962.916 644.794 945.242C635.388 936.12 631.682 930.134 629.686 920.727C628.261 913.601 627.406 769.933 627.406 601.181C627.406 374.277 626.551 291.041 624.27 281.919C610.588 231.75 572.961 206.38 528.207 217.782Z" fill="black"/>
<path d="M639.746 1151H609.723V1100.59H621.078V1141.79H639.746V1151ZM692.516 1151H680.141L676.555 1139.79H658.625L655.074 1151H642.77L661.121 1100.59H674.586L692.516 1151ZM673.953 1131.07L668.539 1114.12C668.141 1112.86 667.859 1111.34 667.695 1109.59H667.414C667.297 1111.06 667.004 1112.53 666.535 1113.98L661.051 1131.07H673.953Z" fill="#8B704F"/>
<path d="M162.501 408.197L160.001 408.197L162.501 408.197ZM426.5 339.5L429 339.5L426.5 339.5ZM424.733 1003.77C425.709 1004.74 427.292 1004.74 428.268 1003.77L444.178 987.858C445.154 986.882 445.154 985.299 444.178 984.322C443.202 983.346 441.619 983.346 440.642 984.322L426.5 998.465L412.358 984.322C411.382 983.346 409.799 983.346 408.823 984.322C407.846 985.299 407.846 986.882 408.823 987.858L424.733 1003.77ZM188.572 306.486L190.764 307.689L190.764 307.689L188.572 306.486ZM194.43 295.81L192.239 294.607L192.239 294.607L194.43 295.81ZM254.409 233.365L255.699 235.506L254.409 233.365ZM268.487 224.885L267.197 222.744L268.487 224.885ZM339.861 208.712L339.62 211.201L339.861 208.712ZM350.917 209.782L350.676 212.271L350.917 209.782ZM426.5 293.033L424 293.033L424 293.033L426.5 293.033ZM399.699 231.673L401.398 229.839L399.699 231.673ZM165.001 1002L165.001 408.197L160.001 408.197L160.001 1002L165.001 1002ZM424 339.5L424 1002L429 1002L429 339.5L424 339.5ZM190.764 307.689L196.622 297.012L192.239 294.607L186.381 305.283L190.764 307.689ZM255.699 235.506L269.777 227.027L267.197 222.744L253.12 231.223L255.699 235.506ZM339.62 211.201L350.676 212.271L351.158 207.294L340.102 206.224L339.62 211.201ZM424 293.033L424 339.5L429 339.5L429 293.033L424 293.033ZM350.676 212.271C368.349 213.981 384.974 221.441 398 233.507L401.398 229.839C387.569 217.03 369.92 209.11 351.158 207.294L350.676 212.271ZM196.622 297.012C210.537 271.653 230.921 250.431 255.699 235.506L253.12 231.223C227.585 246.604 206.579 268.473 192.239 294.607L196.622 297.012ZM165.001 408.197C165.001 373.061 173.862 338.492 190.764 307.689L186.381 305.283C169.074 336.824 160.001 372.22 160.001 408.197L165.001 408.197ZM398 233.507C414.577 248.863 424 270.437 424 293.033L429 293.033C429 269.044 418.997 246.141 401.398 229.839L398 233.507ZM269.777 227.027C290.755 214.391 315.244 208.842 339.62 211.201L340.102 206.224C314.657 203.761 289.095 209.554 267.197 222.744L269.777 227.027Z" fill="#FF0000"/>
<path d="M632.131 284.133L634.631 284.112L632.131 284.133ZM635.747 927.283C636.732 928.251 638.315 928.237 639.283 927.253L655.059 911.21C656.027 910.226 656.014 908.643 655.029 907.675C654.045 906.707 652.462 906.72 651.494 907.705L637.471 921.965L623.21 907.941C622.226 906.973 620.643 906.986 619.675 907.971C618.707 908.955 618.72 910.538 619.705 911.506L635.747 927.283ZM469.809 237.405L471.397 239.336L469.809 237.405ZM504.44 217.15L503.536 214.819L504.44 217.15ZM521.52 210.522L522.424 212.853L521.52 210.522ZM583.071 211.53L584.051 209.23L583.071 211.53ZM583.973 211.915L582.992 214.214L583.973 211.915ZM625.941 254.089L623.636 255.058L625.941 254.089ZM629.631 284.154L635 925.521L640 925.479L634.631 284.112L629.631 284.154ZM433.588 270.431L471.397 239.336L468.221 235.474L430.412 266.569L433.588 270.431ZM505.345 219.481L522.424 212.853L520.615 208.192L503.536 214.819L505.345 219.481ZM582.09 213.83L582.992 214.214L584.953 209.615L584.051 209.23L582.09 213.83ZM582.992 214.214C601.332 222.031 615.909 236.68 623.636 255.058L628.245 253.12C620.015 233.544 604.488 217.941 584.953 209.615L582.992 214.214ZM471.397 239.336C481.586 230.956 493.046 224.253 505.345 219.481L503.536 214.819C490.742 219.784 478.82 226.757 468.221 235.474L471.397 239.336ZM634.631 284.112C634.542 273.464 632.373 262.936 628.245 253.12L623.636 255.058C627.511 264.273 629.547 274.157 629.631 284.154L634.631 284.112ZM522.424 212.853C541.679 205.381 563.091 205.732 582.09 213.83L584.051 209.23C563.851 200.62 541.086 200.248 520.615 208.192L522.424 212.853Z" fill="#52FF00"/>
<path d="M1125 369.492L1122.5 369.492L1125 369.492ZM1123.23 1003.77C1124.21 1004.74 1125.79 1004.74 1126.77 1003.77L1142.68 987.858C1143.65 986.882 1143.65 985.299 1142.68 984.322C1141.7 983.346 1140.12 983.346 1139.14 984.322L1125 998.464L1110.86 984.322C1109.88 983.346 1108.3 983.346 1107.32 984.322C1106.35 985.299 1106.35 986.882 1107.32 987.858L1123.23 1003.77ZM792 889.063L789.5 889.063L792 889.063ZM792 386.317L794.5 386.317L792 386.317ZM699.647 954.114L700.489 951.76L700.489 951.76L699.647 954.114ZM988.286 221.738L988.785 219.289L988.785 219.289L988.286 221.738ZM1008.56 225.874L1008.06 228.324L1008.56 225.874ZM1100.33 289.332L1098.22 290.664L1100.33 289.332ZM1103.15 293.815L1101.04 295.147L1103.15 293.815ZM808.105 320.632L805.889 319.476L805.889 319.476L808.105 320.632ZM817.435 302.75L819.651 303.907L819.651 303.907L817.435 302.75ZM884.381 239.249L885.419 241.523L884.381 239.249ZM900.953 231.687L899.915 229.412L900.953 231.687ZM736.112 956.878L736.59 959.332L736.59 959.332L736.112 956.878ZM1122.5 369.492L1122.5 1002L1127.5 1002L1127.5 369.492L1122.5 369.492ZM794.5 889.063L794.5 386.317L789.5 386.317L789.5 889.063L794.5 889.063ZM648.158 938.354L698.805 956.468L700.489 951.76L649.842 933.646L648.158 938.354ZM987.786 224.188L1008.06 228.324L1009.06 223.425L988.785 219.289L987.786 224.188ZM1098.22 290.664L1101.04 295.147L1105.27 292.482L1102.45 287.999L1098.22 290.664ZM810.322 321.789L819.651 303.907L815.219 301.594L805.889 319.476L810.322 321.789ZM885.419 241.523L901.991 233.961L899.915 229.412L883.343 236.974L885.419 241.523ZM819.651 303.907C834.018 276.371 857.163 254.416 885.419 241.523L883.343 236.974C854.075 250.33 830.1 273.071 815.219 301.594L819.651 303.907ZM1008.06 228.324C1045.36 235.933 1077.93 258.454 1098.22 290.664L1102.45 287.999C1081.43 254.634 1047.7 231.306 1009.06 223.425L1008.06 228.324ZM698.805 956.468C710.914 960.799 723.966 961.788 736.59 959.332L735.635 954.424C723.893 956.709 711.752 955.789 700.489 951.76L698.805 956.468ZM794.5 386.317C794.5 363.847 799.928 341.71 810.322 321.789L805.889 319.476C795.123 340.111 789.5 363.042 789.5 386.317L794.5 386.317ZM789.5 889.063C789.5 920.933 766.918 948.335 735.635 954.424L736.59 959.332C770.222 952.786 794.5 923.326 794.5 889.063L789.5 889.063ZM1127.5 369.492C1127.5 342.239 1119.79 315.542 1105.27 292.482L1101.04 295.147C1115.06 317.409 1122.5 343.182 1122.5 369.492L1127.5 369.492ZM988.785 219.289C958.837 213.179 927.723 216.724 899.915 229.412L901.991 233.961C928.836 221.711 958.874 218.29 987.786 224.188L988.785 219.289Z" fill="#0500FF"/>
<path d="M139.543 616.461V668H128.469V628.977C127.859 629.516 127.133 630.031 126.289 630.523C125.469 630.992 124.59 631.426 123.652 631.824C122.715 632.199 121.742 632.527 120.734 632.809C119.727 633.066 118.73 633.254 117.746 633.371V624.02C120.629 623.176 123.348 622.098 125.902 620.785C128.457 619.473 130.766 618.031 132.828 616.461H139.543Z" fill="#FF0000"/>
<path d="M662.375 658.789H683.75V668H650.211V664.203C650.211 661.625 650.645 659.316 651.512 657.277C652.379 655.215 653.469 653.375 654.781 651.758C656.094 650.117 657.523 648.676 659.07 647.434C660.641 646.168 662.129 645.031 663.535 644.023C665.012 642.969 666.301 641.961 667.402 641C668.527 640.039 669.465 639.09 670.215 638.152C670.988 637.191 671.562 636.23 671.938 635.27C672.312 634.285 672.5 633.242 672.5 632.141C672.5 629.984 671.891 628.355 670.672 627.254C669.453 626.152 667.59 625.602 665.082 625.602C660.746 625.602 656.598 627.324 652.637 630.77V620.996C657.02 618.16 661.965 616.742 667.473 616.742C670.027 616.742 672.312 617.082 674.328 617.762C676.367 618.418 678.09 619.367 679.496 620.609C680.902 621.852 681.969 623.363 682.695 625.145C683.445 626.902 683.82 628.871 683.82 631.051C683.82 633.371 683.457 635.434 682.73 637.238C682.027 639.043 681.078 640.684 679.883 642.16C678.711 643.637 677.352 644.996 675.805 646.238C674.258 647.457 672.652 648.641 670.988 649.789C669.863 650.586 668.773 651.383 667.719 652.18C666.688 652.953 665.773 653.727 664.977 654.5C664.18 655.25 663.547 655.988 663.078 656.715C662.609 657.441 662.375 658.133 662.375 658.789Z" fill="#52FF00"/>
<path d="M1154.41 666.348V656.68C1157.78 659.141 1161.72 660.371 1166.22 660.371C1169.05 660.371 1171.26 659.762 1172.83 658.543C1174.42 657.324 1175.22 655.625 1175.22 653.445C1175.22 651.195 1174.23 649.461 1172.27 648.242C1170.32 647.023 1167.64 646.414 1164.21 646.414H1159.54V637.906H1163.86C1170.43 637.906 1173.71 635.727 1173.71 631.367C1173.71 627.266 1171.19 625.215 1166.15 625.215C1162.77 625.215 1159.49 626.305 1156.3 628.484V619.414C1159.84 617.633 1163.97 616.742 1168.68 616.742C1173.84 616.742 1177.84 617.902 1180.7 620.223C1183.59 622.543 1185.03 625.555 1185.03 629.258C1185.03 635.844 1181.69 639.969 1175.01 641.633V641.809C1178.57 642.254 1181.38 643.555 1183.45 645.711C1185.51 647.844 1186.54 650.469 1186.54 653.586C1186.54 658.297 1184.82 662.023 1181.37 664.766C1177.93 667.508 1173.17 668.879 1167.1 668.879C1161.89 668.879 1157.66 668.035 1154.41 666.348Z" fill="#0500FF"/>
</svg>
