<svg width="986" height="986" viewBox="0 0 986 986" fill="none" xmlns="http://www.w3.org/2000/svg">
<g clip-path="url(#clip0_71_77)">
<path d="M287.295 139.528C233.344 151.222 191.353 174.61 151.488 215.006C126.505 240.52 109.496 266.831 93.0186 306.696C73.3518 353.206 74.4149 338.589 74.9464 609.141L75.7437 851.787H89.0321H102.321L103.649 597.978C105.244 313.872 103.649 337.526 124.911 295.003C137.136 271.083 152.285 253.011 172.483 239.457C225.371 203.578 279.588 194.011 331.679 211.551C354.003 219.259 354.269 218.196 317.859 255.137C298.989 274.273 282.777 292.876 280.385 298.458C274.273 313.075 275.336 336.462 282.777 352.143C294.471 377.125 312.277 388.553 345.764 392.274L361.976 394.134L350.017 406.359C286.498 472.27 248.227 545.356 242.912 611.001C237.862 671.065 266.831 758.768 304.039 795.976C329.818 821.489 383.238 846.472 435.594 857.102C452.072 860.292 466.955 861.355 491.405 860.557C530.207 859.494 546.685 853.913 561.568 837.435C571.933 825.742 603.294 774.448 611.267 755.845C625.884 722.092 625.352 727.939 627.213 519.577L628.807 325.566L635.983 299.521C648.208 254.34 667.61 220.853 686.745 211.551C713.587 198.794 746.543 215.804 755.845 247.164C763.552 272.678 765.146 332.476 765.412 595.852V853.116H822.552H879.693V546.685C879.693 215.006 879.693 220.322 865.075 191.619C851.787 165.042 827.602 147.501 794.115 139.528C774.448 135.01 726.344 134.213 706.412 138.465C662.028 147.767 628.542 179.393 612.861 227.232C600.104 266.831 600.104 267.097 597.978 507.617C596.384 705.083 595.586 737.772 591.6 757.439C589.208 769.665 585.753 780.827 583.893 782.156C578.577 785.611 497.784 782.156 475.725 777.372C442.77 770.196 407.157 757.173 390.679 746.543C361.445 727.673 333.007 685.948 321.314 644.488C312.809 614.988 312.809 566.618 321.048 533.397C335.931 473.333 370.746 412.472 419.116 361.445C432.67 347.093 443.833 335.134 443.833 334.602C443.833 334.07 423.369 333.539 398.386 333.539H352.94L345.498 325.034C321.845 298.458 331.944 259.39 366.76 241.583C376.593 236.534 391.742 223.777 413.269 201.984C444.098 170.889 444.896 169.56 439.846 165.573C430.81 158.664 398.121 144.312 381.111 139.794C360.647 134.479 311.214 134.479 287.295 139.528Z" fill="black"/>
<path d="M547.375 513.789H568.75V523H535.211V519.203C535.211 516.625 535.645 514.316 536.512 512.277C537.379 510.215 538.469 508.375 539.781 506.758C541.094 505.117 542.523 503.676 544.07 502.434C545.641 501.168 547.129 500.031 548.535 499.023C550.012 497.969 551.301 496.961 552.402 496C553.527 495.039 554.465 494.09 555.215 493.152C555.988 492.191 556.562 491.23 556.938 490.27C557.312 489.285 557.5 488.242 557.5 487.141C557.5 484.984 556.891 483.355 555.672 482.254C554.453 481.152 552.59 480.602 550.082 480.602C545.746 480.602 541.598 482.324 537.637 485.77V475.996C542.02 473.16 546.965 471.742 552.473 471.742C555.027 471.742 557.312 472.082 559.328 472.762C561.367 473.418 563.09 474.367 564.496 475.609C565.902 476.852 566.969 478.363 567.695 480.145C568.445 481.902 568.82 483.871 568.82 486.051C568.82 488.371 568.457 490.434 567.73 492.238C567.027 494.043 566.078 495.684 564.883 497.16C563.711 498.637 562.352 499.996 560.805 501.238C559.258 502.457 557.652 503.641 555.988 504.789C554.863 505.586 553.773 506.383 552.719 507.18C551.688 507.953 550.773 508.727 549.977 509.5C549.18 510.25 548.547 510.988 548.078 511.715C547.609 512.441 547.375 513.133 547.375 513.789Z" fill="#52FF00"/>
<path d="M479.945 950H468.73V919.836C468.73 916.578 468.871 912.98 469.152 909.043H468.871C468.285 912.137 467.758 914.363 467.289 915.723L455.477 950H446.195L434.172 916.074C433.844 915.16 433.316 912.816 432.59 909.043H432.273C432.578 914.012 432.73 918.371 432.73 922.121V950H422.5V899.586H439.129L449.43 929.469C450.25 931.859 450.848 934.262 451.223 936.676H451.434C452.066 933.887 452.734 931.461 453.438 929.398L463.738 899.586H479.945V950ZM535.738 950H523.363L519.777 938.785H501.848L498.297 950H485.992L504.344 899.586H517.809L535.738 950ZM517.176 930.066L511.762 913.121C511.363 911.855 511.082 910.344 510.918 908.586H510.637C510.52 910.062 510.227 911.527 509.758 912.98L504.273 930.066H517.176Z" fill="#8B704F"/>
<path d="M65.5003 328.515L63.0003 328.515L65.5003 328.515ZM402.097 740.802L400.979 743.038L400.979 743.038L402.097 740.802ZM494 768L494.327 765.521L494 768ZM575.167 769.247C575.856 768.051 575.444 766.522 574.248 765.833L554.749 754.607C553.552 753.918 552.023 754.329 551.335 755.526C550.646 756.722 551.057 758.251 552.254 758.94L569.586 768.919L559.607 786.252C558.918 787.448 559.33 788.977 560.526 789.665C561.723 790.354 563.251 789.943 563.94 788.746L575.167 769.247ZM66.4465 322.754L64.0904 321.918L66.4465 322.754ZM252 133L252.414 135.466L252 133ZM439.247 152.188L440.251 149.899L439.247 152.188ZM442.486 180.635L440.836 178.756L442.486 180.635ZM349.142 286.003L346.856 284.991L346.856 284.991L349.142 286.003ZM347.583 288.997L349.74 290.261L349.74 290.261L347.583 288.997ZM453.5 334L455.851 333.15L453.5 334ZM328.5 577.5L326.002 577.403L328.5 577.5ZM400.918 740.233L401.991 737.975L401.991 737.975L400.918 740.233ZM400.982 740.263L399.91 742.522L399.91 742.522L400.982 740.263ZM68.0006 850.5L68.0003 328.515L63.0003 328.515L63.0006 850.5L68.0006 850.5ZM400.979 743.038C406.219 745.658 444.073 763.927 493.673 770.478L494.327 765.521C445.511 759.074 408.224 741.07 403.215 738.566L400.979 743.038ZM493.673 770.478C520.334 774 540.249 774.006 553.541 773.119C560.187 772.676 565.176 772.01 568.522 771.45C570.196 771.17 571.459 770.916 572.312 770.729C572.74 770.636 573.064 770.56 573.287 770.506C573.399 770.478 573.485 770.457 573.545 770.441C573.575 770.434 573.599 770.427 573.617 770.423C573.625 770.42 573.633 770.419 573.638 770.417C573.641 770.416 573.643 770.416 573.645 770.415C573.646 770.415 573.648 770.415 573.648 770.414C573.649 770.414 573.65 770.414 573 768C572.35 765.586 572.351 765.586 572.352 765.585C572.352 765.585 572.352 765.585 572.353 765.585C572.353 765.585 572.353 765.585 572.353 765.585C572.352 765.585 572.35 765.586 572.346 765.587C572.338 765.589 572.324 765.593 572.303 765.598C572.262 765.609 572.195 765.625 572.103 765.648C571.919 765.693 571.634 765.76 571.246 765.844C570.472 766.014 569.289 766.252 567.697 766.519C564.512 767.052 559.688 767.698 553.209 768.13C540.251 768.994 520.666 769 494.327 765.521L493.673 770.478ZM68.8025 323.59C72.6702 312.69 88.6725 270.586 118.744 228.713C148.838 186.809 192.768 145.482 252.414 135.466L251.586 130.535C190.063 140.867 145.121 183.413 114.683 225.797C84.2217 268.212 68.0318 310.81 64.0904 321.918L68.8025 323.59ZM252.414 135.466C341.494 120.505 406.299 140.458 438.242 154.478L440.251 149.899C407.622 135.578 341.825 115.38 251.586 130.535L252.414 135.466ZM440.836 178.756C426.704 191.171 406.989 209.236 388.945 228.394C370.962 247.488 354.413 267.901 346.856 284.991L351.428 287.014C358.613 270.766 374.633 250.884 392.585 231.823C410.477 212.825 430.063 194.876 444.136 182.513L440.836 178.756ZM345.426 287.733C341.966 293.637 340.698 298.876 341.787 303.471C342.886 308.112 346.237 311.469 350.603 313.92C354.953 316.362 360.574 318.063 366.794 319.328C373.041 320.598 380.052 321.458 387.266 322.141C401.835 323.522 417.017 324.178 429.337 325.962C435.467 326.85 440.656 327.991 444.515 329.554C448.446 331.147 450.466 332.961 451.149 334.85L455.851 333.15C454.433 329.228 450.742 326.682 446.392 324.92C441.97 323.129 436.308 321.92 430.054 321.014C417.607 319.211 401.892 318.505 387.737 317.164C380.589 316.487 373.781 315.646 367.79 314.428C361.773 313.205 356.738 311.63 353.051 309.56C349.38 307.5 347.313 305.109 346.652 302.318C345.98 299.482 346.608 295.605 349.74 290.261L345.426 287.733ZM451.149 334.85C451.461 335.712 451.526 336.913 451.121 338.602C450.716 340.294 449.877 342.319 448.579 344.703C445.979 349.478 441.753 355.305 436.298 362.199C425.517 375.822 409.893 393.642 394.071 414.488C362.297 456.353 328.533 511.866 326.002 577.403L330.998 577.596C333.468 513.634 366.453 459.147 398.054 417.511C413.92 396.607 429.14 379.303 440.219 365.301C445.693 358.383 450.151 352.272 452.97 347.094C454.382 344.502 455.438 342.046 455.983 339.767C456.53 337.486 456.602 335.225 455.851 333.15L451.149 334.85ZM326.002 577.403C323.609 639.389 340.076 679.78 358.226 705.152C376.349 730.488 396.025 740.678 399.846 742.492L401.991 737.975C398.69 736.408 379.784 726.696 362.292 702.243C344.826 677.825 328.645 638.54 330.998 577.596L326.002 577.403ZM438.242 154.478C447.965 158.745 449.306 171.316 440.836 178.756L444.136 182.513C454.853 173.098 453.914 155.896 440.251 149.899L438.242 154.478ZM68.0003 328.515C68.0003 326.762 68.2426 325.168 68.8025 323.59L64.0904 321.918C63.3146 324.105 63.0003 326.273 63.0003 328.515L68.0003 328.515ZM346.856 284.991C346.458 285.89 345.957 286.828 345.426 287.733L349.74 290.261C350.329 289.255 350.93 288.142 351.428 287.014L346.856 284.991ZM403.215 738.566C402.796 738.357 402.442 738.189 402.054 738.005L399.91 742.522C400.302 742.708 400.612 742.855 400.979 743.038L403.215 738.566ZM402.054 738.005L401.991 737.975L399.846 742.491L399.91 742.522L402.054 738.005Z" fill="#FF0000"/>
<path d="M592.975 289.796L590.475 289.738L592.975 289.796ZM896 273.451L898.5 273.451L896 273.451ZM896 405L898.5 405L896 405ZM894.232 852.767C895.208 853.744 896.791 853.744 897.767 852.767L913.677 836.857C914.654 835.881 914.654 834.298 913.677 833.322C912.701 832.345 911.118 832.345 910.142 833.322L896 847.464L881.858 833.322C880.881 832.345 879.298 832.345 878.322 833.322C877.346 834.298 877.346 835.881 878.322 836.857L894.232 852.767ZM599.88 246.171L597.514 245.364L599.88 246.171ZM679 138L677.964 135.725L679 138ZM758.227 115.954L758.499 118.439L758.227 115.954ZM819.52 129.253L820.704 127.051L820.704 127.051L819.52 129.253ZM822.41 130.822L823.611 128.629L823.611 128.629L822.41 130.822ZM584.499 756.059L595.474 289.855L590.475 289.738L579.5 755.941L584.499 756.059ZM893.5 273.451L893.5 405L898.5 405L898.5 273.451L893.5 273.451ZM893.5 405L893.5 850.999L898.5 850.999L898.5 405L893.5 405ZM602.247 246.977C607.556 231.405 616.344 209.532 629.187 189.118C642.05 168.674 658.833 149.929 680.036 140.275L677.964 135.725C655.496 145.954 638.063 165.622 624.955 186.455C611.829 207.32 602.892 229.59 597.514 245.364L602.247 246.977ZM680.036 140.275C710.711 126.309 738.491 120.633 758.499 118.439L757.954 113.469C737.523 115.71 709.21 121.499 677.964 135.725L680.036 140.275ZM818.335 131.454C819.278 131.962 820.237 132.482 821.21 133.015L823.611 128.629C822.627 128.09 821.658 127.564 820.704 127.051L818.335 131.454ZM758.499 118.439C779.201 116.169 799.802 121.479 818.335 131.454L820.704 127.051C801.485 116.707 779.871 111.066 757.954 113.469L758.499 118.439ZM595.474 289.855C595.819 275.181 597.572 260.688 602.247 246.977L597.514 245.364C592.619 259.722 590.828 274.764 590.475 289.738L595.474 289.855ZM898.5 273.451C898.5 215.087 875.385 156.966 823.611 128.629L821.21 133.015C870.846 160.181 893.5 216.209 893.5 273.451L898.5 273.451Z" fill="#52FF00"/>
<path d="M49.543 471.461V523H38.4688V483.977C37.8594 484.516 37.1328 485.031 36.2891 485.523C35.4688 485.992 34.5898 486.426 33.6523 486.824C32.7148 487.199 31.7422 487.527 30.7344 487.809C29.7266 488.066 28.7305 488.254 27.7461 488.371V479.02C30.6289 478.176 33.3477 477.098 35.9023 475.785C38.457 474.473 40.7656 473.031 42.8281 471.461H49.543Z" fill="#FF0000"/>
</g>
<defs>
<clipPath id="clip0_71_77">
<rect width="986" height="986" fill="white"/>
</clipPath>
</defs>
</svg>
