<svg width="1297" height="1129" viewBox="0 0 1297 1129" fill="none" xmlns="http://www.w3.org/2000/svg">
<path d="M823.94 197.608C753.111 210.723 697.234 260.298 675.985 328.758C669.689 348.955 669.427 352.628 668.378 440.498L667.591 531.516L643.456 534.401C630.077 535.975 605.156 538.598 587.842 539.91C554.001 543.057 529.342 546.729 519.636 550.402L513.602 552.762L512.29 435.514C510.979 303.84 509.929 293.872 492.616 259.249C485.27 244.56 479.761 237.478 470.055 229.871C433.591 202.592 346.235 194.985 306.098 215.707C282.75 228.035 264.649 255.577 252.844 297.282L246.811 318.266L246.024 625.944L245.237 933.621L256.517 932.834L267.797 932.048L269.109 629.091C270.158 385.94 271.208 324.037 274.093 315.643C286.685 277.872 305.573 264.233 347.808 262.396C370.369 261.347 373.517 261.872 380.075 267.118C389.257 274.2 398.963 293.086 403.16 311.971C405.521 322.463 406.571 403.251 407.358 629.878L408.407 933.359L460.086 932.834L511.766 932.048L512.553 762.34L513.077 592.632L528.293 590.796C544.295 588.96 648.441 591.32 660.77 593.943L667.853 595.517V764.438V933.359H684.38C725.566 933.359 764.129 916.572 795.084 885.096C838.369 841.292 859.618 785.16 859.618 714.339C859.618 650.6 842.566 605.747 805.053 571.385C782.492 550.926 740.257 532.041 716.647 532.041H709.826V446.006C709.826 352.365 711.138 341.873 725.041 315.906C735.535 296.233 759.145 273.675 778.557 264.495C823.94 243.249 886.113 250.068 911.297 278.659C921.79 290.463 926.25 299.643 932.021 318.791C936.218 332.693 936.743 359.447 938.055 633.026L939.366 932.048L996.555 932.834L1053.74 933.359L1052.96 631.19L1052.17 328.758L1046.14 309.61C1025.67 242.724 984.487 208.363 912.084 197.608C881.653 192.887 848.862 192.887 823.94 197.608ZM731.6 630.141C762.817 643.256 777.508 687.322 774.622 759.192C772.786 808.242 761.506 849.948 743.142 877.489C733.961 890.867 725.041 895.85 714.023 892.965L707.203 891.391V758.93V626.468H715.073C719.532 626.468 726.878 628.042 731.6 630.141Z" fill="black"/>
<path d="M645.863 1056H634.402L613.625 1024.32C612.406 1022.47 611.562 1021.08 611.094 1020.14H610.953C611.141 1021.92 611.234 1024.64 611.234 1028.3V1056H600.512V1005.59H612.746L632.75 1036.28C633.664 1037.66 634.508 1039.03 635.281 1040.39H635.422C635.234 1039.22 635.141 1036.91 635.141 1033.46V1005.59H645.863V1056ZM701.727 1056H689.352L685.766 1044.79H667.836L664.285 1056H651.98L670.332 1005.59H683.797L701.727 1056ZM683.164 1036.07L677.75 1019.12C677.352 1017.86 677.07 1016.34 676.906 1014.59H676.625C676.508 1016.06 676.215 1017.53 675.746 1018.98L670.262 1036.07H683.164Z" fill="#8B704F"/>
<path d="M240 332.91L242.5 332.91L240 332.91ZM522 339.091L519.5 339.091L522 339.091ZM520.232 926.789C521.209 927.765 522.792 927.765 523.768 926.789L539.678 910.879C540.654 909.903 540.654 908.32 539.678 907.344C538.702 906.367 537.119 906.367 536.142 907.343L522 921.486L507.858 907.343C506.882 906.367 505.299 906.367 504.323 907.344C503.346 908.32 503.346 909.903 504.323 910.879L520.232 926.789ZM242.967 303.388L245.417 303.885L242.967 303.388ZM245.307 291.863L247.757 292.36L245.307 291.863ZM515.377 294.631L512.972 295.313L515.377 294.631ZM516.249 297.708L513.844 298.39L516.249 297.708ZM330 196L329.34 193.589L329.272 193.607L329.204 193.63L330 196ZM337.141 194.046L337.801 196.458L337.141 194.046ZM427.411 198.475L428.303 196.14L427.411 198.475ZM242.5 927L242.5 332.91L237.5 332.91L237.5 927L242.5 927ZM519.5 339.091L519.5 925.021L524.5 925.021L524.5 339.091L519.5 339.091ZM245.417 303.885L247.757 292.36L242.857 291.365L240.517 302.89L245.417 303.885ZM512.972 295.313L513.844 298.39L518.654 297.027L517.782 293.949L512.972 295.313ZM330.66 198.411L337.801 196.458L336.481 191.635L329.34 193.589L330.66 198.411ZM426.518 200.81C468.632 216.907 500.678 251.936 512.972 295.313L517.782 293.949C505.058 249.055 471.891 212.8 428.303 196.14L426.518 200.81ZM247.757 292.36C256.672 248.452 288.322 212.629 330.796 198.37L329.204 193.63C285.038 208.457 252.128 245.708 242.857 291.365L247.757 292.36ZM524.5 339.091C524.5 324.867 522.533 310.711 518.654 297.027L513.844 298.39C517.597 311.631 519.5 325.328 519.5 339.091L524.5 339.091ZM242.5 332.91C242.5 323.162 243.477 313.438 245.417 303.885L240.517 302.89C238.511 312.771 237.5 322.828 237.5 332.91L242.5 332.91ZM428.303 196.14C398.952 184.921 366.79 183.343 336.481 191.635L337.801 196.458C367.085 188.446 398.159 189.971 426.518 200.81L428.303 196.14Z" fill="#FF0000"/>
<path d="M702.389 526.55L702.499 529.048L702.389 526.55ZM752.761 929.395L753.585 931.755L752.761 929.395ZM685.748 950.914C685.148 952.157 685.67 953.652 686.914 954.252L707.178 964.03C708.421 964.63 709.916 964.108 710.516 962.864C711.116 961.621 710.594 960.126 709.351 959.526L691.338 950.835L700.03 932.822C700.63 931.579 700.108 930.084 698.864 929.484C697.621 928.884 696.126 929.406 695.526 930.649L685.748 950.914ZM869.429 644.419L871.819 643.686L869.429 644.419ZM870.89 649.179L868.5 649.913L870.89 649.179ZM876.419 726.093L878.889 726.477L876.419 726.093ZM865.922 793.575L868.392 793.96L865.922 793.575ZM823.359 882.659L825.21 884.339L823.359 882.659ZM789.928 546.898L788.728 549.092L789.928 546.898ZM533.11 536.498L702.499 529.048L702.279 524.052L532.89 531.503L533.11 536.498ZM751.937 927.035L687.176 949.64L688.824 954.36L753.585 931.755L751.937 927.035ZM867.039 645.153L868.5 649.913L873.28 648.445L871.819 643.686L867.039 645.153ZM873.949 725.708L863.451 793.191L868.392 793.96L878.889 726.477L873.949 725.708ZM863.451 793.191C858.359 825.927 843.776 856.449 821.508 880.979L825.21 884.339C848.136 859.086 863.149 827.662 868.392 793.96L863.451 793.191ZM788.728 549.092C826.353 569.682 854.452 604.15 867.039 645.153L871.819 643.686C858.849 601.437 829.897 565.922 791.128 544.705L788.728 549.092ZM868.5 649.913C876.029 674.44 877.893 700.356 873.949 725.708L878.889 726.477C882.949 700.377 881.031 673.696 873.28 648.445L868.5 649.913ZM753.585 931.755C781.041 922.171 805.664 905.871 825.21 884.339L821.508 880.979C802.522 901.893 778.606 917.726 751.937 927.035L753.585 931.755ZM702.499 529.048C732.533 527.727 762.356 534.659 788.728 549.092L791.128 544.705C763.955 529.834 733.226 522.691 702.279 524.052L702.499 529.048Z" fill="#52FF00"/>
<path d="M1059.4 365.922L1061.9 365.897L1059.4 365.922ZM1063.25 928.785C1064.24 929.752 1065.82 929.736 1066.79 928.75L1082.54 912.682C1083.5 911.696 1083.49 910.113 1082.5 909.147C1081.51 908.18 1079.93 908.196 1078.96 909.182L1064.96 923.465L1050.68 909.464C1049.7 908.498 1048.11 908.514 1047.15 909.5C1046.18 910.486 1046.2 912.069 1047.18 913.035L1063.25 928.785ZM796.318 200.853L795.739 198.421L796.318 200.853ZM829.014 193.078L828.436 190.646L829.014 193.078ZM917.93 193.312L918.521 190.883L917.93 193.312ZM923.416 194.647L922.825 197.076L923.416 194.647ZM1041.6 290.069L1043.85 288.979H1043.85L1041.6 290.069ZM683.625 288.502L681.41 287.343H681.41L683.625 288.502ZM666.5 935V368.323H661.5V935H666.5ZM1056.9 365.947L1062.5 927.025L1067.5 926.975L1061.9 365.897L1056.9 365.947ZM796.896 203.285L829.592 195.51L828.436 190.646L795.739 198.421L796.896 203.285ZM917.339 195.741L922.825 197.076L924.008 192.218L918.521 190.883L917.339 195.741ZM922.825 197.076C973.763 209.471 1016.5 243.977 1039.35 291.158L1043.85 288.979C1020.35 240.454 976.395 204.966 924.008 192.218L922.825 197.076ZM685.84 289.661C708.611 246.152 749.12 214.645 796.896 203.285L795.739 198.421C746.555 210.116 704.852 242.551 681.41 287.343L685.84 289.661ZM1061.9 365.897C1061.63 339.239 1055.47 312.972 1043.85 288.979L1039.35 291.158C1050.65 314.487 1056.64 340.027 1056.9 365.947L1061.9 365.897ZM666.5 368.323C666.5 340.925 673.136 313.935 685.84 289.661L681.41 287.343C668.331 312.332 661.5 340.118 661.5 368.323H666.5ZM829.592 195.51C858.448 188.649 888.519 188.728 917.339 195.741L918.521 190.883C888.934 183.683 858.06 183.602 828.436 190.646L829.592 195.51Z" fill="#0500FF"/>
<path d="M200.543 279.461V331H189.469V291.977C188.859 292.516 188.133 293.031 187.289 293.523C186.469 293.992 185.59 294.426 184.652 294.824C183.715 295.199 182.742 295.527 181.734 295.809C180.727 296.066 179.73 296.254 178.746 296.371V287.02C181.629 286.176 184.348 285.098 186.902 283.785C189.457 282.473 191.766 281.031 193.828 279.461H200.543Z" fill="#FF0000"/>
<path d="M859.375 570.789H880.75V580H847.211V576.203C847.211 573.625 847.645 571.316 848.512 569.277C849.379 567.215 850.469 565.375 851.781 563.758C853.094 562.117 854.523 560.676 856.07 559.434C857.641 558.168 859.129 557.031 860.535 556.023C862.012 554.969 863.301 553.961 864.402 553C865.527 552.039 866.465 551.09 867.215 550.152C867.988 549.191 868.562 548.23 868.938 547.27C869.312 546.285 869.5 545.242 869.5 544.141C869.5 541.984 868.891 540.355 867.672 539.254C866.453 538.152 864.59 537.602 862.082 537.602C857.746 537.602 853.598 539.324 849.637 542.77V532.996C854.02 530.16 858.965 528.742 864.473 528.742C867.027 528.742 869.312 529.082 871.328 529.762C873.367 530.418 875.09 531.367 876.496 532.609C877.902 533.852 878.969 535.363 879.695 537.145C880.445 538.902 880.82 540.871 880.82 543.051C880.82 545.371 880.457 547.434 879.73 549.238C879.027 551.043 878.078 552.684 876.883 554.16C875.711 555.637 874.352 556.996 872.805 558.238C871.258 559.457 869.652 560.641 867.988 561.789C866.863 562.586 865.773 563.383 864.719 564.18C863.688 564.953 862.773 565.727 861.977 566.5C861.18 567.25 860.547 567.988 860.078 568.715C859.609 569.441 859.375 570.133 859.375 570.789Z" fill="#52FF00"/>
<path d="M1071.41 548.348V538.68C1074.78 541.141 1078.72 542.371 1083.22 542.371C1086.05 542.371 1088.26 541.762 1089.83 540.543C1091.42 539.324 1092.22 537.625 1092.22 535.445C1092.22 533.195 1091.23 531.461 1089.27 530.242C1087.32 529.023 1084.64 528.414 1081.21 528.414H1076.54V519.906H1080.86C1087.43 519.906 1090.71 517.727 1090.71 513.367C1090.71 509.266 1088.19 507.215 1083.15 507.215C1079.77 507.215 1076.49 508.305 1073.3 510.484V501.414C1076.84 499.633 1080.97 498.742 1085.68 498.742C1090.84 498.742 1094.84 499.902 1097.7 502.223C1100.59 504.543 1102.03 507.555 1102.03 511.258C1102.03 517.844 1098.69 521.969 1092.01 523.633V523.809C1095.57 524.254 1098.38 525.555 1100.45 527.711C1102.51 529.844 1103.54 532.469 1103.54 535.586C1103.54 540.297 1101.82 544.023 1098.37 546.766C1094.93 549.508 1090.17 550.879 1084.1 550.879C1078.89 550.879 1074.66 550.035 1071.41 548.348Z" fill="#0500FF"/>
</svg>
