<svg width="1056" height="1056" viewBox="0 0 1056 1056" fill="none" xmlns="http://www.w3.org/2000/svg">
<g clip-path="url(#clip0_71_63)">
<path d="M206.754 151.453C154.787 162.846 118.939 200.084 104.488 258.442C95.3179 295.402 94.2063 336.808 95.04 626.653L95.8737 912.884L107.545 913.718L119.217 914.552L120.328 616.37C121.44 361.541 122.274 315.133 125.886 296.792C137.558 237.878 155.065 211.2 181.465 211.2C211.478 211.2 228.707 235.099 235.933 287.343C237.878 301.794 238.989 409.339 238.989 610.257V911.495H321.802C396.834 911.495 406.282 910.939 425.179 905.659C478.813 890.93 551.065 836.741 582.467 787.554C598.863 761.987 603.309 764.21 531.891 764.21H468.808L452.413 774.493C443.52 780.328 436.295 785.886 436.295 786.72C436.295 789.221 470.476 792 503.823 792C526.055 792 533.558 792.834 533.558 795.613C533.558 797.558 528 805.339 521.331 813.12C506.602 830.072 483.259 842.855 454.636 850.358C431.57 856.194 382.661 860.362 371.267 857.583L364.042 855.916V548.008C364.042 218.981 364.042 221.76 350.425 194.804C341.255 177.297 319.023 159.234 298.181 152.842C276.783 146.173 233.709 145.617 206.754 151.453Z" fill="black"/>
<path d="M620.261 154.232C602.476 159.79 590.527 170.35 581.634 188.135L573.853 204.253L573.019 277.061L572.186 350.147H590.249H608.59V289.566C608.59 232.32 608.868 228.43 614.981 216.758C619.706 206.754 623.318 203.419 632.211 200.64C653.609 193.693 674.173 201.196 681.398 218.981C683.343 223.427 685.011 252.329 685.845 288.455L686.956 350.425L711.133 349.592L735.032 348.758L736.421 284.564C737.811 225.095 738.367 219.537 743.369 213.979C752.261 204.253 762.821 200.084 779.495 200.084C798.948 200.084 811.453 205.642 818.4 217.592C823.958 226.206 823.958 234.821 824.792 571.907L825.626 917.053L884.539 916.497L943.453 915.663L944.287 573.019C944.842 197.027 945.12 202.585 928.725 179.242C924.278 172.851 914.552 164.514 905.937 159.79L890.653 151.453L834.518 150.619C763.377 149.23 754.207 151.453 729.474 175.352C720.026 184.244 711.689 191.747 710.855 191.747C710.299 191.747 704.741 184.8 699.183 176.463C685.845 157.289 671.672 150.063 648.607 150.341C639.714 150.341 626.931 152.009 620.261 154.232Z" fill="black"/>
<path d="M412.543 509.461V561H401.469V521.977C400.859 522.516 400.133 523.031 399.289 523.523C398.469 523.992 397.59 524.426 396.652 524.824C395.715 525.199 394.742 525.527 393.734 525.809C392.727 526.066 391.73 526.254 390.746 526.371V517.02C393.629 516.176 396.348 515.098 398.902 513.785C401.457 512.473 403.766 511.031 405.828 509.461H412.543Z" fill="#FF0000"/>
<path d="M587.375 881.789H608.75V891H575.211V887.203C575.211 884.625 575.645 882.316 576.512 880.277C577.379 878.215 578.469 876.375 579.781 874.758C581.094 873.117 582.523 871.676 584.07 870.434C585.641 869.168 587.129 868.031 588.535 867.023C590.012 865.969 591.301 864.961 592.402 864C593.527 863.039 594.465 862.09 595.215 861.152C595.988 860.191 596.562 859.23 596.938 858.27C597.312 857.285 597.5 856.242 597.5 855.141C597.5 852.984 596.891 851.355 595.672 850.254C594.453 849.152 592.59 848.602 590.082 848.602C585.746 848.602 581.598 850.324 577.637 853.77V843.996C582.02 841.16 586.965 839.742 592.473 839.742C595.027 839.742 597.312 840.082 599.328 840.762C601.367 841.418 603.09 842.367 604.496 843.609C605.902 844.852 606.969 846.363 607.695 848.145C608.445 849.902 608.82 851.871 608.82 854.051C608.82 856.371 608.457 858.434 607.73 860.238C607.027 862.043 606.078 863.684 604.883 865.16C603.711 866.637 602.352 867.996 600.805 869.238C599.258 870.457 597.652 871.641 595.988 872.789C594.863 873.586 593.773 874.383 592.719 875.18C591.688 875.953 590.773 876.727 589.977 877.5C589.18 878.25 588.547 878.988 588.078 879.715C587.609 880.441 587.375 881.133 587.375 881.789Z" fill="#FF9900"/>
<path d="M526.406 301.348V291.68C529.781 294.141 533.719 295.371 538.219 295.371C541.055 295.371 543.258 294.762 544.828 293.543C546.422 292.324 547.219 290.625 547.219 288.445C547.219 286.195 546.234 284.461 544.266 283.242C542.32 282.023 539.637 281.414 536.215 281.414H531.539V272.906H535.863C542.426 272.906 545.707 270.727 545.707 266.367C545.707 262.266 543.188 260.215 538.148 260.215C534.773 260.215 531.492 261.305 528.305 263.484V254.414C531.844 252.633 535.969 251.742 540.68 251.742C545.836 251.742 549.844 252.902 552.703 255.223C555.586 257.543 557.027 260.555 557.027 264.258C557.027 270.844 553.688 274.969 547.008 276.633V276.809C550.57 277.254 553.383 278.555 555.445 280.711C557.508 282.844 558.539 285.469 558.539 288.586C558.539 293.297 556.816 297.023 553.371 299.766C549.926 302.508 545.168 303.879 539.098 303.879C533.895 303.879 529.664 303.035 526.406 301.348Z" fill="#52FF00"/>
<path d="M999.762 510.586V542.367H1005.81V550.664H999.762V561H989.637V550.664H967.664V541.98C969.609 539.801 971.625 537.422 973.711 534.844C975.797 532.242 977.812 529.57 979.758 526.828C981.703 524.086 983.508 521.332 985.172 518.566C986.859 515.777 988.289 513.117 989.461 510.586H999.762ZM977.613 542.367H989.637V524.754C988.816 526.277 987.926 527.824 986.965 529.395C986.004 530.941 984.996 532.477 983.941 534C982.887 535.5 981.82 536.965 980.742 538.395C979.664 539.801 978.621 541.125 977.613 542.367Z" fill="#0500FF"/>
<path d="M499.27 1009H487.809L467.031 977.324C465.812 975.473 464.969 974.078 464.5 973.141H464.359C464.547 974.922 464.641 977.641 464.641 981.297V1009H453.918V958.586H466.152L486.156 989.277C487.07 990.66 487.914 992.031 488.688 993.391H488.828C488.641 992.219 488.547 989.91 488.547 986.465V958.586H499.27V1009ZM552.18 1005.62C547.258 1008.46 541.141 1009.88 533.828 1009.88C525.719 1009.88 519.32 1007.64 514.633 1003.16C509.969 998.664 507.637 992.477 507.637 984.602C507.637 976.68 510.191 970.223 515.301 965.23C520.41 960.238 527.207 957.742 535.691 957.742C541.035 957.742 545.746 958.48 549.824 959.957V970.609C545.934 968.359 541.176 967.234 535.551 967.234C530.84 967.234 526.996 968.77 524.02 971.84C521.066 974.887 519.59 978.965 519.59 984.074C519.59 989.254 520.914 993.262 523.562 996.098C526.234 998.934 529.832 1000.35 534.355 1000.35C537.074 1000.35 539.23 999.965 540.824 999.191V989.348H530.734V980.277H552.18V1005.62ZM606.32 1009H593.945L590.359 997.785H572.43L568.879 1009H556.574L574.926 958.586H588.391L606.32 1009ZM587.758 989.066L582.344 972.121C581.945 970.855 581.664 969.344 581.5 967.586H581.219C581.102 969.062 580.809 970.527 580.34 971.98L574.855 989.066H587.758Z" fill="#8B704F"/>
<path d="M87.6771 295.503L90.1771 295.503L87.6771 295.503ZM373.5 319L376 319L373.5 319ZM371.732 856.268C372.709 857.244 374.291 857.244 375.268 856.268L391.178 840.358C392.154 839.382 392.154 837.799 391.178 836.822C390.201 835.846 388.618 835.846 387.642 836.822L373.5 850.964L359.358 836.822C358.382 835.846 356.799 835.846 355.822 836.822C354.846 837.799 354.846 839.382 355.822 840.358L371.732 856.268ZM373.5 225.42L371 225.42L373.5 225.42ZM93.679 259.498L91.3142 258.687L93.679 259.498ZM109.283 213.994L106.918 213.183L109.283 213.994ZM214.281 139L214.281 141.5L214.281 139ZM287.08 139L287.08 141.5L287.08 139ZM354.445 171.287L352.496 172.853L354.445 171.287ZM90.1771 912.491L90.1771 295.503L85.1771 295.503L85.1771 912.491L90.1771 912.491ZM371 319L371 854.5L376 854.5L376 319L371 319ZM371 225.42L371 319L376 319L376 225.42L371 225.42ZM96.0439 260.308L111.648 214.805L106.918 213.183L91.3142 258.687L96.0439 260.308ZM214.281 141.5L287.08 141.5L287.08 136.5L214.281 136.5L214.281 141.5ZM111.648 214.805C126.685 170.954 167.922 141.5 214.281 141.5L214.281 136.5C165.786 136.5 122.649 167.311 106.918 213.183L111.648 214.805ZM352.496 172.853C364.472 187.756 371 206.302 371 225.42L376 225.42C376 205.163 369.083 185.512 356.394 169.721L352.496 172.853ZM90.1771 295.503C90.1771 283.528 92.1595 271.636 96.0439 260.308L91.3142 258.687C87.2509 270.536 85.1771 282.976 85.1771 295.503L90.1771 295.503ZM356.394 169.721C339.516 148.718 314.025 136.5 287.08 136.5L287.08 141.5C312.509 141.5 336.567 153.031 352.496 172.853L356.394 169.721Z" fill="#FF0000"/>
<path d="M597.5 767L595.295 768.178L595.295 768.178L597.5 767ZM466.303 755.307C465.644 756.52 466.093 758.038 467.307 758.697L487.08 769.433C488.294 770.092 489.811 769.642 490.47 768.429C491.129 767.215 490.679 765.697 489.466 765.039L471.89 755.496L481.433 737.919C482.091 736.706 481.642 735.188 480.428 734.529C479.215 733.87 477.697 734.32 477.038 735.533L466.303 755.307ZM239.341 915.124C239.219 917.621 239.22 917.621 239.221 917.621C239.222 917.621 239.224 917.621 239.227 917.621C239.231 917.621 239.238 917.622 239.248 917.622C239.267 917.623 239.295 917.624 239.332 917.626C239.406 917.63 239.517 917.635 239.664 917.642C239.956 917.656 240.391 917.677 240.96 917.703C242.096 917.757 243.768 917.834 245.91 917.929C250.192 918.119 256.354 918.383 263.87 918.677C278.902 919.263 299.359 919.966 321.054 920.436C342.745 920.905 365.692 921.14 385.699 920.787C405.643 920.436 422.854 919.5 432.966 917.58L432.033 912.668C422.396 914.498 405.587 915.436 385.611 915.788C365.697 916.139 342.823 915.905 321.162 915.437C299.505 914.968 279.078 914.266 264.065 913.68C256.559 913.388 250.407 913.124 246.132 912.934C243.995 912.839 242.327 912.762 241.193 912.709C240.627 912.682 240.194 912.662 239.903 912.648C239.757 912.641 239.647 912.636 239.573 912.632C239.536 912.63 239.509 912.629 239.49 912.628C239.481 912.628 239.474 912.627 239.47 912.627C239.467 912.627 239.466 912.627 239.465 912.627C239.463 912.627 239.463 912.627 239.341 915.124ZM432.966 917.58C443.304 915.617 457.63 908.747 473.215 899.629C488.887 890.462 506.113 878.85 522.337 867.152C538.565 855.451 553.824 843.639 565.565 834.058C571.435 829.268 576.437 825.025 580.248 821.626C583.994 818.284 586.75 815.617 587.978 814.029L584.022 810.971C583.124 812.133 580.724 814.501 576.92 817.894C573.18 821.23 568.237 825.423 562.403 830.184C550.738 839.704 535.559 851.454 519.413 863.096C503.261 874.742 486.175 886.255 470.691 895.314C455.119 904.423 441.446 910.88 432.033 912.668L432.966 917.58ZM587.978 814.029C592.055 808.752 598.017 802.161 601.374 794.364C604.839 786.313 605.615 776.886 599.705 765.822L595.295 768.178C600.425 777.782 599.7 785.605 596.781 792.387C593.753 799.422 588.445 805.248 584.022 810.971L587.978 814.029ZM599.705 765.822C593.603 754.398 581.907 748.21 568.414 745.177C554.904 742.139 539.188 742.162 524.352 743.488C509.489 744.817 495.357 747.47 484.954 749.786C479.748 750.945 475.467 752.021 472.483 752.809C470.991 753.203 469.823 753.525 469.025 753.749C468.626 753.861 468.32 753.949 468.112 754.009C468.008 754.039 467.929 754.062 467.875 754.078C467.848 754.086 467.827 754.092 467.813 754.096C467.806 754.098 467.8 754.1 467.796 754.101C467.795 754.101 467.793 754.102 467.792 754.102C467.791 754.103 467.79 754.103 468.5 756.5C469.21 758.897 469.21 758.897 469.21 758.897C469.211 758.897 469.211 758.896 469.213 758.896C469.215 758.895 469.219 758.894 469.225 758.892C469.237 758.889 469.255 758.884 469.279 758.877C469.328 758.862 469.401 758.841 469.5 758.812C469.696 758.756 469.991 758.671 470.378 758.562C471.152 758.345 472.295 758.03 473.759 757.643C476.69 756.869 480.907 755.809 486.04 754.666C496.314 752.379 510.22 749.771 524.798 748.468C539.404 747.162 554.534 747.181 567.317 750.055C580.118 752.933 590.164 758.573 595.295 768.178L599.705 765.822Z" fill="#FF9900"/>
<path d="M566.007 213.469L568.507 213.469L566.007 213.469ZM597.632 158.838L596.387 156.67L597.632 158.838ZM615.611 148.513L616.856 150.681L615.611 148.513ZM699.598 168.49L701.686 167.115L699.598 168.49ZM711.612 186.729L713.7 185.354L711.612 186.729ZM722 221.384L719.5 221.384L722 221.384ZM720.232 349.534C721.208 350.511 722.791 350.511 723.768 349.534L739.677 333.624C740.654 332.648 740.654 331.065 739.677 330.089C738.701 329.113 737.118 329.113 736.142 330.089L722 344.231L707.858 330.089C706.881 329.113 705.298 329.113 704.322 330.089C703.346 331.065 703.346 332.648 704.322 333.624L720.232 349.534ZM568.507 347.767L568.507 213.469L563.507 213.469L563.507 347.767L568.507 347.767ZM598.877 161.006L616.856 150.681L614.366 146.345L596.387 156.67L598.877 161.006ZM697.51 169.865L709.524 188.105L713.7 185.354L701.686 167.115L697.51 169.865ZM719.5 221.384L719.5 347.767L724.5 347.767L724.5 221.384L719.5 221.384ZM709.524 188.105C716.032 197.984 719.5 209.554 719.5 221.384L724.5 221.384C724.5 208.577 720.745 196.05 713.7 185.354L709.524 188.105ZM568.507 213.469C568.507 191.805 580.091 171.795 598.877 161.006L596.387 156.67C576.048 168.351 563.507 190.015 563.507 213.469L568.507 213.469ZM616.856 150.681C644.586 134.755 679.92 143.16 697.51 169.865L701.686 167.115C682.642 138.203 644.387 129.103 614.366 146.345L616.856 150.681Z" fill="#52FF00"/>
<path d="M736.449 163.877L734.812 161.988L736.449 163.877ZM951.001 214.317L953.501 214.317L951.001 214.317ZM949.233 920.268C950.209 921.244 951.792 921.244 952.768 920.268L968.678 904.358C969.654 903.381 969.654 901.799 968.678 900.822C967.702 899.846 966.119 899.846 965.143 900.822L951 914.964L936.858 900.822C935.882 899.846 934.299 899.846 933.323 900.822C932.346 901.799 932.346 903.381 933.323 904.358L949.233 920.268ZM782.976 144.749L782.811 142.255L782.811 142.255L782.976 144.749ZM870.497 138.961L870.662 141.456L870.497 138.961ZM924.97 157.273L923.332 159.161L924.97 157.273ZM713.137 187.389L738.087 165.767L734.812 161.988L709.863 183.611L713.137 187.389ZM948.501 214.317L948.5 918.5L953.5 918.5L953.501 214.317L948.501 214.317ZM783.141 147.244L870.662 141.456L870.332 136.467L782.811 142.255L783.141 147.244ZM870.662 141.456C889.866 140.186 908.795 146.549 923.332 159.161L926.609 155.384C911.076 141.909 890.851 135.11 870.332 136.467L870.662 141.456ZM953.501 214.317C953.501 191.704 943.689 170.203 926.609 155.384L923.332 159.161C939.318 173.03 948.501 193.153 948.501 214.317L953.501 214.317ZM738.087 165.767C750.685 154.848 766.506 148.344 783.141 147.244L782.811 142.255C765.088 143.427 748.234 150.356 734.812 161.988L738.087 165.767Z" fill="#0500FF"/>
</g>
<defs>
<clipPath id="clip0_71_63">
<rect width="1056" height="1056" fill="white"/>
</clipPath>
</defs>
</svg>
