<svg width="1117" height="1117" viewBox="0 0 1117 1117" fill="none" xmlns="http://www.w3.org/2000/svg">
<g clip-path="url(#clip0_71_50)">
<path d="M138.624 255.886C97.4596 266.567 76.9886 288.818 66.0856 334.21L61.1904 354.903V611.902V868.901H70.0908H78.9912L80.3263 620.803C80.9938 484.404 82.3289 369.589 83.2189 366.029C84.109 362.246 87.0016 352.901 89.4492 345.113C103.022 302.836 145.967 296.828 164.658 334.655C170.443 346.225 171.778 352.456 173.558 373.817C174.671 387.835 175.783 504.875 175.783 633.486V867.789H239.866C312.182 867.789 321.305 866.454 350.453 852.213C387.613 834.412 429.222 798.811 443.24 772.777L449.47 761.652L418.096 760.317L386.723 759.204L369.589 770.329C360.244 776.337 352.456 782.345 352.011 783.458C351.566 784.57 357.574 785.683 365.362 785.683C373.149 785.905 386.5 786.573 394.955 787.463L410.531 788.798L396.068 797.921C388.058 803.038 374.262 810.826 365.362 815.276L349.341 823.287H312.627H275.913V582.309C275.913 324.197 275.913 324.419 264.565 301.279C258.334 288.373 242.091 270.35 230.076 263.452C224.735 260.337 215.167 256.331 208.715 254.551C192.026 250.101 157.982 250.769 138.624 255.886Z" fill="black"/>
<path d="M426.774 253.661C409.863 258.779 397.625 271.907 390.282 292.601C387.167 301.501 386.277 313.962 385.387 356.461L384.497 409.418H398.96H413.423L414.313 360.911C414.981 317.967 415.426 311.737 419.431 303.949C427.664 287.705 443.462 281.253 459.038 287.928C472.611 293.491 474.169 299.943 475.504 358.686L476.839 409.641L495.975 408.973L515.11 408.306L516.223 362.691C517.336 319.524 517.558 316.632 522.676 307.731C536.916 282.81 567.178 278.138 579.638 298.831C584.089 305.729 584.089 312.627 584.756 586.759L585.201 867.789H626.365H667.53V609.232V350.898L677.32 341.33C684.663 334.432 693.118 329.76 710.029 323.084C740.513 311.291 748.746 309.734 754.531 315.074C767.214 326.645 766.547 308.844 767.214 600.332L767.659 867.789H808.824H849.988L850.433 594.769L851.1 321.749L885.589 312.182C927.866 300.611 932.317 300.388 939.882 309.289C951.452 323.307 951.007 313.739 951.897 600.109L952.342 867.789H1000.18H1048.02V592.322C1048.02 291.488 1048.24 297.051 1035.12 275.912C1030.67 268.57 1025.55 264.119 1015.76 259.224C1003.52 252.994 1001.29 252.549 978.154 252.771C948.56 252.771 938.769 256.109 885.144 282.81C865.786 292.601 849.543 300.388 849.098 300.388C848.653 300.388 846.65 295.271 844.425 288.818C835.97 263.007 819.727 250.101 798.143 251.881C782.79 253.216 762.541 263.229 713.144 293.936C691.116 307.509 671.757 319.079 670.422 319.747C668.642 320.414 667.53 318.857 667.53 315.297C667.53 305.061 658.852 281.475 651.732 273.02C639.048 257.444 619.468 251.436 583.198 251.436C541.812 251.436 528.016 256.554 512.44 277.247C506.655 284.813 501.092 291.266 500.425 291.488C499.757 291.488 497.532 287.26 495.307 282.365C489.967 270.127 476.394 257.222 465.491 254.106C455.7 250.991 435.897 250.991 426.774 253.661Z" fill="black"/>
<path d="M441.375 858.789H462.75V868H429.211V864.203C429.211 861.625 429.645 859.316 430.512 857.277C431.379 855.215 432.469 853.375 433.781 851.758C435.094 850.117 436.523 848.676 438.07 847.434C439.641 846.168 441.129 845.031 442.535 844.023C444.012 842.969 445.301 841.961 446.402 841C447.527 840.039 448.465 839.09 449.215 838.152C449.988 837.191 450.562 836.23 450.938 835.27C451.312 834.285 451.5 833.242 451.5 832.141C451.5 829.984 450.891 828.355 449.672 827.254C448.453 826.152 446.59 825.602 444.082 825.602C439.746 825.602 435.598 827.324 431.637 830.77V820.996C436.02 818.16 440.965 816.742 446.473 816.742C449.027 816.742 451.312 817.082 453.328 817.762C455.367 818.418 457.09 819.367 458.496 820.609C459.902 821.852 460.969 823.363 461.695 825.145C462.445 826.902 462.82 828.871 462.82 831.051C462.82 833.371 462.457 835.434 461.73 837.238C461.027 839.043 460.078 840.684 458.883 842.16C457.711 843.637 456.352 844.996 454.805 846.238C453.258 847.457 451.652 848.641 449.988 849.789C448.863 850.586 447.773 851.383 446.719 852.18C445.688 852.953 444.773 853.727 443.977 854.5C443.18 855.25 442.547 855.988 442.078 856.715C441.609 857.441 441.375 858.133 441.375 858.789Z" fill="#FF9900"/>
<path d="M343.406 370.348V360.68C346.781 363.141 350.719 364.371 355.219 364.371C358.055 364.371 360.258 363.762 361.828 362.543C363.422 361.324 364.219 359.625 364.219 357.445C364.219 355.195 363.234 353.461 361.266 352.242C359.32 351.023 356.637 350.414 353.215 350.414H348.539V341.906H352.863C359.426 341.906 362.707 339.727 362.707 335.367C362.707 331.266 360.188 329.215 355.148 329.215C351.773 329.215 348.492 330.305 345.305 332.484V323.414C348.844 321.633 352.969 320.742 357.68 320.742C362.836 320.742 366.844 321.902 369.703 324.223C372.586 326.543 374.027 329.555 374.027 333.258C374.027 339.844 370.688 343.969 364.008 345.633V345.809C367.57 346.254 370.383 347.555 372.445 349.711C374.508 351.844 375.539 354.469 375.539 357.586C375.539 362.297 373.816 366.023 370.371 368.766C366.926 371.508 362.168 372.879 356.098 372.879C350.895 372.879 346.664 372.035 343.406 370.348Z" fill="#52FF00"/>
<path d="M707.762 449.586V481.367H713.809V489.664H707.762V500H697.637V489.664H675.664V480.98C677.609 478.801 679.625 476.422 681.711 473.844C683.797 471.242 685.812 468.57 687.758 465.828C689.703 463.086 691.508 460.332 693.172 457.566C694.859 454.777 696.289 452.117 697.461 449.586H707.762ZM685.613 481.367H697.637V463.754C696.816 465.277 695.926 466.824 694.965 468.395C694.004 469.941 692.996 471.477 691.941 473C690.887 474.5 689.82 475.965 688.742 477.395C687.664 478.801 686.621 480.125 685.613 481.367Z" fill="#0500FF"/>
<path d="M862.285 526.699V517.207C865.73 519.316 869.398 520.371 873.289 520.371C876.219 520.371 878.504 519.68 880.145 518.297C881.809 516.891 882.641 514.992 882.641 512.602C882.641 507.609 879.113 505.113 872.059 505.113C869.457 505.113 866.457 505.312 863.059 505.711L864.957 477.586H891.641V486.656H873.43L872.727 496.746C874.531 496.605 876.09 496.535 877.402 496.535C882.582 496.535 886.637 497.895 889.566 500.613C892.496 503.332 893.961 506.988 893.961 511.582C893.961 516.668 892.215 520.828 888.723 524.062C885.23 527.273 880.496 528.879 874.52 528.879C869.668 528.879 865.59 528.152 862.285 526.699Z" fill="#FAFF00"/>
<path d="M536.703 1027H525.242L504.465 995.324C503.246 993.473 502.402 992.078 501.934 991.141H501.793C501.98 992.922 502.074 995.641 502.074 999.297V1027H491.352V976.586H503.586L523.59 1007.28C524.504 1008.66 525.348 1010.03 526.121 1011.39H526.262C526.074 1010.22 525.98 1007.91 525.98 1004.46V976.586H536.703V1027ZM586.238 976.586L569.82 1009.07V1027H558.465V1009.28L542.469 976.586H555.441L563.562 995.395C563.703 995.746 564.09 997.117 564.723 999.508H564.863C565.168 997.82 565.531 996.496 565.953 995.535L574.215 976.586H586.238ZM630.887 1027H618.512L614.926 1015.79H596.996L593.445 1027H581.141L599.492 976.586H612.957L630.887 1027ZM612.324 1007.07L606.91 990.121C606.512 988.855 606.23 987.344 606.066 985.586H605.785C605.668 987.062 605.375 988.527 604.906 989.98L599.422 1007.07H612.324Z" fill="#8B704F"/>
<path d="M55.0004 366.395L57.5004 366.395L55.0004 366.395ZM282.001 355.901L284.501 355.901L282.001 355.901ZM280.233 821.268C281.209 822.244 282.792 822.244 283.768 821.268L299.678 805.358C300.655 804.382 300.655 802.799 299.678 801.822C298.702 800.846 297.119 800.846 296.143 801.822L282.001 815.964L267.858 801.822C266.882 800.846 265.299 800.846 264.323 801.822C263.347 802.799 263.347 804.381 264.323 805.358L280.233 821.268ZM61.5773 328.754L59.2255 327.906L59.2255 327.906L61.5773 328.754ZM65.1731 318.779L67.5249 319.627L67.5249 319.627L65.1731 318.779ZM146.016 247.953L145.485 245.51L146.016 247.953ZM148.242 247.469L148.773 249.912L148.242 247.469ZM206.855 250.736L206.056 253.105L206.855 250.736ZM276.634 321.806L274.254 322.571L274.254 322.571L276.634 321.806ZM57.5004 866L57.5004 366.395L52.5004 366.395L52.5004 866L57.5004 866ZM279.501 355.901L279.501 819.5L284.501 819.5L284.501 355.901L279.501 355.901ZM63.9292 329.602L67.5249 319.627L62.8212 317.931L59.2255 327.906L63.9292 329.602ZM146.548 250.396L148.773 249.912L147.711 245.026L145.485 245.51L146.548 250.396ZM67.5249 319.627C80.1921 284.485 110.045 258.331 146.548 250.396L145.485 245.51C107.301 253.811 76.0721 281.17 62.8212 317.931L67.5249 319.627ZM206.056 253.105C238.404 264.02 263.801 290.048 274.254 322.571L279.015 321.041C268.082 287.028 241.526 259.797 207.655 248.368L206.056 253.105ZM284.501 355.901C284.501 344.108 282.621 332.262 279.015 321.041L274.254 322.571C277.704 333.303 279.501 344.633 279.501 355.901L284.501 355.901ZM57.5004 366.395C57.5004 353.851 59.6755 341.402 63.9292 329.602L59.2255 327.906C54.7758 340.251 52.5004 353.273 52.5004 366.395L57.5004 366.395ZM207.655 248.368C188.343 241.852 167.626 240.697 147.711 245.026L148.773 249.912C167.804 245.775 187.602 246.878 206.056 253.105L207.655 248.368Z" fill="#FF0000"/>
<path d="M436.5 804L434.522 802.471L434.522 802.471L436.5 804ZM455.79 769.092L458.037 770.189L455.79 769.092ZM446.885 755L446.885 752.5L446.885 752.5L446.885 755ZM382.233 753.232C381.256 754.209 381.256 755.792 382.233 756.768L398.143 772.678C399.119 773.654 400.702 773.654 401.678 772.678C402.654 771.701 402.654 770.119 401.678 769.142L387.536 755L401.678 740.858C402.654 739.882 402.654 738.299 401.678 737.322C400.702 736.346 399.119 736.346 398.142 737.322L382.233 753.232ZM177 875C176.96 877.5 176.961 877.5 176.962 877.5C176.963 877.5 176.964 877.5 176.966 877.5C176.97 877.5 176.976 877.5 176.983 877.5C176.999 877.5 177.021 877.501 177.052 877.501C177.112 877.502 177.202 877.503 177.321 877.505C177.559 877.509 177.911 877.514 178.373 877.52C179.297 877.533 180.655 877.551 182.398 877.571C185.884 877.611 190.906 877.66 197.056 877.695C209.355 877.766 226.168 877.781 244.218 877.562C280.214 877.126 321.456 875.756 341.466 871.956L340.534 867.044C321.044 870.744 280.286 872.124 244.157 872.563C226.145 872.781 209.364 872.766 197.085 872.695C190.946 872.66 185.933 872.611 182.456 872.571C180.717 872.551 179.362 872.534 178.443 872.521C177.983 872.514 177.632 872.509 177.396 872.506C177.278 872.504 177.189 872.503 177.129 872.502C177.1 872.501 177.077 872.501 177.062 872.501C177.055 872.5 177.049 872.5 177.046 872.5C177.044 872.5 177.042 872.5 177.042 872.5C177.041 872.5 177.04 872.5 177 875ZM341.466 871.956C361.835 868.089 383.981 854.141 401.921 840.027C419.9 825.883 434.064 811.241 438.478 805.529L434.522 802.471C430.436 807.759 416.6 822.117 398.829 836.098C381.019 850.109 359.665 863.411 340.534 867.044L341.466 871.956ZM438.478 805.529C441.167 802.049 444.611 796.156 448.061 789.758C451.537 783.314 455.102 776.203 458.037 770.189L453.543 767.996C450.623 773.98 447.091 781.024 443.661 787.385C440.205 793.792 436.932 799.353 434.522 802.471L438.478 805.529ZM446.885 752.5L384 752.5L384 757.5L446.885 757.5L446.885 752.5ZM458.037 770.189C462.065 761.935 455.985 752.5 446.885 752.5L446.885 757.5C452.374 757.5 455.914 763.139 453.543 767.996L458.037 770.189Z" fill="#FF9900"/>
<path d="M382 310.872L379.5 310.872L382 310.872ZM403.163 264.861L401.536 262.963L403.163 264.861ZM404.745 263.504L406.372 265.402L404.745 263.504ZM501 307.775L503.5 307.775L501 307.775ZM499.232 411.768C500.209 412.744 501.791 412.744 502.768 411.768L518.678 395.858C519.654 394.882 519.654 393.299 518.678 392.322C517.701 391.346 516.118 391.346 515.142 392.322L501 406.464L486.858 392.322C485.882 391.346 484.299 391.346 483.322 392.322C482.346 393.299 482.346 394.882 483.322 395.858L499.232 411.768ZM483.166 265.802L481.43 267.602L481.43 267.602L483.166 265.802ZM384.5 410L384.5 310.872L379.5 310.872L379.5 410L384.5 410ZM404.79 266.759L406.372 265.402L403.118 261.606L401.536 262.963L404.79 266.759ZM498.5 307.775L498.5 410L503.5 410L503.5 307.775L498.5 307.775ZM481.43 267.602C492.338 278.12 498.5 292.622 498.5 307.775L503.5 307.775C503.5 291.264 496.786 275.464 484.901 264.003L481.43 267.602ZM384.5 310.872C384.5 293.911 391.912 277.797 404.79 266.759L401.536 262.963C387.55 274.951 379.5 292.452 379.5 310.872L384.5 310.872ZM406.372 265.402C428.218 246.678 460.719 247.63 481.43 267.602L484.901 264.003C462.334 242.241 426.921 241.204 403.118 261.606L406.372 265.402Z" fill="#52FF00"/>
<path d="M512.767 272.02L510.908 270.349L512.767 272.02ZM670.001 331.631L672.501 331.631L672.501 331.631L670.001 331.631ZM668.233 865.768C669.209 866.744 670.792 866.744 671.768 865.768L687.678 849.858C688.655 848.881 688.655 847.299 687.678 846.322C686.702 845.346 685.119 845.346 684.143 846.322L670.001 860.464L655.859 846.322C654.882 845.346 653.299 845.346 652.323 846.322C651.347 847.299 651.347 848.881 652.323 849.858L668.233 865.768ZM574.476 245.882L574.569 243.384L574.476 245.882ZM591.675 246.525L591.768 244.027L591.675 246.525ZM662.825 298.084L660.48 298.951L662.825 298.084ZM665.102 304.245L667.447 303.379L665.102 304.245ZM503.86 285.671L514.627 273.691L510.908 270.349L500.141 282.329L503.86 285.671ZM667.501 331.631L667.501 864L672.501 864L672.501 331.631L667.501 331.631ZM574.383 248.381L591.582 249.023L591.768 244.027L574.569 243.384L574.383 248.381ZM660.48 298.951L662.757 305.112L667.447 303.379L665.17 297.218L660.48 298.951ZM591.582 249.023C622.538 250.181 649.741 269.893 660.48 298.951L665.17 297.218C653.73 266.261 624.749 245.26 591.768 244.027L591.582 249.023ZM672.501 331.631C672.501 321.989 670.79 312.423 667.447 303.379L662.757 305.112C665.895 313.601 667.501 322.58 667.501 331.631L672.501 331.631ZM514.627 273.691C529.803 256.805 551.695 247.532 574.383 248.381L574.569 243.384C550.399 242.48 527.076 252.359 510.908 270.349L514.627 273.691Z" fill="#0500FF"/>
<path d="M761.515 260.314L762.773 262.475L761.515 260.314ZM853.808 335.889L851.308 335.889L853.808 335.889ZM852.04 870.026C853.016 871.002 854.599 871.002 855.575 870.026L871.485 854.116C872.462 853.139 872.462 851.557 871.485 850.58C870.509 849.604 868.926 849.604 867.95 850.58L853.808 864.722L839.665 850.58C838.689 849.604 837.106 849.604 836.13 850.58C835.154 851.557 835.154 853.14 836.13 854.116L852.04 870.026ZM841.752 289.137L839.407 290.004L841.752 289.137ZM848.909 308.503L846.564 309.37L848.909 308.503ZM789.523 252.758L789.523 250.258L789.523 252.758ZM678.258 311.661L762.773 262.475L760.258 258.154L675.743 307.339L678.258 311.661ZM851.308 335.889L851.308 868.258L856.308 868.258L856.308 335.889L851.308 335.889ZM839.407 290.004L846.564 309.37L851.254 307.637L844.097 288.271L839.407 290.004ZM789.523 255.258C811.784 255.258 831.69 269.123 839.407 290.004L844.097 288.271C835.654 265.427 813.877 250.258 789.523 250.258L789.523 255.258ZM856.308 335.889C856.308 326.247 854.596 316.681 851.254 307.637L846.564 309.37C849.701 317.859 851.308 326.838 851.308 335.889L856.308 335.889ZM762.773 262.475C770.895 257.748 780.125 255.258 789.523 255.258L789.523 250.258C779.242 250.258 769.144 252.982 760.258 258.154L762.773 262.475Z" fill="#FAFF00"/>
<path d="M938.885 258.65L937.839 256.379L938.885 258.65ZM1047.81 322.758L1045.32 322.467L1045.31 322.612L1045.31 322.758L1047.81 322.758ZM1046.04 871.026C1047.02 872.002 1048.6 872.002 1049.57 871.026L1065.48 855.116C1066.46 854.139 1066.46 852.556 1065.48 851.58C1064.51 850.604 1062.93 850.604 1061.95 851.58L1047.81 865.722L1033.66 851.58C1032.69 850.604 1031.11 850.604 1030.13 851.58C1029.15 852.557 1029.15 854.139 1030.13 855.116L1046.04 871.026ZM961.094 252.281L961.41 254.761L961.094 252.281ZM974.844 250.529L974.528 248.049L974.844 250.529ZM854.546 300.27L939.931 260.92L937.839 256.379L852.454 295.73L854.546 300.27ZM1045.31 322.758L1045.31 869.258L1050.31 869.258L1050.31 322.758L1045.31 322.758ZM961.41 254.761L975.16 253.009L974.528 248.049L960.778 249.801L961.41 254.761ZM975.16 253.009C1015.56 247.863 1050.06 282.016 1045.32 322.467L1050.29 323.049C1055.41 279.37 1018.15 242.492 974.528 248.049L975.16 253.009ZM939.931 260.92C946.735 257.785 953.978 255.708 961.41 254.761L960.778 249.801C952.841 250.812 945.105 253.03 937.839 256.379L939.931 260.92Z" fill="#B7A400"/>
<path d="M317.543 544.461V596H306.469V556.977C305.859 557.516 305.133 558.031 304.289 558.523C303.469 558.992 302.59 559.426 301.652 559.824C300.715 560.199 299.742 560.527 298.734 560.809C297.727 561.066 296.73 561.254 295.746 561.371V552.02C298.629 551.176 301.348 550.098 303.902 548.785C306.457 547.473 308.766 546.031 310.828 544.461H317.543Z" fill="#FF0000"/>
<path d="M1094.32 552.23C1094.32 554.715 1093.88 557.035 1093.02 559.191C1092.15 561.348 1090.94 563.223 1089.39 564.816C1087.85 566.387 1086.01 567.629 1083.88 568.543C1081.74 569.434 1079.41 569.879 1076.88 569.879C1074.04 569.879 1071.5 569.352 1069.25 568.297C1067.02 567.242 1065.14 565.719 1063.59 563.727C1062.04 561.711 1060.86 559.25 1060.04 556.344C1059.22 553.438 1058.81 550.145 1058.81 546.465C1058.81 542.129 1059.34 538.203 1060.39 534.688C1061.47 531.148 1062.99 528.125 1064.96 525.617C1066.95 523.109 1069.36 521.176 1072.17 519.816C1074.98 518.434 1078.14 517.742 1081.66 517.742C1085.55 517.742 1088.57 518.199 1090.73 519.113V528.395C1088.18 526.941 1085.39 526.215 1082.36 526.215C1080.49 526.215 1078.79 526.578 1077.27 527.305C1075.74 528.031 1074.43 529.062 1073.33 530.398C1072.25 531.734 1071.39 533.352 1070.76 535.25C1070.15 537.125 1069.82 539.223 1069.78 541.543H1069.99C1072.38 538.238 1075.91 536.586 1080.57 536.586C1082.66 536.586 1084.54 536.961 1086.23 537.711C1087.92 538.461 1089.36 539.527 1090.55 540.91C1091.75 542.27 1092.68 543.91 1093.33 545.832C1093.99 547.754 1094.32 549.887 1094.32 552.23ZM1083.45 552.934C1083.45 547.52 1081.24 544.812 1076.81 544.812C1075.8 544.812 1074.89 545 1074.07 545.375C1073.25 545.75 1072.54 546.277 1071.96 546.957C1071.37 547.637 1070.91 548.445 1070.59 549.383C1070.28 550.297 1070.13 551.316 1070.13 552.441C1070.13 553.684 1070.29 554.844 1070.62 555.922C1070.95 557 1071.41 557.949 1071.99 558.77C1072.6 559.566 1073.32 560.199 1074.14 560.668C1074.96 561.137 1075.87 561.371 1076.88 561.371C1077.89 561.371 1078.79 561.172 1079.59 560.773C1080.41 560.352 1081.1 559.777 1081.66 559.051C1082.25 558.301 1082.69 557.41 1083 556.379C1083.3 555.324 1083.45 554.176 1083.45 552.934Z" fill="#B7A400"/>
</g>
<defs>
<clipPath id="clip0_71_50">
<rect width="1117" height="1117" fill="white"/>
</clipPath>
</defs>
</svg>
