<svg width="1151" height="1151" viewBox="0 0 1151 1151" fill="none" xmlns="http://www.w3.org/2000/svg">
<path d="M842.904 153.176C773.728 162.186 743.5 187.183 725.77 249.383C719.666 271.473 719.375 274.38 718.503 568.524L717.631 865.575L706.877 872.842C678.102 892.606 648.455 899.582 592.94 899.292C560.386 899.001 544.981 897.548 525.507 892.897C498.767 886.212 469.12 873.132 461.853 864.413C458.366 860.344 457.494 814.129 456.331 555.445L454.878 251.418L446.739 234.851C430.753 202.006 400.525 176.138 365.937 165.384C344.138 158.699 297.342 158.117 270.892 164.221C229.619 174.103 195.612 201.134 183.114 234.851C167.418 276.124 167.709 270.02 166.546 615.32L165.384 935.914H183.114H200.553V632.759C200.553 331.058 201.716 294.435 210.726 262.463C220.318 229.909 245.605 209.273 276.415 209.273C305.19 209.273 321.757 227.875 328.151 267.404C330.186 279.612 331.349 386.864 331.349 571.431C331.349 893.478 329.895 871.97 354.601 899.001C362.158 907.43 376.691 919.056 386.864 924.869L405.466 935.914H536.262H667.057L681.88 927.195C698.448 917.894 732.164 879.818 740.593 861.215C745.244 851.043 745.534 827.499 747.278 571.14C749.022 272.345 748.731 277.286 763.555 248.511C770.531 235.141 778.96 226.712 793.493 219.155C801.34 214.795 810.06 213.633 833.022 213.633C860.634 213.633 862.959 214.214 872.842 221.771C878.946 226.422 887.375 236.885 891.734 245.024L899.582 260.138L900.454 599.334L901.035 938.821H963.527H1026.02V598.753C1026.02 361.577 1025.15 254.325 1022.82 243.57C1010.32 183.695 967.596 154.629 889.409 152.595C869.354 152.013 848.427 152.304 842.904 153.176Z" fill="black"/>
<path d="M547.34 1050.63V1068H535.984V1017.59H553.773C566.477 1017.59 572.828 1022.94 572.828 1033.65C572.828 1038.71 571 1042.82 567.344 1045.96C563.711 1049.07 558.848 1050.63 552.754 1050.63H547.34ZM547.34 1026.3V1042.02H551.805C557.852 1042.02 560.875 1039.37 560.875 1034.07C560.875 1028.89 557.852 1026.3 551.805 1026.3H547.34ZM620.254 1068H607.879L604.293 1056.79H586.363L582.812 1068H570.508L588.859 1017.59H602.324L620.254 1068ZM601.691 1048.07L596.277 1031.12C595.879 1029.86 595.598 1028.34 595.434 1026.59H595.152C595.035 1028.06 594.742 1029.53 594.273 1030.98L588.789 1048.07H601.691Z" fill="#8B704F"/>
<path d="M153.5 312.473L151 312.473L153.5 312.473ZM463.022 289.665L460.522 289.694L463.022 289.665ZM467.752 864.788C468.74 865.753 470.323 865.735 471.288 864.748L487.017 848.659C487.982 847.672 487.964 846.089 486.977 845.124C485.99 844.159 484.407 844.176 483.442 845.164L469.46 859.465L455.159 845.483C454.172 844.518 452.589 844.536 451.624 845.523C450.659 846.511 450.677 848.093 451.664 849.059L467.752 864.788ZM333.135 155.039L332.602 157.481L333.135 155.039ZM357.71 160.4L357.177 162.843L357.71 160.4ZM177.314 227.175L179.452 228.47L177.314 227.175ZM181.569 220.149L179.43 218.854L181.569 220.149ZM256.18 159.693L255.357 157.333L255.357 157.333L256.18 159.693ZM433.629 207.473L435.58 205.909L433.629 207.473ZM156 932L156 312.473L151 312.473L151 932L156 932ZM460.522 289.694L467 863.028L472 862.972L465.522 289.637L460.522 289.694ZM332.602 157.481L357.177 162.843L358.243 157.958L333.668 152.596L332.602 157.481ZM179.452 228.47L183.707 221.443L179.43 218.854L175.175 225.88L179.452 228.47ZM183.707 221.443C200.491 193.727 226.409 172.726 257.004 162.054L255.357 157.333C223.665 168.388 196.816 190.142 179.43 218.854L183.707 221.443ZM357.177 162.843C386.567 169.255 412.866 185.562 431.678 209.036L435.58 205.909C416.052 181.541 388.752 164.614 358.243 157.958L357.177 162.843ZM465.522 289.637C465.177 259.166 454.636 229.689 435.58 205.909L431.678 209.036C450.035 231.943 460.19 260.34 460.522 289.694L465.522 289.637ZM156 312.473C156 282.856 164.111 253.804 179.452 228.47L175.175 225.88C159.361 251.995 151 281.943 151 312.473L156 312.473ZM333.668 152.596C307.628 146.914 280.523 148.554 255.357 157.333L257.004 162.054C281.298 153.579 307.464 151.996 332.602 157.481L333.668 152.596Z" fill="#FF0000"/>
<path d="M710.5 766.04L708 766.04L710.5 766.04ZM710.5 290.25L713 290.25L710.5 290.25ZM1031 278.716L1033.5 278.716L1031 278.716ZM1029.23 939.768C1030.21 940.744 1031.79 940.744 1032.77 939.768L1048.68 923.858C1049.65 922.881 1049.65 921.299 1048.68 920.322C1047.7 919.346 1046.12 919.346 1045.14 920.322L1031 934.464L1016.86 920.322C1015.88 919.346 1014.3 919.346 1013.32 920.322C1012.35 921.299 1012.35 922.881 1013.32 923.858L1029.23 939.768ZM574.65 881.414L574.245 883.881L574.245 883.881L574.65 881.414ZM924.259 148.459L923.457 150.826L924.259 148.459ZM941.871 154.424L941.069 156.792L941.871 154.424ZM729.362 220.878L727.207 219.612L727.207 219.612L729.362 220.878ZM731.957 216.459L734.113 217.725L734.113 217.725L731.957 216.459ZM816.617 152.984L816.006 150.56L816.617 152.984ZM846.831 145.371L847.442 147.795L846.831 145.371ZM1003.15 197.881L1005.12 196.341L1003.15 197.881ZM618.149 880.347L617.624 877.903L617.624 877.903L618.149 880.347ZM713 766.04L713 290.25L708 290.25L708 766.04L713 766.04ZM1028.5 278.716L1028.5 938L1033.5 938L1033.5 278.716L1028.5 278.716ZM498.595 871.467L574.245 883.881L575.054 878.947L499.405 866.533L498.595 871.467ZM923.457 150.826L941.069 156.792L942.673 152.056L925.061 146.091L923.457 150.826ZM731.518 222.144L734.113 217.725L729.802 215.193L727.207 219.612L731.518 222.144ZM817.228 155.409L847.442 147.795L846.22 142.946L816.006 150.56L817.228 155.409ZM734.113 217.725C752.355 186.66 782.296 164.212 817.228 155.409L816.006 150.56C779.775 159.691 748.721 182.974 729.802 215.193L734.113 217.725ZM941.069 156.792C964.832 164.84 985.724 179.657 1001.18 199.421L1005.12 196.341C989.063 175.81 967.359 160.417 942.673 152.056L941.069 156.792ZM925.061 146.091C899.631 137.477 872.255 136.386 846.22 142.946L847.442 147.795C872.544 141.469 898.938 142.522 923.457 150.826L925.061 146.091ZM574.245 883.881C588.992 886.301 604.063 885.932 618.674 882.791L617.624 877.903C603.624 880.912 589.184 881.266 575.054 878.947L574.245 883.881ZM1033.5 278.716C1033.5 248.859 1023.51 219.861 1005.12 196.341L1001.18 199.421C1018.88 222.061 1028.5 249.975 1028.5 278.716L1033.5 278.716ZM708 766.04C708 819.966 670.346 866.572 617.624 877.903L618.674 882.791C673.701 870.966 713 822.323 713 766.04L708 766.04ZM713 290.25C713 266.305 719.393 242.793 731.518 222.144L727.207 219.612C714.63 241.029 708 265.415 708 290.25L713 290.25Z" fill="#52FF00"/>
<path d="M131.543 567.461V619H120.469V579.977C119.859 580.516 119.133 581.031 118.289 581.523C117.469 581.992 116.59 582.426 115.652 582.824C114.715 583.199 113.742 583.527 112.734 583.809C111.727 584.066 110.73 584.254 109.746 584.371V575.02C112.629 574.176 115.348 573.098 117.902 571.785C120.457 570.473 122.766 569.031 124.828 567.461H131.543Z" fill="#FF0000"/>
<path d="M681.375 609.789H702.75V619H669.211V615.203C669.211 612.625 669.645 610.316 670.512 608.277C671.379 606.215 672.469 604.375 673.781 602.758C675.094 601.117 676.523 599.676 678.07 598.434C679.641 597.168 681.129 596.031 682.535 595.023C684.012 593.969 685.301 592.961 686.402 592C687.527 591.039 688.465 590.09 689.215 589.152C689.988 588.191 690.562 587.23 690.938 586.27C691.312 585.285 691.5 584.242 691.5 583.141C691.5 580.984 690.891 579.355 689.672 578.254C688.453 577.152 686.59 576.602 684.082 576.602C679.746 576.602 675.598 578.324 671.637 581.77V571.996C676.02 569.16 680.965 567.742 686.473 567.742C689.027 567.742 691.312 568.082 693.328 568.762C695.367 569.418 697.09 570.367 698.496 571.609C699.902 572.852 700.969 574.363 701.695 576.145C702.445 577.902 702.82 579.871 702.82 582.051C702.82 584.371 702.457 586.434 701.73 588.238C701.027 590.043 700.078 591.684 698.883 593.16C697.711 594.637 696.352 595.996 694.805 597.238C693.258 598.457 691.652 599.641 689.988 600.789C688.863 601.586 687.773 602.383 686.719 603.18C685.688 603.953 684.773 604.727 683.977 605.5C683.18 606.25 682.547 606.988 682.078 607.715C681.609 608.441 681.375 609.133 681.375 609.789Z" fill="#52FF00"/>
</svg>
