<svg width="1121" height="1125" viewBox="0 0 1121 1125" fill="none" xmlns="http://www.w3.org/2000/svg">
<path d="M684.104 222.78C621.445 241.392 552.912 268.821 498.086 296.74C480.708 305.801 465.778 313.393 464.799 313.883C464.065 314.128 462.596 304.822 461.862 293.067C459.904 264.413 452.561 240.657 442.77 232.576C427.106 219.351 384.028 226.698 344.867 248.984C336.3 253.882 305.46 273.719 276.579 292.822C229.829 323.924 223.466 329.067 218.57 338.863C212.941 349.884 211.228 358.455 214.899 358.455C216.123 358.455 245.494 342.537 280.495 322.945C316.474 302.618 345.846 287.434 348.783 287.924C358.573 289.393 360.776 300.169 362.489 358.455C363.468 388.823 364.447 519.601 364.447 649.155L364.692 884.996H413.644H462.596V618.542C462.596 367.517 462.841 351.598 467.002 348.17C483.156 333.72 608.962 286.454 639.313 283.27C656.446 281.556 663.054 285.23 671.131 300.414L676.761 310.7L677.495 597.725L677.985 884.996H730.608H783.231L782.742 572.01C782.008 240.413 782.252 250.943 770.259 233.555C760.469 218.861 753.126 215.188 732.321 214.698C716.657 213.963 708.58 215.432 684.104 222.78Z" fill="black"/>
<path d="M559.727 1014H546.684L538.844 1001.03C538.258 1000.04 537.695 999.164 537.156 998.391C536.617 997.617 536.066 996.961 535.504 996.422C534.965 995.859 534.391 995.438 533.781 995.156C533.195 994.852 532.551 994.699 531.848 994.699H528.789V1014H517.434V963.586H535.434C547.668 963.586 553.785 968.156 553.785 977.297C553.785 979.055 553.516 980.684 552.977 982.184C552.438 983.66 551.676 984.996 550.691 986.191C549.707 987.387 548.512 988.418 547.105 989.285C545.723 990.152 544.176 990.832 542.465 991.324V991.465C543.215 991.699 543.941 992.086 544.645 992.625C545.348 993.141 546.027 993.75 546.684 994.453C547.34 995.156 547.961 995.918 548.547 996.738C549.156 997.535 549.707 998.32 550.199 999.094L559.727 1014ZM528.789 972.094V986.121H533.711C536.148 986.121 538.105 985.418 539.582 984.012C541.082 982.582 541.832 980.812 541.832 978.703C541.832 974.297 539.195 972.094 533.922 972.094H528.789ZM608.805 1014H596.43L592.844 1002.79H574.914L571.363 1014H559.059L577.41 963.586H590.875L608.805 1014ZM590.242 994.066L584.828 977.121C584.43 975.855 584.148 974.344 583.984 972.586H583.703C583.586 974.062 583.293 975.527 582.824 976.98L577.34 994.066H590.242Z" fill="#8B704F"/>
<path d="M339.225 303.801L338.046 301.597L339.225 303.801ZM351 310.855L353.5 310.855L351 310.855ZM349.232 886.768C350.208 887.744 351.791 887.744 352.768 886.768L368.678 870.858C369.654 869.882 369.654 868.299 368.678 867.322C367.701 866.346 366.118 866.346 365.142 867.322L351 881.464L336.858 867.322C335.881 866.346 334.299 866.346 333.322 867.322C332.346 868.299 332.346 869.882 333.322 870.858L349.232 886.768ZM224.18 368.204L340.405 306.006L338.046 301.597L221.82 363.796L224.18 368.204ZM348.5 310.855L348.5 885L353.5 885L353.5 310.855L348.5 310.855ZM340.405 306.006C344.069 304.045 348.5 306.699 348.5 310.855L353.5 310.855C353.5 302.922 345.04 297.854 338.046 301.597L340.405 306.006Z" fill="#FF0000"/>
<path d="M795 285.502L797.5 285.502L795 285.502ZM793.232 886.768C794.209 887.744 795.791 887.744 796.768 886.768L812.678 870.858C813.654 869.882 813.654 868.299 812.678 867.323C811.701 866.346 810.118 866.346 809.142 867.322L795 881.465L780.858 867.322C779.882 866.346 778.299 866.346 777.322 867.323C776.346 868.299 776.346 869.882 777.322 870.858L793.232 886.768ZM676.472 212.207L677.374 214.538L676.472 212.207ZM709.688 206L709.688 203.5L709.688 203.5L709.688 206ZM715.498 206L715.498 208.5L715.498 208.5L715.498 206ZM776.326 234.311L774.413 235.92L776.326 234.311ZM792.5 285.502L792.5 885L797.5 885L797.5 285.502L792.5 285.502ZM473.903 293.331L677.374 214.538L675.569 209.876L472.097 288.669L473.903 293.331ZM709.688 208.5L715.498 208.5L715.498 203.5L709.688 203.5L709.688 208.5ZM677.374 214.538C687.68 210.547 698.637 208.5 709.688 208.5L709.688 203.5C698.019 203.5 686.451 205.662 675.569 209.876L677.374 214.538ZM778.238 232.701C762.658 214.187 739.695 203.5 715.498 203.5L715.498 208.5C738.22 208.5 759.782 218.535 774.413 235.92L778.238 232.701ZM797.5 285.502C797.5 266.182 790.678 247.483 778.238 232.701L774.413 235.92C786.094 249.801 792.5 267.36 792.5 285.502L797.5 285.502Z" fill="#52FF00"/>
<path d="M329.543 606.461V658H318.469V618.977C317.859 619.516 317.133 620.031 316.289 620.523C315.469 620.992 314.59 621.426 313.652 621.824C312.715 622.199 311.742 622.527 310.734 622.809C309.727 623.066 308.73 623.254 307.746 623.371V614.02C310.629 613.176 313.348 612.098 315.902 610.785C318.457 609.473 320.766 608.031 322.828 606.461H329.543Z" fill="#FF0000"/>
<path d="M821.375 648.789H842.75V658H809.211V654.203C809.211 651.625 809.645 649.316 810.512 647.277C811.379 645.215 812.469 643.375 813.781 641.758C815.094 640.117 816.523 638.676 818.07 637.434C819.641 636.168 821.129 635.031 822.535 634.023C824.012 632.969 825.301 631.961 826.402 631C827.527 630.039 828.465 629.09 829.215 628.152C829.988 627.191 830.562 626.23 830.938 625.27C831.312 624.285 831.5 623.242 831.5 622.141C831.5 619.984 830.891 618.355 829.672 617.254C828.453 616.152 826.59 615.602 824.082 615.602C819.746 615.602 815.598 617.324 811.637 620.77V610.996C816.02 608.16 820.965 606.742 826.473 606.742C829.027 606.742 831.312 607.082 833.328 607.762C835.367 608.418 837.09 609.367 838.496 610.609C839.902 611.852 840.969 613.363 841.695 615.145C842.445 616.902 842.82 618.871 842.82 621.051C842.82 623.371 842.457 625.434 841.73 627.238C841.027 629.043 840.078 630.684 838.883 632.16C837.711 633.637 836.352 634.996 834.805 636.238C833.258 637.457 831.652 638.641 829.988 639.789C828.863 640.586 827.773 641.383 826.719 642.18C825.688 642.953 824.773 643.727 823.977 644.5C823.18 645.25 822.547 645.988 822.078 646.715C821.609 647.441 821.375 648.133 821.375 648.789Z" fill="#52FF00"/>
</svg>
