<svg width="1297" height="1297" viewBox="0 0 1297 1297" fill="none" xmlns="http://www.w3.org/2000/svg">
<g clip-path="url(#clip0_71_29)">
<path d="M946.686 184.621C919.381 189.585 885.249 206.031 865.08 223.407C834.052 250.402 810.78 297.565 803.954 348.452C801.782 364.277 800.541 467.913 800.23 640.122C800.23 787.198 798.989 915.036 797.748 924.345C794.645 944.824 788.439 950.719 771.684 947.927C733.829 942.342 649.121 873.148 602.267 810.159L583.34 784.406V561.62C583.34 322.388 582.719 309.977 567.515 277.397C541.761 222.786 469.775 192.688 363.656 192.378C247.919 192.378 184.621 240.162 163.211 344.729C157.626 372.965 157.626 354.348 157.936 722.038L158.246 1027.05H171.899H185.862L187.103 701.869C188.034 412.372 188.655 374.517 193.309 355.279C208.203 292.601 244.817 257.538 306.564 246.368C375.447 234.267 414.233 248.85 438.125 295.704C455.191 330.146 456.122 339.144 456.122 526.867C456.122 628.642 454.881 697.836 453.329 696.905C451.778 695.664 440.608 681.39 428.817 664.635C390.962 611.886 380.412 605.68 345.35 615.92C320.837 623.367 306.253 635.778 294.152 659.981L283.913 681.08V752.446C284.223 807.677 285.464 830.638 289.808 854.841C305.943 943.583 332.938 999.124 368.931 1018.98C384.135 1027.05 388.479 1027.98 429.437 1029.22C496.149 1032.01 528.729 1024.57 554.793 1000.99C569.687 987.333 579.616 965.613 582.409 940.17L584.271 921.553L609.094 948.858C679.218 1024.88 700.318 1036.05 747.171 1022.4C788.439 1009.98 813.263 974.301 829.397 904.487C835.603 877.802 835.913 865.391 837.465 603.508L839.327 330.456L847.704 314.941C852.048 306.253 862.598 292.911 871.286 284.844C898.902 259.09 923.104 251.022 954.753 257.538C969.647 260.641 975.232 264.054 987.023 275.845C1014.64 303.461 1012.78 275.535 1014.02 677.046L1014.95 1030.15H1081.35H1148.06V673.943C1148.06 282.672 1148.37 294.462 1129.13 254.746C1106.17 208.513 1064.28 184.621 999.124 181.518C980.507 180.587 960.959 181.828 946.686 184.621ZM388.169 732.898C394.685 740.035 412.992 767.34 428.507 793.714L457.053 841.188L455.191 891.455C453.019 962.2 447.434 977.094 426.955 967.475C414.233 961.269 401.512 942.342 380.102 898.281C341.626 819.158 333.869 760.824 357.761 728.244C366.759 716.453 374.206 717.694 388.169 732.898Z" fill="black"/>
<path d="M646.453 1180.07V1168.82C648.492 1170.53 650.707 1171.82 653.098 1172.68C655.488 1173.53 657.902 1173.95 660.34 1173.95C661.77 1173.95 663.012 1173.82 664.066 1173.56C665.145 1173.3 666.035 1172.95 666.738 1172.51C667.465 1172.04 668.004 1171.5 668.355 1170.89C668.707 1170.26 668.883 1169.58 668.883 1168.85C668.883 1167.87 668.602 1166.99 668.039 1166.21C667.477 1165.44 666.703 1164.73 665.719 1164.07C664.758 1163.41 663.609 1162.78 662.273 1162.17C660.938 1161.56 659.496 1160.94 657.949 1160.31C654.012 1158.67 651.07 1156.66 649.125 1154.3C647.203 1151.93 646.242 1149.07 646.242 1145.72C646.242 1143.09 646.77 1140.84 647.824 1138.97C648.879 1137.07 650.309 1135.51 652.113 1134.29C653.941 1133.07 656.051 1132.18 658.441 1131.62C660.832 1131.04 663.363 1130.74 666.035 1130.74C668.66 1130.74 670.98 1130.91 672.996 1131.23C675.035 1131.54 676.91 1132.02 678.621 1132.68V1143.19C677.777 1142.6 676.852 1142.09 675.844 1141.64C674.859 1141.2 673.84 1140.83 672.785 1140.55C671.73 1140.25 670.676 1140.02 669.621 1139.88C668.59 1139.74 667.605 1139.67 666.668 1139.67C665.379 1139.67 664.207 1139.8 663.152 1140.06C662.098 1140.29 661.207 1140.63 660.48 1141.08C659.754 1141.52 659.191 1142.06 658.793 1142.7C658.395 1143.3 658.195 1144 658.195 1144.77C658.195 1145.61 658.418 1146.38 658.863 1147.05C659.309 1147.71 659.941 1148.34 660.762 1148.95C661.582 1149.54 662.578 1150.12 663.75 1150.71C664.922 1151.27 666.246 1151.86 667.723 1152.47C669.738 1153.31 671.543 1154.21 673.137 1155.18C674.754 1156.11 676.137 1157.18 677.285 1158.38C678.434 1159.57 679.312 1160.94 679.922 1162.49C680.531 1164.01 680.836 1165.79 680.836 1167.83C680.836 1170.64 680.297 1173.01 679.219 1174.93C678.164 1176.83 676.723 1178.38 674.895 1179.57C673.066 1180.75 670.934 1181.59 668.496 1182.11C666.082 1182.62 663.527 1182.88 660.832 1182.88C658.066 1182.88 655.43 1182.64 652.922 1182.18C650.438 1181.71 648.281 1181 646.453 1180.07ZM733.465 1182H721.09L717.504 1170.79H699.574L696.023 1182H683.719L702.07 1131.59H715.535L733.465 1182ZM714.902 1162.07L709.488 1145.12C709.09 1143.86 708.809 1142.34 708.645 1140.59H708.363C708.246 1142.06 707.953 1143.53 707.484 1144.98L702 1162.07H714.902Z" fill="#8B704F"/>
<path d="M338.226 185L338.226 187.5L338.226 187.5L338.226 185ZM414.134 185L414.134 187.5L414.134 185ZM590.5 361.366L588 361.366L588 361.366L590.5 361.366ZM588.732 787.767C589.709 788.744 591.291 788.744 592.268 787.767L608.178 771.858C609.154 770.881 609.154 769.298 608.178 768.322C607.201 767.346 605.618 767.346 604.642 768.322L590.5 782.464L576.358 768.322C575.382 767.346 573.799 767.346 572.822 768.322C571.846 769.298 571.846 770.881 572.822 771.858L588.732 787.767ZM148 394.522L150.5 394.522L148 394.522ZM163.983 312.597L166.3 313.536L163.983 312.597ZM169.699 298.505L167.382 297.565L169.699 298.505ZM269.43 198.514L270.375 200.829L269.43 198.514ZM522.911 222.54L524.453 220.572L522.911 222.54ZM338.226 187.5L414.134 187.5L414.134 182.5L338.226 182.5L338.226 187.5ZM588 361.366L588 786L593 786L593 361.366L588 361.366ZM150.5 1026L150.5 394.522L145.5 394.522L145.5 1026L150.5 1026ZM166.3 313.536L172.016 299.444L167.382 297.565L161.666 311.657L166.3 313.536ZM172.016 299.444C190.179 254.665 225.643 219.109 270.375 200.829L268.484 196.2C222.505 214.99 186.052 251.537 167.382 297.565L172.016 299.444ZM150.5 394.522C150.5 366.761 155.865 339.261 166.3 313.536L161.666 311.657C150.989 337.979 145.5 366.116 145.5 394.522L150.5 394.522ZM521.369 224.508C563.43 257.465 588 307.932 588 361.366L593 361.366C593 306.395 567.723 254.477 524.453 220.572L521.369 224.508ZM414.134 187.5C453.011 187.5 490.767 200.53 521.369 224.508L524.453 220.572C492.971 195.905 454.129 182.5 414.134 182.5L414.134 187.5ZM338.226 182.5C314.31 182.5 290.623 187.153 268.484 196.2L270.375 200.829C291.914 192.027 314.959 187.5 338.226 187.5L338.226 182.5Z" fill="#FF0000"/>
<path d="M724.589 909.734L725.79 907.541L724.589 909.734ZM778.701 941.4C780.026 941.013 780.787 939.625 780.4 938.3L774.093 916.702C773.706 915.376 772.318 914.616 770.992 915.003C769.667 915.39 768.906 916.778 769.293 918.103L774.9 937.302L755.702 942.908C754.376 943.295 753.616 944.683 754.003 946.009C754.39 947.334 755.778 948.095 757.103 947.708L778.701 941.4ZM464.955 693.382L463.328 695.281L464.955 693.382ZM688.036 884.469L689.663 882.571L688.036 884.469ZM407.727 626.366L409.696 624.825L409.696 624.825L407.727 626.366ZM438.767 666.014L440.736 664.473L438.767 666.014ZM288.121 650.133L290.311 651.339L288.121 650.133ZM296.275 635.334L294.086 634.128L296.275 635.334ZM284.423 887.494L286.871 886.986L284.423 887.494ZM275.67 845.319L278.118 844.811L275.67 845.319ZM271.491 790.139L268.994 790.005L271.491 790.139ZM276.88 689.442L279.376 689.575L276.88 689.442ZM452.79 1043.59L452.424 1046.06L452.79 1043.59ZM437.814 1041.37L438.18 1038.9L437.814 1041.37ZM318.638 964.923L320.733 963.559L320.733 963.559L318.638 964.923ZM312.34 955.247L310.245 956.611L310.245 956.611L312.34 955.247ZM580.332 970.466L578.013 969.532L580.332 970.466ZM516.867 1035.3L515.884 1033L516.867 1035.3ZM364.12 601.293L364.462 598.816L364.12 601.293ZM723.387 911.926L776.799 941.193L779.202 936.808L725.79 907.541L723.387 911.926ZM463.328 695.281L686.41 886.368L689.663 882.571L466.581 691.483L463.328 695.281ZM405.759 627.907L436.799 667.555L440.736 664.473L409.696 624.825L405.759 627.907ZM290.311 651.339L298.465 636.541L294.086 634.128L285.931 648.926L290.311 651.339ZM286.871 886.986L278.118 844.811L273.222 845.827L281.975 888.002L286.871 886.986ZM273.987 790.272L279.376 689.575L274.383 689.308L268.994 790.005L273.987 790.272ZM453.156 1041.11L438.18 1038.9L437.448 1043.84L452.424 1046.06L453.156 1041.11ZM320.733 963.559L314.435 953.883L310.245 956.611L316.543 966.286L320.733 963.559ZM590.681 938.067L578.013 969.532L582.651 971.399L595.319 939.934L590.681 938.067ZM578.013 969.532C566.52 998.078 544.178 1020.9 515.884 1033L517.85 1037.6C547.361 1024.98 570.664 1001.17 582.651 971.399L578.013 969.532ZM438.18 1038.9C390.045 1031.77 347.279 1004.34 320.733 963.559L316.543 966.286C343.87 1008.27 387.895 1036.51 437.448 1043.84L438.18 1038.9ZM278.118 844.811C274.397 826.885 273.009 808.554 273.987 790.272L268.994 790.005C267.993 808.717 269.414 827.48 273.222 845.827L278.118 844.811ZM285.931 648.926C279.089 661.345 275.141 675.149 274.383 689.308L279.376 689.575C280.093 676.169 283.831 663.098 290.311 651.339L285.931 648.926ZM363.779 603.769C380.375 606.058 395.431 614.715 405.759 627.907L409.696 624.825C398.567 610.61 382.345 601.283 364.462 598.816L363.779 603.769ZM466.581 691.483C457.094 683.357 448.436 674.309 440.736 664.473L436.799 667.555C444.703 677.651 453.59 686.939 463.328 695.281L466.581 691.483ZM364.462 598.816C335.955 594.884 307.973 608.924 294.086 634.128L298.465 636.541C311.353 613.15 337.323 600.12 363.779 603.769L364.462 598.816ZM281.975 888.002C287.046 912.432 296.633 935.7 310.245 956.611L314.435 953.883C301.163 933.494 291.815 910.806 286.871 886.986L281.975 888.002ZM452.424 1046.06C474.596 1049.34 497.243 1046.41 517.85 1037.6L515.884 1033C496.127 1041.45 474.413 1044.26 453.156 1041.11L452.424 1046.06ZM725.79 907.541C712.917 900.488 700.81 892.12 689.663 882.571L686.41 886.368C697.82 896.142 710.212 904.707 723.387 911.926L725.79 907.541Z" fill="#52FF00"/>
<path d="M795 371.706L797.5 371.706L795 371.706ZM933.734 183.898L934.454 186.292L934.454 186.292L933.734 183.898ZM935.58 183.344L934.861 180.949L934.861 180.949L935.58 183.344ZM1159 323.559L1161.5 323.559L1159 323.559ZM1157.23 1027.77C1158.21 1028.74 1159.79 1028.74 1160.77 1027.77L1176.68 1011.86C1177.65 1010.88 1177.65 1009.3 1176.68 1008.32C1175.7 1007.35 1174.12 1007.35 1173.14 1008.32L1159 1022.46L1144.86 1008.32C1143.88 1007.35 1142.3 1007.35 1141.32 1008.32C1140.35 1009.3 1140.35 1010.88 1141.32 1011.86L1157.23 1027.77ZM1025.48 179.096L1024.99 181.547L1025.48 179.096ZM1043.53 182.706L1044.02 180.254L1044.02 180.254L1043.53 182.706ZM1137.79 248.431L1135.66 249.738L1137.79 248.431ZM815.795 283.731L813.557 282.617L815.795 283.731ZM797.5 913L797.5 371.706L792.5 371.706L792.5 913L797.5 913ZM934.454 186.292L936.299 185.738L934.861 180.949L933.015 181.504L934.454 186.292ZM1156.5 323.559L1156.5 1026L1161.5 1026L1161.5 323.559L1156.5 323.559ZM1024.99 181.547L1043.04 185.157L1044.02 180.254L1025.97 176.645L1024.99 181.547ZM1043.04 185.157C1081.55 192.86 1115.11 216.262 1135.66 249.738L1139.92 247.123C1118.65 212.461 1083.9 188.23 1044.02 180.254L1043.04 185.157ZM1161.5 323.559C1161.5 296.576 1154.03 270.121 1139.92 247.123L1135.66 249.738C1149.29 271.949 1156.5 297.5 1156.5 323.559L1161.5 323.559ZM818.033 284.845C841.555 237.602 883.931 201.469 934.454 186.292L933.015 181.504C881.149 197.084 837.684 234.157 813.557 282.617L818.033 284.845ZM797.5 371.706C797.5 341.709 804.659 311.709 818.033 284.845L813.557 282.617C799.843 310.162 792.5 340.924 792.5 371.706L797.5 371.706ZM936.299 185.738C965.073 177.094 995.53 175.655 1024.99 181.547L1025.97 176.645C995.707 170.592 964.419 172.07 934.861 180.949L936.299 185.738Z" fill="#0500FF"/>
<path d="M112.543 511.461V563H101.469V523.977C100.859 524.516 100.133 525.031 99.2891 525.523C98.4688 525.992 97.5898 526.426 96.6523 526.824C95.7148 527.199 94.7422 527.527 93.7344 527.809C92.7266 528.066 91.7305 528.254 90.7461 528.371V519.02C93.6289 518.176 96.3477 517.098 98.9023 515.785C101.457 514.473 103.766 513.031 105.828 511.461H112.543Z" fill="#FF0000"/>
<path d="M668.375 837.789H689.75V847H656.211V843.203C656.211 840.625 656.645 838.316 657.512 836.277C658.379 834.215 659.469 832.375 660.781 830.758C662.094 829.117 663.523 827.676 665.07 826.434C666.641 825.168 668.129 824.031 669.535 823.023C671.012 821.969 672.301 820.961 673.402 820C674.527 819.039 675.465 818.09 676.215 817.152C676.988 816.191 677.562 815.23 677.938 814.27C678.312 813.285 678.5 812.242 678.5 811.141C678.5 808.984 677.891 807.355 676.672 806.254C675.453 805.152 673.59 804.602 671.082 804.602C666.746 804.602 662.598 806.324 658.637 809.77V799.996C663.02 797.16 667.965 795.742 673.473 795.742C676.027 795.742 678.312 796.082 680.328 796.762C682.367 797.418 684.09 798.367 685.496 799.609C686.902 800.852 687.969 802.363 688.695 804.145C689.445 805.902 689.82 807.871 689.82 810.051C689.82 812.371 689.457 814.434 688.73 816.238C688.027 818.043 687.078 819.684 685.883 821.16C684.711 822.637 683.352 823.996 681.805 825.238C680.258 826.457 678.652 827.641 676.988 828.789C675.863 829.586 674.773 830.383 673.719 831.18C672.688 831.953 671.773 832.727 670.977 833.5C670.18 834.25 669.547 834.988 669.078 835.715C668.609 836.441 668.375 837.133 668.375 837.789Z" fill="#52FF00"/>
<path d="M1181.41 679.348V669.68C1184.78 672.141 1188.72 673.371 1193.22 673.371C1196.05 673.371 1198.26 672.762 1199.83 671.543C1201.42 670.324 1202.22 668.625 1202.22 666.445C1202.22 664.195 1201.23 662.461 1199.27 661.242C1197.32 660.023 1194.64 659.414 1191.21 659.414H1186.54V650.906H1190.86C1197.43 650.906 1200.71 648.727 1200.71 644.367C1200.71 640.266 1198.19 638.215 1193.15 638.215C1189.77 638.215 1186.49 639.305 1183.3 641.484V632.414C1186.84 630.633 1190.97 629.742 1195.68 629.742C1200.84 629.742 1204.84 630.902 1207.7 633.223C1210.59 635.543 1212.03 638.555 1212.03 642.258C1212.03 648.844 1208.69 652.969 1202.01 654.633V654.809C1205.57 655.254 1208.38 656.555 1210.45 658.711C1212.51 660.844 1213.54 663.469 1213.54 666.586C1213.54 671.297 1211.82 675.023 1208.37 677.766C1204.93 680.508 1200.17 681.879 1194.1 681.879C1188.89 681.879 1184.66 681.035 1181.41 679.348Z" fill="#0500FF"/>
</g>
<defs>
<clipPath id="clip0_71_29">
<rect width="1297" height="1297" fill="white"/>
</clipPath>
</defs>
</svg>
