<svg width="1348" height="1348" viewBox="0 0 1348 1348" fill="none" xmlns="http://www.w3.org/2000/svg">
<g clip-path="url(#clip0_71_60)">
<path d="M1015.8 345.583C976.669 356.185 934.765 378.399 913.813 399.856C907.755 406.167 901.949 411.468 900.939 411.468C899.929 411.468 897.91 408.187 896.143 403.895C888.822 385.972 857.52 365.778 821.17 355.428C795.421 348.107 746.701 347.602 721.963 354.418C679.806 365.778 644.718 394.303 626.29 431.915C608.367 468.518 608.115 470.286 608.872 588.93L609.63 694.195L648.757 694.952C684.855 695.457 688.894 695.962 700.253 701.768C725.245 714.39 727.012 724.992 728.779 868.879L730.041 981.718L721.71 982.98C716.914 983.737 705.807 985.757 696.719 987.271C687.632 988.786 658.097 990.553 631.086 991.31C591.959 992.32 577.065 991.815 557.88 988.533C521.53 982.222 500.073 970.863 490.228 952.94C486.442 946.124 485.937 921.133 484.674 686.622C483.16 396.07 484.422 413.235 464.227 390.516C444.79 368.302 406.42 355.933 357.952 355.933C315.796 355.933 293.582 364.516 271.367 389.254C264.552 396.575 255.464 410.711 250.668 420.304C234.26 454.887 234.764 444.285 234.764 754.022V1034.98H249.91H265.057L265.561 745.187C266.319 516.481 267.076 453.625 269.6 446.052C271.62 440.751 276.921 431.915 281.97 426.362C303.427 402.633 353.409 403.39 368.555 427.624C382.943 451.101 382.186 435.954 383.701 711.865L384.963 965.562L390.769 980.708C401.876 1010.5 417.274 1021.85 455.645 1028.67C473.82 1031.7 504.869 1032.46 633.863 1032.46H790.12V881.249C790.12 714.894 790.625 720.196 774.217 695.962C757.051 670.214 723.73 656.33 687.632 659.611L671.476 661.126V571.007C671.476 481.897 671.476 480.635 677.282 468.266C684.603 452.615 706.564 432.168 726.507 422.323C738.119 416.517 744.934 415.002 762.352 414.497C809.81 412.478 854.239 434.945 869.889 468.266L875.948 480.888V757.808V1034.98H892.609H909.017L908.007 741.652C907.502 580.094 905.988 445.042 904.978 441.003C903.211 434.44 903.968 433.935 917.095 427.877C940.066 417.779 961.018 413.488 982.223 414.497C1006.2 415.507 1018.83 422.828 1027.66 441.003L1033.72 453.12L1034.48 744.177L1034.98 1034.98H1089.26H1143.53V733.827C1143.53 408.944 1143.78 415.002 1130.15 385.215C1122.58 368.807 1108.44 354.418 1093.29 347.602C1076.63 340.029 1039.78 339.02 1015.8 345.583Z" fill="black"/>
<path d="M655.664 1109.83H641.285V1151H629.895V1109.83H615.586V1100.59H655.664V1109.83ZM706.078 1151H694.688V1130.47H673.805V1151H662.449V1100.59H673.805V1120.7H694.688V1100.59H706.078V1151ZM761.977 1151H749.602L746.016 1139.79H728.086L724.535 1151H712.23L730.582 1100.59H744.047L761.977 1151ZM743.414 1131.07L738 1114.12C737.602 1112.86 737.32 1111.34 737.156 1109.59H736.875C736.758 1111.06 736.465 1112.53 735.996 1113.98L730.512 1131.07H743.414Z" fill="#8B704F"/>
<path d="M525 970L523.545 972.033L523.665 972.119L523.794 972.19L525 970ZM702.153 978.271C702.855 977.082 702.459 975.549 701.27 974.847L681.891 963.415C680.702 962.713 679.169 963.109 678.468 964.298C677.766 965.487 678.161 967.02 679.351 967.721L696.577 977.884L686.414 995.109C685.713 996.299 686.108 997.831 687.297 998.533C688.486 999.234 690.019 998.839 690.721 997.65L702.153 978.271ZM227 440.5L224.615 439.75L224.5 440.116L224.5 440.5L227 440.5ZM492.5 440.5L490.085 441.147L490.17 441.462L490.332 441.745L492.5 440.5ZM345 351L345.289 353.483L345 351ZM523.794 972.19C556.713 990.308 601.086 992.001 636.875 989.306C654.831 987.954 670.752 985.486 682.184 983.357C687.902 982.292 692.501 981.311 695.676 980.595C697.264 980.237 698.495 979.945 699.332 979.742C699.751 979.64 700.071 979.561 700.288 979.506C700.397 979.479 700.479 979.458 700.536 979.444C700.564 979.437 700.585 979.431 700.6 979.428C700.607 979.426 700.613 979.424 700.617 979.423C700.619 979.423 700.621 979.422 700.622 979.422C700.623 979.422 700.624 979.421 700 977.001C699.376 974.58 699.376 974.58 699.375 974.58C699.375 974.58 699.374 974.58 699.373 974.581C699.37 974.581 699.366 974.582 699.36 974.584C699.348 974.587 699.329 974.592 699.304 974.598C699.253 974.611 699.176 974.63 699.074 974.656C698.869 974.707 698.561 974.784 698.154 974.882C697.341 975.079 696.136 975.365 694.576 975.717C691.456 976.421 686.918 977.389 681.269 978.441C669.967 980.546 654.231 982.985 636.5 984.32C600.914 987 557.787 985.192 526.205 967.81L523.794 972.19ZM229.5 1029L229.5 440.5L224.5 440.5L224.5 1029L229.5 1029ZM490.332 441.745C490.551 442.125 490.862 442.974 491.18 444.489C491.486 445.948 491.762 447.836 492.005 450.151C492.49 454.779 492.825 460.946 493.038 468.47C493.464 483.51 493.399 503.788 493.11 527.634C492.532 575.284 491.063 637.139 490.875 699.43C490.687 761.725 491.78 824.589 496.338 874.345C498.617 899.215 501.768 920.902 506.089 937.64C508.249 946.008 510.72 953.213 513.558 958.988C516.382 964.733 519.663 969.255 523.545 972.033L526.455 967.967C523.524 965.87 520.695 962.174 518.045 956.782C515.41 951.42 513.041 944.569 510.93 936.39C506.708 920.032 503.586 898.652 501.318 873.889C496.782 824.38 495.687 761.713 495.875 699.445C496.062 637.174 497.531 575.435 498.109 527.694C498.398 503.845 498.465 483.478 498.036 468.329C497.822 460.758 497.482 454.444 496.977 449.63C496.725 447.225 496.428 445.151 496.073 443.462C495.73 441.829 495.293 440.343 494.668 439.255L490.332 441.745ZM229.385 441.25C237.577 415.183 247.514 395.6 264.719 381.364C281.941 367.113 306.768 357.957 345.289 353.483L344.712 348.517C305.733 353.043 279.81 362.387 261.531 377.511C243.236 392.65 232.923 413.317 224.615 439.75L229.385 441.25ZM345.289 353.483C384.059 348.981 414.117 348.603 437.507 360.299C460.711 371.901 477.919 395.711 490.085 441.147L494.915 439.853C482.581 393.789 464.789 368.349 439.743 355.826C414.884 343.397 383.441 344.019 344.712 348.517L345.289 353.483Z" fill="#FF0000"/>
<path d="M917.197 1036.23C918.154 1037.23 919.737 1037.26 920.732 1036.3L936.951 1020.71C937.946 1019.75 937.977 1018.17 937.02 1017.17C936.063 1016.18 934.481 1016.15 933.486 1017.1L919.069 1030.96L905.207 1016.55C904.25 1015.55 902.667 1015.52 901.672 1016.48C900.677 1017.44 900.646 1019.02 901.602 1020.01L917.197 1036.23ZM596 698L593.5 698L593.5 698L596 698ZM596 472.5L598.5 472.5L598.5 472.5L596 472.5ZM700.5 351L701.284 353.374L700.5 351ZM721 968C723.493 968.184 723.493 968.183 723.493 968.181C723.493 968.179 723.493 968.177 723.493 968.174C723.494 968.167 723.495 968.157 723.496 968.144C723.498 968.118 723.5 968.08 723.504 968.029C723.511 967.927 723.522 967.776 723.537 967.576C723.566 967.176 723.608 966.582 723.662 965.807C723.771 964.257 723.927 961.979 724.118 959.069C724.5 953.248 725.022 944.893 725.582 934.754C726.7 914.479 727.967 887.058 728.561 858.489C729.155 829.93 729.079 800.178 727.502 775.256C726.714 762.797 725.548 751.498 723.892 742.136C722.248 732.844 720.08 725.199 717.153 720.231L712.845 722.769C715.294 726.926 717.344 733.827 718.968 743.007C720.579 752.115 721.73 763.21 722.512 775.572C724.076 800.29 724.155 829.882 723.562 858.385C722.969 886.879 721.705 914.239 720.589 934.479C720.031 944.598 719.51 952.935 719.129 958.741C718.938 961.644 718.782 963.914 718.674 965.458C718.62 966.23 718.578 966.82 718.55 967.217C718.536 967.415 718.525 967.565 718.517 967.666C718.514 967.716 718.511 967.753 718.509 967.778C718.508 967.791 718.507 967.8 718.507 967.807C718.507 967.81 718.507 967.812 718.506 967.813C718.506 967.815 718.506 967.816 721 968ZM835.264 353.173C843.494 357.858 851.329 361.269 858.472 364.671C865.666 368.097 872.235 371.545 878.316 376.392C890.373 386.002 900.912 401.439 909.583 434.141L914.416 432.859C905.586 399.561 894.626 382.998 881.433 372.482C874.889 367.267 867.897 363.622 860.622 360.157C853.297 356.668 845.757 353.392 837.737 348.827L835.264 353.173ZM909.583 434.141C911.699 442.122 913.44 457.464 914.83 478.439C916.214 499.335 917.239 525.609 917.977 555.312C919.453 614.715 919.781 687.75 919.562 758.742C919.343 829.73 918.578 898.658 917.867 949.84C917.511 975.431 917.169 996.584 916.917 1011.34C916.79 1018.72 916.686 1024.5 916.613 1028.43C916.577 1030.4 916.549 1031.9 916.529 1032.92C916.52 1033.42 916.512 1033.81 916.507 1034.06C916.505 1034.19 916.503 1034.29 916.502 1034.35C916.501 1034.39 916.5 1034.41 916.5 1034.43C916.5 1034.43 916.5 1034.44 916.5 1034.44C916.5 1034.45 916.5 1034.45 918.999 1034.5C921.499 1034.55 921.499 1034.55 921.499 1034.54C921.499 1034.54 921.499 1034.53 921.499 1034.52C921.5 1034.51 921.5 1034.48 921.501 1034.45C921.502 1034.39 921.504 1034.29 921.506 1034.16C921.511 1033.9 921.519 1033.52 921.528 1033.01C921.548 1032 921.576 1030.49 921.612 1028.52C921.685 1024.59 921.789 1018.81 921.916 1011.43C922.169 996.665 922.511 975.506 922.866 949.909C923.577 898.716 924.343 829.769 924.562 758.757C924.781 687.749 924.453 614.66 922.975 555.188C922.237 525.454 921.21 499.103 919.819 478.108C918.433 457.192 916.675 441.378 914.416 432.859L909.583 434.141ZM717.153 720.231C711.289 710.275 700.4 704.558 687.974 701.278C675.506 697.987 661.055 697.032 647.455 696.938C633.884 696.844 620.856 697.613 611.511 697.837C606.765 697.95 603.04 697.921 600.535 697.615C599.255 697.459 598.522 697.254 598.174 697.088C597.823 696.921 598.5 697.144 598.5 698L593.5 698C593.5 699.981 594.939 701.086 596.027 701.604C597.118 702.123 598.5 702.404 599.928 702.578C602.839 702.934 606.9 702.948 611.63 702.835C621.238 702.606 633.929 701.844 647.42 701.937C660.882 702.031 674.838 702.982 686.698 706.112C698.599 709.254 707.96 714.475 712.845 722.769L717.153 720.231ZM598.5 698L598.5 472.5L593.5 472.5L593.5 698L598.5 698ZM598.5 472.5C598.5 464.909 601.36 454.8 606.713 443.475C612.043 432.201 619.747 419.927 629.205 408.058C648.158 384.273 673.911 362.416 701.284 353.374L699.716 348.626C671.088 358.083 644.591 380.727 625.295 404.942C615.628 417.073 607.707 429.673 602.193 441.338C596.703 452.95 593.5 463.841 593.5 472.5L598.5 472.5ZM701.284 353.374C756.994 334.969 803.658 335.181 835.264 353.173L837.737 348.827C804.343 329.818 756.006 330.03 699.716 348.626L701.284 353.374Z" fill="#52FF00"/>
<path d="M1151 434.5L1153.5 434.5L1153.5 434.378L1153.49 434.256L1151 434.5ZM1149.23 1036.77C1150.21 1037.74 1151.79 1037.74 1152.77 1036.77L1168.68 1020.86C1169.65 1019.88 1169.65 1018.3 1168.68 1017.32C1167.7 1016.35 1166.12 1016.35 1165.14 1017.32L1151 1031.46L1136.86 1017.32C1135.88 1016.35 1134.3 1016.35 1133.32 1017.32C1132.35 1018.3 1132.35 1019.88 1133.32 1020.86L1149.23 1036.77ZM1050 334.5L1050.33 336.978L1050 334.5ZM1148.5 434.5L1148.5 1035L1153.5 1035L1153.5 434.5L1148.5 434.5ZM911 396C912.776 397.759 912.776 397.759 912.776 397.76C912.776 397.759 912.776 397.76 912.776 397.759C912.776 397.759 912.778 397.757 912.78 397.755C912.784 397.751 912.791 397.744 912.801 397.734C912.821 397.714 912.853 397.682 912.897 397.639C912.985 397.552 913.12 397.42 913.303 397.245C913.668 396.895 914.222 396.373 914.962 395.7C916.443 394.355 918.671 392.407 921.63 390.026C927.548 385.264 936.387 378.772 948.021 371.903C971.29 358.164 1005.72 342.926 1050.33 336.978L1049.67 332.022C1004.28 338.074 969.211 353.586 945.479 367.597C933.613 374.603 924.577 381.236 918.495 386.13C915.454 388.578 913.15 390.591 911.6 391.999C910.825 392.703 910.238 393.257 909.841 393.637C909.643 393.828 909.492 393.975 909.389 394.077C909.337 394.127 909.298 394.167 909.27 394.194C909.256 394.208 909.245 394.219 909.237 394.227C909.234 394.231 909.23 394.234 909.228 394.236C909.227 394.237 909.226 394.239 909.225 394.239C909.224 394.24 909.223 394.241 911 396ZM1050.33 336.978C1072.27 334.053 1089.23 338.689 1102.4 347.165C1115.61 355.673 1125.17 368.16 1132.04 381.168C1138.91 394.171 1143.03 407.579 1145.44 417.763C1146.64 422.848 1147.41 427.113 1147.88 430.098C1148.12 431.591 1148.27 432.763 1148.37 433.556C1148.42 433.953 1148.46 434.256 1148.48 434.456C1148.49 434.556 1148.5 434.631 1148.51 434.679C1148.51 434.704 1148.51 434.721 1148.51 434.732C1148.51 434.737 1148.51 434.741 1148.51 434.743C1148.51 434.744 1148.51 434.745 1148.51 434.745C1148.51 434.745 1148.51 434.745 1151 434.5C1153.49 434.256 1153.49 434.254 1153.49 434.253C1153.49 434.251 1153.49 434.249 1153.49 434.247C1153.49 434.242 1153.49 434.236 1153.48 434.227C1153.48 434.211 1153.48 434.188 1153.48 434.159C1153.47 434.1 1153.46 434.014 1153.45 433.903C1153.43 433.68 1153.39 433.355 1153.33 432.934C1153.23 432.093 1153.06 430.87 1152.82 429.324C1152.34 426.231 1151.54 421.84 1150.31 416.613C1147.84 406.172 1143.59 392.329 1136.46 378.832C1129.33 365.34 1119.26 352.078 1105.1 342.961C1090.89 333.811 1072.73 328.947 1049.67 332.022L1050.33 336.978Z" fill="#0500FF"/>
<path d="M205.543 696.461V748H194.469V708.977C193.859 709.516 193.133 710.031 192.289 710.523C191.469 710.992 190.59 711.426 189.652 711.824C188.715 712.199 187.742 712.527 186.734 712.809C185.727 713.066 184.73 713.254 183.746 713.371V704.02C186.629 703.176 189.348 702.098 191.902 700.785C194.457 699.473 196.766 698.031 198.828 696.461H205.543Z" fill="#FF0000"/>
<path d="M560.375 660.789H581.75V670H548.211V666.203C548.211 663.625 548.645 661.316 549.512 659.277C550.379 657.215 551.469 655.375 552.781 653.758C554.094 652.117 555.523 650.676 557.07 649.434C558.641 648.168 560.129 647.031 561.535 646.023C563.012 644.969 564.301 643.961 565.402 643C566.527 642.039 567.465 641.09 568.215 640.152C568.988 639.191 569.562 638.23 569.938 637.27C570.312 636.285 570.5 635.242 570.5 634.141C570.5 631.984 569.891 630.355 568.672 629.254C567.453 628.152 565.59 627.602 563.082 627.602C558.746 627.602 554.598 629.324 550.637 632.77V622.996C555.02 620.16 559.965 618.742 565.473 618.742C568.027 618.742 570.312 619.082 572.328 619.762C574.367 620.418 576.09 621.367 577.496 622.609C578.902 623.852 579.969 625.363 580.695 627.145C581.445 628.902 581.82 630.871 581.82 633.051C581.82 635.371 581.457 637.434 580.73 639.238C580.027 641.043 579.078 642.684 577.883 644.16C576.711 645.637 575.352 646.996 573.805 648.238C572.258 649.457 570.652 650.641 568.988 651.789C567.863 652.586 566.773 653.383 565.719 654.18C564.688 654.953 563.773 655.727 562.977 656.5C562.18 657.25 561.547 657.988 561.078 658.715C560.609 659.441 560.375 660.133 560.375 660.789Z" fill="#52FF00"/>
<path d="M1164.41 746.348V736.68C1167.78 739.141 1171.72 740.371 1176.22 740.371C1179.05 740.371 1181.26 739.762 1182.83 738.543C1184.42 737.324 1185.22 735.625 1185.22 733.445C1185.22 731.195 1184.23 729.461 1182.27 728.242C1180.32 727.023 1177.64 726.414 1174.21 726.414H1169.54V717.906H1173.86C1180.43 717.906 1183.71 715.727 1183.71 711.367C1183.71 707.266 1181.19 705.215 1176.15 705.215C1172.77 705.215 1169.49 706.305 1166.3 708.484V699.414C1169.84 697.633 1173.97 696.742 1178.68 696.742C1183.84 696.742 1187.84 697.902 1190.7 700.223C1193.59 702.543 1195.03 705.555 1195.03 709.258C1195.03 715.844 1191.69 719.969 1185.01 721.633V721.809C1188.57 722.254 1191.38 723.555 1193.45 725.711C1195.51 727.844 1196.54 730.469 1196.54 733.586C1196.54 738.297 1194.82 742.023 1191.37 744.766C1187.93 747.508 1183.17 748.879 1177.1 748.879C1171.89 748.879 1167.66 748.035 1164.41 746.348Z" fill="#0500FF"/>
</g>
<defs>
<clipPath id="clip0_71_60">
<rect width="1348" height="1348" fill="white"/>
</clipPath>
</defs>
</svg>
