<svg width="1377" height="1377" viewBox="0 0 1377 1377" fill="none" xmlns="http://www.w3.org/2000/svg">
<g clip-path="url(#clip0_71_32)">
<path d="M1037.65 353.018C997.68 363.848 954.875 386.54 933.472 408.458C927.283 414.905 921.352 420.32 920.321 420.32C919.289 420.32 917.227 416.968 915.421 412.584C907.943 394.276 875.968 373.647 838.836 363.074C812.533 355.596 762.765 355.08 737.494 362.043C694.431 373.647 658.588 402.785 639.764 441.207C621.455 478.598 621.197 480.403 621.971 601.6L622.744 709.129L662.714 709.903C699.588 710.419 703.714 710.934 715.318 716.865C740.847 729.758 742.652 740.589 744.457 887.572L745.746 1002.84L737.237 1004.13C732.337 1004.9 720.991 1006.96 711.708 1008.51C702.425 1010.06 672.255 1011.86 644.663 1012.64C604.694 1013.67 589.48 1013.15 569.882 1009.8C532.75 1003.35 510.831 991.749 500.774 973.441C496.906 966.479 496.391 940.95 495.101 701.393C493.554 404.591 494.843 422.125 474.214 398.918C454.359 376.225 415.163 363.59 365.653 363.59C322.589 363.59 299.897 372.357 277.205 397.628C270.243 405.106 260.96 419.547 256.06 429.346C239.299 464.673 239.815 453.843 239.815 770.243V1057.25H255.287H270.759L271.274 761.218C272.048 527.592 272.821 463.384 275.4 455.648C277.463 450.233 282.878 441.207 288.036 435.534C309.954 411.295 361.011 412.069 376.483 436.824C391.182 460.805 390.408 445.333 391.955 727.18L393.244 986.334L399.175 1001.81C410.521 1032.23 426.251 1043.84 465.447 1050.8C484.013 1053.89 515.73 1054.67 647.5 1054.67H807.118V900.207C807.118 730.274 807.634 735.689 790.873 710.934C773.338 684.632 739.3 670.449 702.425 673.802L685.921 675.349V583.291C685.921 492.265 685.921 490.975 691.852 478.34C699.33 462.352 721.765 441.465 742.136 431.409C753.998 425.478 760.96 423.93 778.753 423.415C827.232 421.352 872.616 444.302 888.604 478.34L894.792 491.233V774.111V1057.25H911.811H928.573L927.541 757.608C927.025 592.574 925.478 454.616 924.447 450.491C922.642 443.786 923.415 443.27 936.824 437.082C960.29 426.767 981.693 422.383 1003.35 423.415C1027.85 424.446 1040.74 431.924 1049.77 450.491L1055.96 462.868L1056.73 760.187L1057.25 1057.25H1112.69H1168.13V749.614C1168.13 417.742 1168.39 423.93 1154.46 393.502C1146.73 376.741 1132.29 362.043 1116.81 355.08C1099.8 347.344 1062.15 346.313 1037.65 353.018Z" fill="black"/>
<path d="M685.793 1140.83H671.414V1182H660.023V1140.83H645.715V1131.59H685.793V1140.83ZM731.848 1182H719.473L715.887 1170.79H697.957L694.406 1182H682.102L700.453 1131.59H713.918L731.848 1182ZM713.285 1162.07L707.871 1145.12C707.473 1143.86 707.191 1142.34 707.027 1140.59H706.746C706.629 1142.06 706.336 1143.53 705.867 1144.98L700.383 1162.07H713.285Z" fill="#8B704F"/>
<path d="M233 483.823L235.5 483.823L233 483.823ZM264.513 403.548L266.346 405.249L264.513 403.548ZM274.758 392.511L272.925 390.81L274.758 392.511ZM590.528 999L590.528 996.5L590.528 999ZM727.767 1000.77C728.744 999.791 728.744 998.208 727.767 997.232L711.858 981.322C710.881 980.346 709.298 980.346 708.322 981.322C707.346 982.298 707.346 983.881 708.322 984.858L722.464 999L708.322 1013.14C707.346 1014.12 707.346 1015.7 708.322 1016.68C709.298 1017.65 710.881 1017.65 711.858 1016.68L727.767 1000.77ZM378.431 356.044L378.795 353.571L378.795 353.571L378.431 356.044ZM398.156 358.948L397.792 361.421L398.156 358.948ZM498.947 473.39L496.447 473.439L498.947 473.39ZM507.607 917.68L510.106 917.631L507.607 917.68ZM547.769 987.128L546.48 989.27L547.769 987.128ZM235.5 1056.5L235.5 483.823L230.5 483.823L230.5 1056.5L235.5 1056.5ZM266.346 405.249L276.59 394.212L272.925 390.81L262.681 401.847L266.346 405.249ZM590.528 1001.5L726 1001.5L726 996.5L590.528 996.5L590.528 1001.5ZM378.067 358.517L397.792 361.421L398.521 356.475L378.795 353.571L378.067 358.517ZM496.447 473.439L505.107 917.728L510.106 917.631L501.447 473.341L496.447 473.439ZM505.107 917.728C505.68 947.103 521.305 974.123 546.48 989.27L549.058 984.986C525.357 970.725 510.645 945.286 510.106 917.631L505.107 917.728ZM397.792 361.421C453.629 369.642 495.348 417.011 496.447 473.439L501.447 473.341C500.299 414.471 456.774 365.051 398.521 356.475L397.792 361.421ZM590.528 996.5C575.915 996.5 561.579 992.519 549.058 984.986L546.48 989.27C559.779 997.272 575.007 1001.5 590.528 1001.5L590.528 996.5ZM235.5 483.823C235.5 454.678 246.518 426.61 266.346 405.249L262.681 401.847C241.995 424.134 230.5 453.416 230.5 483.823L235.5 483.823ZM276.59 394.212C302.473 366.326 340.427 352.976 378.067 358.517L378.795 353.571C339.526 347.789 299.928 361.718 272.925 390.81L276.59 394.212Z" fill="#FF0000"/>
<path d="M727.5 769.305L730 769.305L727.5 769.305ZM617.5 690.5L615 690.5L617.5 690.5ZM617.5 478.176L615 478.176L617.5 478.176ZM645.49 407.986L643.676 406.266L643.676 406.266L645.49 407.986ZM671.49 380.572L669.676 378.851L671.49 380.572ZM718.327 352.447L717.661 350.037L718.327 352.447ZM764.107 339.794L764.773 342.204L764.773 342.204L764.107 339.794ZM816.998 339.404L817.628 336.985L816.998 339.404ZM850.893 348.236L850.263 350.655L850.893 348.236ZM937.5 479.409L940 479.409L937.5 479.409ZM935.732 1062.27C936.709 1063.24 938.292 1063.24 939.268 1062.27L955.178 1046.36C956.154 1045.38 956.154 1043.8 955.178 1042.82C954.202 1041.85 952.619 1041.85 951.642 1042.82L937.5 1056.96L923.358 1042.82C922.382 1041.85 920.799 1041.85 919.823 1042.82C918.846 1043.8 918.846 1045.38 919.823 1046.36L935.732 1062.27ZM920.631 413.018L918.265 413.824L920.631 413.018ZM932.044 446.496L934.41 445.689L932.044 446.496ZM677.695 719.5L677.695 717L677.695 719.5ZM646.5 719.5L646.5 722L646.5 719.5ZM702.532 726.135L703.779 723.968L702.532 726.135ZM871.261 355.986L870.123 358.213L871.261 355.986ZM730 990L730 769.305L725 769.305L725 990L730 990ZM620 690.5L620 478.176L615 478.176L615 690.5L620 690.5ZM647.304 409.707L673.304 382.292L669.676 378.851L643.676 406.266L647.304 409.707ZM718.993 354.857L764.773 342.204L763.441 337.385L717.661 350.037L718.993 354.857ZM816.368 341.824L850.263 350.655L851.524 345.817L817.628 336.985L816.368 341.824ZM935 479.409L935 1060.5L940 1060.5L940 479.409L935 479.409ZM918.265 413.824L929.678 447.302L934.41 445.689L922.997 412.211L918.265 413.824ZM677.695 717L646.5 717L646.5 722L677.695 722L677.695 717ZM646.5 717C631.864 717 620 705.136 620 690.5L615 690.5C615 707.897 629.103 722 646.5 722L646.5 717ZM703.779 723.968C695.844 719.403 686.85 717 677.695 717L677.695 722C685.975 722 694.109 724.173 701.285 728.302L703.779 723.968ZM870.123 358.213C892.787 369.791 910.053 389.736 918.265 413.824L922.997 412.211C914.366 386.893 896.218 365.929 872.398 353.76L870.123 358.213ZM940 479.409C940 467.938 938.112 456.546 934.41 445.689L929.678 447.302C933.202 457.64 935 468.487 935 479.409L940 479.409ZM673.304 382.292C685.756 369.162 701.552 359.677 718.993 354.857L717.661 350.037C699.344 355.1 682.753 365.062 669.676 378.851L673.304 382.292ZM764.773 342.204C781.639 337.543 799.435 337.411 816.368 341.824L817.628 336.985C799.845 332.351 781.154 332.489 763.441 337.385L764.773 342.204ZM730 769.305C730 750.59 720.001 733.301 703.779 723.968L701.285 728.302C715.957 736.743 725 752.379 725 769.305L730 769.305ZM850.263 350.655C857.137 352.447 863.797 354.981 870.123 358.213L872.398 353.76C865.749 350.363 858.749 347.7 851.524 345.817L850.263 350.655ZM620 478.176C620 452.699 629.772 428.192 647.304 409.707L643.676 406.266C625.264 425.681 615 451.419 615 478.176L620 478.176Z" fill="#52FF00"/>
<path d="M976.8 366.568L978.208 368.634L976.8 366.568ZM1040.08 343.714L1039.84 341.225L1040.08 343.714ZM1068.61 341.004L1068.37 338.515L1068.61 341.004ZM1177 439.586L1174.5 439.586L1177 439.586ZM1175.23 1057.77C1176.21 1058.74 1177.79 1058.74 1178.77 1057.77L1194.68 1041.86C1195.65 1040.88 1195.65 1039.3 1194.68 1038.32C1193.7 1037.35 1192.12 1037.35 1191.14 1038.32L1177 1052.46L1162.86 1038.32C1161.88 1037.35 1160.3 1037.35 1159.32 1038.32C1158.35 1039.3 1158.35 1040.88 1159.32 1041.86L1175.23 1057.77ZM1149.12 370.702L1147.32 372.441L1149.12 370.702ZM929.908 401.566L978.208 368.634L975.392 364.503L927.091 397.435L929.908 401.566ZM1040.32 346.203L1068.84 343.492L1068.37 338.515L1039.84 341.225L1040.32 346.203ZM1174.5 439.586L1174.5 1056L1179.5 1056L1179.5 439.586L1174.5 439.586ZM1147.32 372.441C1164.75 390.445 1174.5 414.524 1174.5 439.586L1179.5 439.586C1179.5 413.226 1169.25 387.9 1150.91 368.963L1147.32 372.441ZM978.208 368.634C996.686 356.035 1018.05 348.319 1040.32 346.203L1039.84 341.225C1016.74 343.421 994.567 351.429 975.392 364.503L978.208 368.634ZM1068.84 343.492C1098.04 340.718 1126.92 351.37 1147.32 372.441L1150.91 368.963C1129.45 346.8 1099.08 335.597 1068.37 338.515L1068.84 343.492Z" fill="#0500FF"/>
<path d="M206.543 619.461V671H195.469V631.977C194.859 632.516 194.133 633.031 193.289 633.523C192.469 633.992 191.59 634.426 190.652 634.824C189.715 635.199 188.742 635.527 187.734 635.809C186.727 636.066 185.73 636.254 184.746 636.371V627.02C187.629 626.176 190.348 625.098 192.902 623.785C195.457 622.473 197.766 621.031 199.828 619.461H206.543Z" fill="#FF0000"/>
<path d="M582.375 647.789H603.75V657H570.211V653.203C570.211 650.625 570.645 648.316 571.512 646.277C572.379 644.215 573.469 642.375 574.781 640.758C576.094 639.117 577.523 637.676 579.07 636.434C580.641 635.168 582.129 634.031 583.535 633.023C585.012 631.969 586.301 630.961 587.402 630C588.527 629.039 589.465 628.09 590.215 627.152C590.988 626.191 591.562 625.23 591.938 624.27C592.312 623.285 592.5 622.242 592.5 621.141C592.5 618.984 591.891 617.355 590.672 616.254C589.453 615.152 587.59 614.602 585.082 614.602C580.746 614.602 576.598 616.324 572.637 619.77V609.996C577.02 607.16 581.965 605.742 587.473 605.742C590.027 605.742 592.312 606.082 594.328 606.762C596.367 607.418 598.09 608.367 599.496 609.609C600.902 610.852 601.969 612.363 602.695 614.145C603.445 615.902 603.82 617.871 603.82 620.051C603.82 622.371 603.457 624.434 602.73 626.238C602.027 628.043 601.078 629.684 599.883 631.16C598.711 632.637 597.352 633.996 595.805 635.238C594.258 636.457 592.652 637.641 590.988 638.789C589.863 639.586 588.773 640.383 587.719 641.18C586.688 641.953 585.773 642.727 584.977 643.5C584.18 644.25 583.547 644.988 583.078 645.715C582.609 646.441 582.375 647.133 582.375 647.789Z" fill="#52FF00"/>
<path d="M1193.41 676.348V666.68C1196.78 669.141 1200.72 670.371 1205.22 670.371C1208.05 670.371 1210.26 669.762 1211.83 668.543C1213.42 667.324 1214.22 665.625 1214.22 663.445C1214.22 661.195 1213.23 659.461 1211.27 658.242C1209.32 657.023 1206.64 656.414 1203.21 656.414H1198.54V647.906H1202.86C1209.43 647.906 1212.71 645.727 1212.71 641.367C1212.71 637.266 1210.19 635.215 1205.15 635.215C1201.77 635.215 1198.49 636.305 1195.3 638.484V629.414C1198.84 627.633 1202.97 626.742 1207.68 626.742C1212.84 626.742 1216.84 627.902 1219.7 630.223C1222.59 632.543 1224.03 635.555 1224.03 639.258C1224.03 645.844 1220.69 649.969 1214.01 651.633V651.809C1217.57 652.254 1220.38 653.555 1222.45 655.711C1224.51 657.844 1225.54 660.469 1225.54 663.586C1225.54 668.297 1223.82 672.023 1220.37 674.766C1216.93 677.508 1212.17 678.879 1206.1 678.879C1200.89 678.879 1196.66 678.035 1193.41 676.348Z" fill="#0500FF"/>
</g>
<defs>
<clipPath id="clip0_71_32">
<rect width="1377" height="1377" fill="white"/>
</clipPath>
</defs>
</svg>
