<svg width="1101" height="1101" viewBox="0 0 1101 1101" fill="none" xmlns="http://www.w3.org/2000/svg">
<g clip-path="url(#clip0_94_6)">
<path d="M240.352 192.675C200.539 204.226 174.734 236.912 160.48 293.682C156.302 309.656 156.057 331.283 156.057 586.135V861.385H169.573H183.09L184.319 587.364C185.548 336.69 186.039 312.36 189.726 301.055C202.014 264.928 232.979 240.844 266.894 240.844C299.088 240.844 312.851 261.488 317.029 315.554C318.258 331.775 319.486 461.781 319.486 603.83V862.614H393.214H466.696L469.399 872.936C481.687 921.35 507.738 963.621 535.508 980.087C544.601 985.248 549.517 986.476 563.033 986.476C607.27 985.985 645.854 947.401 673.379 875.639C677.311 865.317 680.26 856.47 680.015 855.978C679.523 855.487 668.956 866.3 656.422 879.817C629.143 909.308 616.117 917.664 598.423 917.664C579.991 917.664 566.474 908.816 551.237 886.698C538.212 867.775 530.839 854.75 530.839 850.572C530.839 849.343 539.932 843.445 550.991 837.546C586.626 819.114 618.575 782.742 630.617 747.107C636.761 729.167 636.761 688.617 630.617 675.1C624.473 661.092 608.007 644.626 595.965 639.956C580.482 634.304 544.601 636.27 525.187 643.888C505.526 651.753 488.323 667.727 479.475 686.405C470.628 705.574 467.187 719.582 463.501 752.022L460.552 777.827L436.713 778.564L412.875 779.302V533.543C412.875 362.003 412.137 283.852 410.171 274.758C401.816 234.7 373.799 207.666 328.088 195.378C307.936 189.972 255.589 188.251 240.352 192.675ZM576.304 677.066C591.787 684.439 593.753 701.396 582.203 724.497C569.177 751.039 539.932 775.861 516.585 780.53C509.949 782.005 508.475 781.268 506.509 775.861C498.645 755.463 501.839 717.37 512.653 698.693C524.695 677.803 555.661 667.481 576.304 677.066Z" fill="black"/>
<path d="M656.176 191.446C636.024 197.59 616.118 217.251 607.024 240.106C601.618 253.132 601.126 258.784 600.143 305.233L599.16 356.35H617.838H636.516V320.961C636.516 278.691 641.185 252.394 649.786 243.547C653.964 239.369 659.371 237.403 667.727 236.666C682.227 235.437 689.845 239.123 696.481 250.674C701.15 258.293 701.642 264.191 702.379 307.69L703.362 356.35H725.234H747.107V318.749C747.353 276.97 749.319 263.699 758.412 249.937C767.013 236.912 780.53 231.013 802.649 231.013C822.555 231.013 832.385 235.929 842.216 250.428C856.961 272.301 856.224 257.064 857.699 572.618L858.927 861.385H910.537H962.146L962.883 580.483C963.375 271.809 963.866 279.919 948.629 249.2C939.782 231.013 919.138 210.861 900.952 202.505C878.342 192.183 855.732 188.743 815.92 189.726C774.878 190.709 766.276 193.658 744.158 213.564C732.607 223.886 731.378 224.378 728.921 220.2C722.777 209.387 710.735 198.082 701.642 193.904C691.32 189.234 667.727 188.006 656.176 191.446Z" fill="black"/>
<path d="M155 301.5L152.571 300.908L152.542 301.027L152.524 301.149L155 301.5ZM295.5 186L295.669 183.506L295.585 183.5L295.5 183.5L295.5 186ZM415.5 278.5L417.992 278.295L417.963 277.946L417.84 277.618L415.5 278.5ZM413.698 779.233C414.654 780.228 416.237 780.26 417.232 779.303L433.456 763.713C434.451 762.756 434.483 761.173 433.526 760.178C432.569 759.182 430.987 759.151 429.991 760.108L415.57 773.966L401.713 759.545C400.756 758.549 399.173 758.518 398.178 759.475C397.182 760.431 397.151 762.014 398.107 763.009L413.698 779.233ZM154.999 860.5C157.499 860.458 157.499 860.456 157.499 860.452C157.499 860.448 157.499 860.442 157.499 860.435C157.498 860.42 157.498 860.397 157.497 860.367C157.496 860.306 157.495 860.216 157.493 860.096C157.489 859.856 157.483 859.498 157.475 859.025C157.459 858.079 157.436 856.675 157.406 854.841C157.345 851.172 157.258 845.783 157.15 838.902C156.935 825.142 156.636 805.417 156.304 781.559C155.64 733.843 154.843 669.599 154.312 603.48C153.781 537.359 153.515 469.374 153.914 414.174C154.313 358.872 155.38 316.643 157.475 301.851L152.524 301.149C150.37 316.357 149.312 359.004 148.914 414.138C148.515 469.376 148.781 537.391 149.312 603.52C149.843 669.652 150.64 733.907 151.304 781.629C151.636 805.49 151.935 825.218 152.151 838.981C152.259 845.862 152.346 851.253 152.406 854.923C152.436 856.758 152.46 858.162 152.476 859.109C152.483 859.582 152.49 859.94 152.494 860.18C152.496 860.301 152.497 860.391 152.498 860.452C152.499 860.482 152.499 860.505 152.499 860.52C152.499 860.527 152.5 860.533 152.5 860.537C152.5 860.541 152.5 860.543 154.999 860.5ZM157.429 302.093C172.252 241.314 203.63 213.074 232.658 199.902C261.834 186.662 288.903 188.5 295.5 188.5L295.5 183.5C289.097 183.5 260.915 181.588 230.592 195.349C200.12 209.176 167.747 238.687 152.571 300.908L157.429 302.093ZM295.331 188.494C342.866 191.713 368.942 206.028 384.776 223.432C400.743 240.984 406.564 261.875 413.161 279.382L417.84 277.618C411.436 260.625 405.257 238.516 388.474 220.068C371.558 201.472 344.134 186.787 295.669 183.506L295.331 188.494ZM413.009 278.705C416.997 327.064 417.001 451.674 416 564.353C415.5 620.658 414.75 673.933 414.125 713.132C413.813 732.732 413.532 748.812 413.329 759.992C413.227 765.582 413.145 769.947 413.088 772.914C413.06 774.398 413.038 775.532 413.023 776.295C413.016 776.677 413.01 776.966 413.006 777.159C413.004 777.256 413.003 777.329 413.002 777.378C413.002 777.402 413.001 777.42 413.001 777.432C413.001 777.439 413.001 777.443 413.001 777.446C413.001 777.449 413.001 777.451 415.5 777.5C418 777.55 418 777.549 418 777.545C418 777.542 418 777.538 418 777.532C418 777.519 418.001 777.501 418.001 777.477C418.002 777.428 418.004 777.355 418.005 777.258C418.009 777.064 418.015 776.775 418.022 776.393C418.037 775.629 418.059 774.494 418.088 773.01C418.144 770.041 418.226 765.675 418.328 760.083C418.531 748.9 418.812 732.816 419.125 713.212C419.75 674.005 420.5 620.718 421 564.397C421.999 451.826 422.003 326.936 417.992 278.295L413.009 278.705Z" fill="#FF0000"/>
<path d="M601 804L599.075 802.405L599.075 802.405L601 804ZM639 696L641.5 696L641.5 695.967L641.499 695.934L639 696ZM544 635L544.395 637.468L544 635ZM458 769L455.568 768.422L455.517 768.637L455.504 768.858L458 769ZM544 987L543.828 989.494L543.828 989.494L544 987ZM685.678 856.773C685 855.57 683.476 855.144 682.273 855.822L662.668 866.863C661.465 867.541 661.039 869.065 661.717 870.268C662.394 871.471 663.919 871.897 665.122 871.22L682.548 861.405L692.363 878.831C693.04 880.034 694.565 880.46 695.768 879.783C696.971 879.105 697.397 877.581 696.719 876.378L685.678 856.773ZM536.5 851.5C537.635 853.727 537.636 853.727 537.636 853.727C537.637 853.726 537.637 853.726 537.638 853.726C537.64 853.725 537.642 853.723 537.645 853.722C537.651 853.719 537.66 853.714 537.671 853.709C537.694 853.697 537.727 853.68 537.77 853.658C537.856 853.613 537.983 853.548 538.148 853.462C538.479 853.29 538.964 853.035 539.587 852.703C540.832 852.039 542.63 851.065 544.852 849.817C549.294 847.323 555.435 843.732 562.238 839.343C575.792 830.599 592.183 818.556 602.925 805.595L599.075 802.405C588.839 814.756 572.98 826.463 559.528 835.141C552.828 839.463 546.778 843.001 542.403 845.458C540.217 846.686 538.451 847.642 537.235 848.291C536.627 848.615 536.156 848.862 535.839 849.027C535.68 849.11 535.56 849.172 535.48 849.213C535.44 849.234 535.41 849.249 535.391 849.259C535.381 849.264 535.374 849.267 535.37 849.27C535.367 849.271 535.366 849.272 535.365 849.272C535.364 849.272 535.364 849.273 535.364 849.273C535.364 849.273 535.364 849.273 536.5 851.5ZM602.925 805.595C627.64 775.774 641.5 729.504 641.5 696L636.5 696C636.5 728.496 622.953 773.594 599.075 802.405L602.925 805.595ZM641.499 695.934C640.448 655.994 599.331 623.599 543.604 632.531L544.395 637.468C598.052 628.868 635.552 660.006 636.501 696.066L641.499 695.934ZM543.604 632.531C512.466 637.522 493.921 656.927 481.475 682.28C469.103 707.48 462.58 738.925 455.568 768.422L460.432 769.578C467.516 739.781 473.903 709.048 485.963 684.483C497.948 660.071 515.355 642.123 544.395 637.468L543.604 632.531ZM455.504 768.858C451.977 830.839 467.091 885.317 486.381 924.556C496.025 944.171 506.741 960.036 516.752 971.151C521.755 976.706 526.623 981.121 531.136 984.223C535.605 987.295 539.935 989.226 543.828 989.494L544.172 984.506C541.564 984.326 538.113 982.951 533.969 980.103C529.869 977.284 525.292 973.162 520.467 967.805C510.821 957.095 500.35 941.635 490.869 922.35C471.909 883.786 457.023 830.161 460.496 769.142L455.504 768.858ZM543.828 989.494C595.905 993.086 631.506 959.934 653.889 926.516C665.105 909.772 673.101 892.828 678.292 880.084C680.889 873.707 682.788 868.371 684.04 864.622C684.666 862.747 685.13 861.269 685.439 860.254C685.594 859.747 685.71 859.356 685.788 859.09C685.826 858.957 685.856 858.855 685.876 858.785C685.886 858.75 685.893 858.723 685.899 858.704C685.901 858.695 685.903 858.687 685.905 858.682C685.905 858.68 685.906 858.677 685.907 858.676C685.907 858.674 685.907 858.673 683.5 858C681.092 857.327 681.092 857.327 681.092 857.327C681.092 857.328 681.091 857.329 681.091 857.33C681.09 857.333 681.089 857.338 681.087 857.345C681.083 857.359 681.076 857.382 681.068 857.412C681.05 857.473 681.024 857.566 680.988 857.69C680.915 857.938 680.805 858.309 680.657 858.797C680.36 859.771 679.909 861.208 679.297 863.038C678.075 866.699 676.212 871.933 673.661 878.198C668.555 890.734 660.707 907.353 649.735 923.734C627.744 956.566 593.595 987.914 544.172 984.506L543.828 989.494Z" fill="#52FF00"/>
<path d="M317.809 864.507C317.809 864.507 429.932 868.813 485.5 861C516.111 856.696 508.645 858.013 538.5 850" stroke="#52FF00" stroke-width="5"/>
<path d="M612.5 225.5L610.266 224.379L612.5 225.5ZM692 188.5L691.714 190.984L692 188.5ZM731 261.5L733.5 261.5V261.5L731 261.5ZM729.232 354.768C730.208 355.744 731.791 355.744 732.768 354.768L748.677 338.858C749.654 337.881 749.654 336.298 748.677 335.322C747.701 334.346 746.118 334.346 745.142 335.322L731 349.464L716.858 335.322C715.881 334.346 714.298 334.346 713.322 335.322C712.346 336.298 712.346 337.881 713.322 338.858L729.232 354.768ZM598.999 357C601.495 356.847 601.495 356.847 601.495 356.847C601.495 356.846 601.495 356.845 601.495 356.844C601.494 356.842 601.494 356.838 601.494 356.833C601.493 356.822 601.492 356.806 601.491 356.784C601.488 356.741 601.485 356.675 601.48 356.588C601.47 356.413 601.455 356.153 601.437 355.81C601.4 355.124 601.348 354.111 601.289 352.806C601.172 350.196 601.025 346.421 600.908 341.77C600.675 332.466 600.563 319.667 601.048 305.684C601.534 291.694 602.616 276.557 604.761 262.566C606.913 248.535 610.109 235.838 614.734 226.621L610.266 224.379C605.291 234.292 601.999 247.597 599.819 261.808C597.633 276.06 596.541 291.408 596.051 305.51C595.561 319.62 595.674 332.522 595.91 341.896C596.027 346.584 596.176 350.392 596.295 353.031C596.354 354.351 596.406 355.378 596.444 356.077C596.462 356.426 596.477 356.694 596.488 356.875C596.493 356.965 596.497 357.034 596.5 357.08C596.501 357.103 596.502 357.121 596.503 357.133C596.503 357.139 596.504 357.144 596.504 357.147C596.504 357.149 596.504 357.15 596.504 357.151C596.504 357.152 596.504 357.152 598.999 357ZM614.734 226.621C623.449 209.256 635.554 199.607 648.938 194.641C662.405 189.644 677.34 189.327 691.714 190.984L692.286 186.016C677.519 184.314 661.699 184.573 647.199 189.953C632.616 195.364 619.542 205.894 610.266 224.379L614.734 226.621ZM691.714 190.984C699.965 191.935 706.269 194.593 711.133 198.479C716.006 202.374 719.574 207.615 722.164 213.943C727.384 226.696 728.5 243.503 728.5 261.5L733.5 261.5C733.5 243.497 732.419 225.799 726.791 212.049C723.957 205.125 719.937 199.115 714.254 194.573C708.56 190.023 701.338 187.06 692.286 186.016L691.714 190.984ZM728.5 261.5L728.5 353L733.5 353L733.5 261.5L728.5 261.5Z" fill="#0500FF"/>
<path d="M955.001 261L957.366 260.191L955.001 261ZM965.183 862.716C966.131 863.72 967.713 863.766 968.717 862.818L985.078 847.372C986.082 846.425 986.128 844.842 985.18 843.838C984.232 842.834 982.65 842.789 981.646 843.737L967.102 857.466L953.373 842.923C952.425 841.919 950.843 841.873 949.839 842.821C948.835 843.769 948.789 845.351 949.737 846.355L965.183 862.716ZM784 192.5L784.422 194.964L784 192.5ZM952.635 261.809C955.907 271.382 958.607 287.904 960.78 309.711C962.947 331.448 964.574 358.225 965.768 388.178C968.157 448.079 968.813 520.569 968.626 590.618C968.438 660.662 967.407 728.241 966.423 778.31C965.931 803.344 965.451 824 965.093 838.397C964.915 845.595 964.767 851.229 964.663 855.062C964.612 856.979 964.571 858.446 964.544 859.433C964.53 859.927 964.52 860.301 964.512 860.551C964.509 860.676 964.506 860.771 964.504 860.834C964.503 860.865 964.503 860.889 964.502 860.905C964.502 860.912 964.502 860.918 964.502 860.922C964.502 860.926 964.502 860.928 967.001 861C969.5 861.072 969.5 861.07 969.5 861.066C969.5 861.062 969.5 861.056 969.5 861.048C969.501 861.032 969.501 861.008 969.502 860.976C969.504 860.913 969.507 860.818 969.51 860.693C969.518 860.442 969.528 860.067 969.542 859.573C969.569 858.584 969.61 857.115 969.662 855.197C969.765 851.36 969.913 845.723 970.092 838.521C970.449 824.117 970.93 803.452 971.422 778.409C972.407 728.322 973.438 660.713 973.626 590.632C973.813 520.556 973.157 447.984 970.764 387.979C969.568 357.978 967.937 331.091 965.756 309.215C963.582 287.409 960.844 270.368 957.366 260.191L952.635 261.809ZM734.001 221C736.051 222.43 736.051 222.431 736.05 222.431C736.05 222.431 736.05 222.432 736.05 222.432C736.049 222.433 736.049 222.433 736.049 222.433C736.05 222.432 736.051 222.431 736.053 222.428C736.057 222.422 736.065 222.41 736.077 222.394C736.101 222.36 736.14 222.306 736.195 222.233C736.304 222.085 736.475 221.86 736.707 221.566C737.173 220.977 737.886 220.113 738.852 219.052C740.784 216.927 743.723 214.014 747.707 210.916C755.671 204.725 767.797 197.806 784.422 194.964L783.579 190.036C765.995 193.042 753.122 200.373 744.638 206.969C740.398 210.266 737.251 213.381 735.153 215.687C734.104 216.84 733.316 217.792 732.785 218.465C732.519 218.801 732.317 219.068 732.178 219.256C732.108 219.349 732.055 219.423 732.017 219.476C731.998 219.503 731.983 219.524 731.971 219.539C731.966 219.547 731.961 219.554 731.958 219.559C731.956 219.562 731.954 219.564 731.953 219.566C731.952 219.567 731.952 219.568 731.951 219.568C731.95 219.569 731.95 219.57 734.001 221ZM784.422 194.964C813.54 189.987 849.122 187.427 880.672 195.792C912.086 204.12 939.454 223.243 952.635 261.809L957.366 260.191C943.547 219.757 914.665 199.631 881.954 190.959C849.379 182.323 812.962 185.013 783.579 190.036L784.422 194.964Z" fill="#FAFF00"/>
<path d="M128.543 549.461V601H117.469V561.977C116.859 562.516 116.133 563.031 115.289 563.523C114.469 563.992 113.59 564.426 112.652 564.824C111.715 565.199 110.742 565.527 109.734 565.809C108.727 566.066 107.73 566.254 106.746 566.371V557.02C109.629 556.176 112.348 555.098 114.902 553.785C117.457 552.473 119.766 551.031 121.828 549.461H128.543Z" fill="#FF0000"/>
<path d="M555.406 326.348V316.68C558.781 319.141 562.719 320.371 567.219 320.371C570.055 320.371 572.258 319.762 573.828 318.543C575.422 317.324 576.219 315.625 576.219 313.445C576.219 311.195 575.234 309.461 573.266 308.242C571.32 307.023 568.637 306.414 565.215 306.414H560.539V297.906H564.863C571.426 297.906 574.707 295.727 574.707 291.367C574.707 287.266 572.188 285.215 567.148 285.215C563.773 285.215 560.492 286.305 557.305 288.484V279.414C560.844 277.633 564.969 276.742 569.68 276.742C574.836 276.742 578.844 277.902 581.703 280.223C584.586 282.543 586.027 285.555 586.027 289.258C586.027 295.844 582.688 299.969 576.008 301.633V301.809C579.57 302.254 582.383 303.555 584.445 305.711C586.508 307.844 587.539 310.469 587.539 313.586C587.539 318.297 585.816 322.023 582.371 324.766C578.926 327.508 574.168 328.879 568.098 328.879C562.895 328.879 558.664 328.035 555.406 326.348Z" fill="#0500FF"/>
<path d="M1011.76 472.586V504.367H1017.81V512.664H1011.76V523H1001.64V512.664H979.664V503.98C981.609 501.801 983.625 499.422 985.711 496.844C987.797 494.242 989.812 491.57 991.758 488.828C993.703 486.086 995.508 483.332 997.172 480.566C998.859 477.777 1000.29 475.117 1001.46 472.586H1011.76ZM989.613 504.367H1001.64V486.754C1000.82 488.277 999.926 489.824 998.965 491.395C998.004 492.941 996.996 494.477 995.941 496C994.887 497.5 993.82 498.965 992.742 500.395C991.664 501.801 990.621 503.125 989.613 504.367Z" fill="#FAFF00"/>
<path d="M638.375 639.789H659.75V649H626.211V645.203C626.211 642.625 626.645 640.316 627.512 638.277C628.379 636.215 629.469 634.375 630.781 632.758C632.094 631.117 633.523 629.676 635.07 628.434C636.641 627.168 638.129 626.031 639.535 625.023C641.012 623.969 642.301 622.961 643.402 622C644.527 621.039 645.465 620.09 646.215 619.152C646.988 618.191 647.562 617.23 647.938 616.27C648.312 615.285 648.5 614.242 648.5 613.141C648.5 610.984 647.891 609.355 646.672 608.254C645.453 607.152 643.59 606.602 641.082 606.602C636.746 606.602 632.598 608.324 628.637 611.77V601.996C633.02 599.16 637.965 597.742 643.473 597.742C646.027 597.742 648.312 598.082 650.328 598.762C652.367 599.418 654.09 600.367 655.496 601.609C656.902 602.852 657.969 604.363 658.695 606.145C659.445 607.902 659.82 609.871 659.82 612.051C659.82 614.371 659.457 616.434 658.73 618.238C658.027 620.043 657.078 621.684 655.883 623.16C654.711 624.637 653.352 625.996 651.805 627.238C650.258 628.457 648.652 629.641 646.988 630.789C645.863 631.586 644.773 632.383 643.719 633.18C642.688 633.953 641.773 634.727 640.977 635.5C640.18 636.25 639.547 636.988 639.078 637.715C638.609 638.441 638.375 639.133 638.375 639.789Z" fill="#52FF00"/>
<path d="M524.664 1022.83H510.285V1064H498.895V1022.83H484.586V1013.59H524.664V1022.83ZM575.078 1064H563.688V1043.47H542.805V1064H531.449V1013.59H542.805V1033.7H563.688V1013.59H575.078V1064ZM630.977 1064H618.602L615.016 1052.79H597.086L593.535 1064H581.23L599.582 1013.59H613.047L630.977 1064ZM612.414 1044.07L607 1027.12C606.602 1025.86 606.32 1024.34 606.156 1022.59H605.875C605.758 1024.06 605.465 1025.53 604.996 1026.98L599.512 1044.07H612.414Z" fill="#8B704F"/>
</g>
<defs>
<clipPath id="clip0_94_6">
<rect width="1101" height="1101" fill="white"/>
</clipPath>
</defs>
</svg>
