<svg width="1297" height="1297" viewBox="0 0 1297 1297" fill="none" xmlns="http://www.w3.org/2000/svg">
<g clip-path="url(#clip0_71_35)">
<path d="M964.291 215.979C903.67 227.257 843.614 250.095 774.816 287.596C742.109 305.923 670.492 352.164 655.549 365.134L647.09 372.183L658.368 370.209C678.951 366.262 736.188 368.235 754.234 373.31C778.2 380.077 784.121 385.435 786.94 402.07C790.606 425.19 789.478 876.039 785.813 890.701C782.993 900.569 780.456 904.235 772.561 908.182C746.903 921.434 688.82 930.175 614.383 932.43C554.326 934.122 523.593 931.302 511.187 923.126L504.702 919.178L504.138 619.458L503.292 320.021L497.089 301.694C484.119 263.911 457.051 236.844 420.679 225.565C406.581 221.054 394.457 219.926 366.825 219.926C289.569 219.926 240.791 244.738 215.979 296.618C196.806 336.938 197.369 325.942 197.369 675.286V989.667H212.877H228.103L228.949 671.62C230.076 306.205 227.539 338.912 257.708 308.46C300.002 266.167 354.137 275.472 375.284 328.479L382.051 345.397L382.897 646.244L383.743 946.81L393.329 955.551C417.577 976.697 483.273 987.976 585.06 987.976C661.752 987.976 705.737 983.182 735.342 972.186C755.925 964.573 799.91 922.844 810.625 900.851L817.956 886.471L817.11 627.071C816.264 336.656 817.674 356.675 795.681 350.19C789.76 348.216 776.508 346.807 766.64 346.807C743.237 346.807 745.775 344.833 796.527 320.867C847.843 296.618 883.934 284.776 910.719 282.802C929.61 281.393 932.994 281.957 941.735 288.16C947.092 291.825 953.013 298.028 954.987 301.694C957.806 307.333 958.652 382.615 958.652 649.064V989.667H1019.27H1079.89V630.737C1079.89 238.253 1080.46 252.069 1063.82 236.28C1049.16 222.182 1030.55 216.261 999.536 215.415C984.028 215.133 968.239 215.415 964.291 215.979Z" fill="black"/>
<path d="M659.996 1088.59L646.672 1139H634.086L625.719 1106.66C625.273 1104.97 625.004 1103.08 624.91 1101H624.77C624.559 1103.29 624.254 1105.18 623.855 1106.66L615.277 1139H602.164L588.91 1088.59H601.32L608.422 1122.16C608.727 1123.59 608.949 1125.51 609.09 1127.93H609.301C609.395 1126.12 609.734 1124.15 610.32 1122.02L619.461 1088.59H631.625L639.887 1122.44C640.191 1123.68 640.461 1125.49 640.695 1127.86H640.836C640.93 1126 641.176 1124.13 641.574 1122.23L648.535 1088.59H659.996ZM708.195 1139H695.82L692.234 1127.79H674.305L670.754 1139H658.449L676.801 1088.59H690.266L708.195 1139ZM689.633 1119.07L684.219 1102.12C683.82 1100.86 683.539 1099.34 683.375 1097.59H683.094C682.977 1099.06 682.684 1100.53 682.215 1101.98L676.73 1119.07H689.633Z" fill="#8B704F"/>
<path d="M521 354.156L523.5 354.156L521 354.156ZM519.232 914.768C520.208 915.744 521.791 915.744 522.768 914.768L538.678 898.858C539.654 897.882 539.654 896.299 538.678 895.322C537.701 894.346 536.118 894.346 535.142 895.322L521 909.464L506.858 895.322C505.881 894.346 504.299 894.346 503.322 895.322C502.346 896.299 502.346 897.882 503.322 898.858L519.232 914.768ZM188.5 377.472L186 377.472L188.5 377.472ZM293.175 222.982L292.248 220.66L293.175 222.982ZM313.774 214.759L314.701 217.081L313.774 214.759ZM392.957 205.694L392.584 208.165L392.957 205.694ZM491.384 264.642L489.378 266.133L491.384 264.642ZM202.97 309.613L205.253 310.633L202.97 309.613ZM518.5 354.156L518.5 913L523.5 913L523.5 354.156L518.5 354.156ZM191 988L191 377.472L186 377.472L186 988L191 988ZM294.102 225.303L314.701 217.081L312.848 212.437L292.248 220.66L294.102 225.303ZM392.584 208.165C431.107 213.991 466.149 234.87 489.378 266.133L493.391 263.151C469.367 230.818 433.145 209.242 393.331 203.222L392.584 208.165ZM205.253 310.633C222.642 271.715 254.513 241.106 294.102 225.303L292.248 220.66C251.452 236.945 218.608 268.488 200.688 308.594L205.253 310.633ZM191 377.472C191 354.438 195.857 331.663 205.253 310.633L200.688 308.594C191.005 330.265 186 353.735 186 377.472L191 377.472ZM523.5 354.156C523.5 321.374 512.942 289.464 493.391 263.151L489.378 266.133C508.288 291.584 518.5 322.449 518.5 354.156L523.5 354.156ZM314.701 217.081C339.316 207.255 366.37 204.201 392.584 208.165L393.331 203.222C366.248 199.126 338.295 202.279 312.848 212.437L314.701 217.081Z" fill="#FF0000"/>
<path d="M714.666 901.886L714.492 899.392L714.666 901.886ZM770.5 842.031L773 842.031L770.5 842.031ZM770.5 441.923L773 441.923L770.5 441.923ZM745.957 393.521L747.435 391.504L747.435 391.504L745.957 393.521ZM743.332 391.598L741.854 393.615L741.854 393.615L743.332 391.598ZM707.874 380L707.874 382.5L707.874 380ZM645.232 378.232C644.256 379.209 644.256 380.792 645.232 381.768L661.142 397.678C662.119 398.654 663.702 398.654 664.678 397.678C665.654 396.701 665.654 395.118 664.678 394.142L650.536 380L664.678 365.858C665.654 364.882 665.654 363.299 664.678 362.322C663.702 361.346 662.119 361.346 661.142 362.322L645.232 378.232ZM555.173 915.494L714.84 904.38L714.492 899.392L554.826 910.506L555.173 915.494ZM773 842.031L773 441.923L768 441.923L768 842.031L773 842.031ZM747.435 391.504L744.809 389.581L741.854 393.615L744.48 395.538L747.435 391.504ZM707.874 377.5L647 377.5L647 382.5L707.874 382.5L707.874 377.5ZM744.809 389.581C734.094 381.732 721.157 377.5 707.874 377.5L707.874 382.5C720.094 382.5 731.996 386.393 741.854 393.615L744.809 389.581ZM714.84 904.38C747.594 902.1 773 874.865 773 842.031L768 842.031C768 872.238 744.626 897.295 714.492 899.392L714.84 904.38ZM773 441.923C773 422.003 763.504 403.276 747.435 391.504L744.48 395.538C759.264 406.368 768 423.597 768 441.923L773 441.923Z" fill="#52FF00"/>
<path d="M1093 306.494L1095.5 306.494L1093 306.494ZM1091.23 991.768C1092.21 992.744 1093.79 992.744 1094.77 991.768L1110.68 975.858C1111.65 974.881 1111.65 973.299 1110.68 972.322C1109.7 971.346 1108.12 971.346 1107.14 972.322L1093 986.464L1078.86 972.322C1077.88 971.346 1076.3 971.346 1075.32 972.322C1074.35 973.299 1074.35 974.882 1075.32 975.858L1091.23 991.768ZM768.255 284.122L769.559 286.255L768.255 284.122ZM801.022 267.377L800.057 265.07L801.022 267.377ZM944.197 207.459L945.162 209.765L944.197 207.459ZM1033.47 210.378L1034.58 208.14L1033.47 210.378ZM1090.5 306.494L1090.5 990L1095.5 990L1095.5 306.494L1090.5 306.494ZM650.303 359.133L769.559 286.255L766.951 281.989L647.696 354.867L650.303 359.133ZM801.987 269.683L945.162 209.765L943.232 205.153L800.057 265.07L801.987 269.683ZM769.559 286.255C779.932 279.916 790.773 274.376 801.987 269.683L800.057 265.07C788.608 269.861 777.541 275.517 766.951 281.989L769.559 286.255ZM1032.35 212.616C1067.98 230.342 1090.5 266.704 1090.5 306.494L1095.5 306.494C1095.5 264.806 1071.9 226.711 1034.58 208.14L1032.35 212.616ZM1034.58 208.14C1006.01 193.923 972.67 192.833 943.232 205.153L945.162 209.765C973.261 198.006 1005.08 199.047 1032.35 212.616L1034.58 208.14Z" fill="#0500FF"/>
<path d="M148.543 562.461V614H137.469V574.977C136.859 575.516 136.133 576.031 135.289 576.523C134.469 576.992 133.59 577.426 132.652 577.824C131.715 578.199 130.742 578.527 129.734 578.809C128.727 579.066 127.73 579.254 126.746 579.371V570.02C129.629 569.176 132.348 568.098 134.902 566.785C137.457 565.473 139.766 564.031 141.828 562.461H148.543Z" fill="#FF0000"/>
<path d="M682.375 821.789H703.75V831H670.211V827.203C670.211 824.625 670.645 822.316 671.512 820.277C672.379 818.215 673.469 816.375 674.781 814.758C676.094 813.117 677.523 811.676 679.07 810.434C680.641 809.168 682.129 808.031 683.535 807.023C685.012 805.969 686.301 804.961 687.402 804C688.527 803.039 689.465 802.09 690.215 801.152C690.988 800.191 691.562 799.23 691.938 798.27C692.312 797.285 692.5 796.242 692.5 795.141C692.5 792.984 691.891 791.355 690.672 790.254C689.453 789.152 687.59 788.602 685.082 788.602C680.746 788.602 676.598 790.324 672.637 793.77V783.996C677.02 781.16 681.965 779.742 687.473 779.742C690.027 779.742 692.312 780.082 694.328 780.762C696.367 781.418 698.09 782.367 699.496 783.609C700.902 784.852 701.969 786.363 702.695 788.145C703.445 789.902 703.82 791.871 703.82 794.051C703.82 796.371 703.457 798.434 702.73 800.238C702.027 802.043 701.078 803.684 699.883 805.16C698.711 806.637 697.352 807.996 695.805 809.238C694.258 810.457 692.652 811.641 690.988 812.789C689.863 813.586 688.773 814.383 687.719 815.18C686.688 815.953 685.773 816.727 684.977 817.5C684.18 818.25 683.547 818.988 683.078 819.715C682.609 820.441 682.375 821.133 682.375 821.789Z" fill="#52FF00"/>
<path d="M1109.41 777.348V767.68C1112.78 770.141 1116.72 771.371 1121.22 771.371C1124.05 771.371 1126.26 770.762 1127.83 769.543C1129.42 768.324 1130.22 766.625 1130.22 764.445C1130.22 762.195 1129.23 760.461 1127.27 759.242C1125.32 758.023 1122.64 757.414 1119.21 757.414H1114.54V748.906H1118.86C1125.43 748.906 1128.71 746.727 1128.71 742.367C1128.71 738.266 1126.19 736.215 1121.15 736.215C1117.77 736.215 1114.49 737.305 1111.3 739.484V730.414C1114.84 728.633 1118.97 727.742 1123.68 727.742C1128.84 727.742 1132.84 728.902 1135.7 731.223C1138.59 733.543 1140.03 736.555 1140.03 740.258C1140.03 746.844 1136.69 750.969 1130.01 752.633V752.809C1133.57 753.254 1136.38 754.555 1138.45 756.711C1140.51 758.844 1141.54 761.469 1141.54 764.586C1141.54 769.297 1139.82 773.023 1136.37 775.766C1132.93 778.508 1128.17 779.879 1122.1 779.879C1116.89 779.879 1112.66 779.035 1109.41 777.348Z" fill="#0500FF"/>
</g>
<defs>
<clipPath id="clip0_71_35">
<rect width="1297" height="1297" fill="white"/>
</clipPath>
</defs>
</svg>
