<svg width="1164" height="1164" viewBox="0 0 1164 1164" fill="none" xmlns="http://www.w3.org/2000/svg">
<g clip-path="url(#clip0_71_44)">
<path d="M546.045 237.973C509.832 245.475 478.533 271.341 460.944 307.813C440.509 351.011 441.544 335.232 440.509 617.437L439.475 869.12L428.611 869.379C380.24 870.413 356.96 862.136 344.544 839.632C340.405 832.389 340.147 811.437 338.853 587.173L337.301 342.733L331.352 323.333C318.16 279.619 295.139 249.872 268.237 241.853C241.077 233.835 192.965 239.267 163.219 253.752C124.16 273.152 105.536 307.296 98.2932 372.997C96.7412 388.776 95.7065 497.675 95.7065 667.36V936.373H111.485H127.005L126.488 651.064C126.229 435.077 127.005 363.168 129.333 354.373C133.731 338.336 143.043 320.747 151.837 312.469C167.357 297.725 206.157 287.379 219.349 294.621C227.109 298.76 234.093 313.245 239.525 336.267C243.664 353.856 244.181 380.24 245.475 625.973C246.768 870.931 247.544 897.056 251.424 904.04C264.616 928.096 288.672 936.373 345.579 936.373C369.376 936.373 381.016 935.08 392.915 931.459C424.472 921.629 447.235 901.712 461.461 871.965L469.48 854.893L471.032 609.16C472.067 426.8 473.36 360.323 475.688 351.528C477.499 344.803 482.672 333.163 487.069 325.661C497.416 308.331 516.299 297.467 536.216 297.467C547.597 297.467 550.184 298.501 558.72 307.296C569.584 318.16 575.016 332.904 579.413 363.427C580.965 374.291 582 478.275 582 627.267C582 892.4 582 892.141 595.709 912.835C599.848 919.043 607.349 925.251 615.885 929.648C627.525 935.339 632.957 936.373 652.099 936.373C676.672 936.373 720.904 928.872 746.771 920.595C778.069 910.248 814.024 879.984 827.992 852.048L834.2 839.373L835.493 601.4L836.787 363.427L842.736 349.2C860.067 306.779 891.365 286.861 922.147 298.501C934.563 303.416 941.805 311.435 948.789 329.024C952.928 339.371 953.187 363.685 954.48 638.907L955.773 937.667L1012.16 938.443L1068.29 938.96V644.856C1068.29 471.549 1067 342.475 1065.71 331.093C1060.02 288.155 1047.86 266.685 1021.22 253.752C998.971 242.888 979.571 239.784 945.427 241.336C865.757 245.733 826.699 278.325 809.368 355.925C803.677 381.016 803.419 385.413 802.125 610.453L800.573 839.373L794.883 850.237C789.709 859.549 787.64 861.101 776 863.688C768.757 865.24 752.72 866.533 740.563 866.533C711.333 866.533 698.4 860.843 691.416 845.064C687.019 834.717 686.76 819.456 685.467 579.413L684.173 324.627L678.224 309.883C670.205 289.965 653.651 265.651 642.011 256.597C621.835 240.56 611.229 236.939 583.293 236.421C569.067 235.904 552.253 236.68 546.045 237.973Z" fill="black"/>
<path d="M565.797 1018.59L549.379 1051.07V1069H538.023V1051.28L522.027 1018.59H535L543.121 1037.39C543.262 1037.75 543.648 1039.12 544.281 1041.51H544.422C544.727 1039.82 545.09 1038.5 545.512 1037.54L553.773 1018.59H565.797ZM610.445 1069H598.07L594.484 1057.79H576.555L573.004 1069H560.699L579.051 1018.59H592.516L610.445 1069ZM591.883 1049.07L586.469 1032.12C586.07 1030.86 585.789 1029.34 585.625 1027.59H585.344C585.227 1029.06 584.934 1030.53 584.465 1031.98L578.98 1049.07H591.883Z" fill="#8B704F"/>
<path d="M180.585 242.526L179.832 240.142L180.585 242.526ZM196.56 237.481L195.807 235.097L196.56 237.481ZM90.2741 372.468L92.774 372.491L90.2741 372.468ZM100.133 326.552L97.8439 325.547L100.133 326.552ZM108.681 307.075L106.392 306.07L108.681 307.075ZM346.26 362.109L343.761 362.139L346.26 362.109ZM351.64 808.621L349.14 808.651L351.64 808.621ZM393.847 856.006L393.53 858.486L393.53 858.486L393.847 856.006ZM426.529 861.978C427.621 861.134 427.823 859.564 426.978 858.471L413.221 840.667C412.376 839.575 410.806 839.373 409.714 840.218C408.621 841.062 408.42 842.632 409.264 843.724L421.493 859.55L405.668 871.779C404.575 872.623 404.374 874.193 405.218 875.286C406.062 876.379 407.632 876.58 408.725 875.736L426.529 861.978ZM330.386 301.104L332.71 300.182L330.386 301.104ZM338.037 320.409L335.713 321.33L338.037 320.409ZM271.213 240.836L272.177 238.529L271.213 240.836ZM378.883 851.546L377.791 853.795L378.883 851.546ZM181.338 244.91L197.313 239.865L195.807 235.097L179.832 240.142L181.338 244.91ZM87.5001 931.023L92.774 372.491L87.7742 372.444L82.5003 930.976L87.5001 931.023ZM102.422 327.556L110.971 308.079L106.392 306.07L97.8439 325.547L102.422 327.556ZM343.761 362.139L349.14 808.651L354.14 808.591L348.76 362.079L343.761 362.139ZM393.53 858.486L424.682 862.479L425.318 857.52L394.165 853.526L393.53 858.486ZM328.062 302.025L335.713 321.33L340.361 319.488L332.71 300.182L328.062 302.025ZM270.25 243.143C296.667 254.178 317.513 275.409 328.062 302.025L332.71 300.182C321.664 272.314 299.838 250.084 272.177 238.529L270.25 243.143ZM377.791 853.795C382.749 856.201 388.064 857.785 393.53 858.486L394.165 853.526C389.237 852.894 384.444 851.466 379.974 849.297L377.791 853.795ZM349.14 808.651C349.373 827.91 360.464 845.386 377.791 853.795L379.974 849.297C364.35 841.714 354.349 825.957 354.14 808.591L349.14 808.651ZM92.774 372.491C92.9201 357.015 96.2023 341.729 102.422 327.556L97.8439 325.547C91.3523 340.338 87.9267 356.292 87.7742 372.444L92.774 372.491ZM179.832 240.142C146.997 250.511 120.23 274.54 106.392 306.07L110.971 308.079C124.23 277.868 149.876 254.845 181.338 244.91L179.832 240.142ZM348.76 362.079C348.584 347.488 345.738 333.053 340.361 319.488L335.713 321.33C340.865 334.328 343.592 348.159 343.761 362.139L348.76 362.079ZM197.313 239.865C221.249 232.306 247.088 233.468 270.25 243.143L272.177 238.529C247.925 228.399 220.87 227.183 195.807 235.097L197.313 239.865Z" fill="#FF0000"/>
<path d="M692.831 354.256L690.332 354.311L692.831 354.256ZM702.982 815.454L705.481 815.399L702.982 815.454ZM430 373.151L427.5 373.151L427.5 373.151L430 373.151ZM560.37 229L560.37 231.5L560.37 229ZM565.765 229L565.765 226.5L565.765 229ZM668.306 282.513L670.357 281.084L670.357 281.084L668.306 282.513ZM670.402 285.52L668.351 286.95L668.351 286.95L670.402 285.52ZM442.895 317.856L445.137 318.962L445.137 318.962L442.895 317.856ZM454.145 295.05L456.387 296.155L454.145 295.05ZM744.43 856L744.43 853.5L744.43 856ZM777.768 857.768C778.744 856.792 778.744 855.209 777.768 854.232L761.858 838.322C760.881 837.346 759.298 837.346 758.322 838.322C757.346 839.299 757.346 840.882 758.322 841.858L772.464 856L758.322 870.142C757.346 871.119 757.346 872.701 758.322 873.678C759.298 874.654 760.881 874.654 761.858 873.678L777.768 857.768ZM723.991 850.611L722.758 852.786L722.758 852.786L723.991 850.611ZM488.746 253.11L487.234 251.119L488.746 253.11ZM690.332 354.311L700.482 815.509L705.481 815.399L695.33 354.201L690.332 354.311ZM432.5 825L432.5 373.151L427.5 373.151L427.5 825L432.5 825ZM560.37 231.5L565.765 231.5L565.765 226.5L560.37 226.5L560.37 231.5ZM666.255 283.943L668.351 286.95L672.453 284.09L670.357 281.084L666.255 283.943ZM445.137 318.962L456.387 296.155L451.902 293.944L440.653 316.751L445.137 318.962ZM744.43 858.5L776 858.5L776 853.5L744.43 853.5L744.43 858.5ZM722.758 852.786C729.367 856.532 736.834 858.5 744.43 858.5L744.43 853.5C737.698 853.5 731.08 851.755 725.223 848.436L722.758 852.786ZM456.387 296.155C464.341 280.029 475.936 265.974 490.257 255.101L487.234 251.119C472.295 262.461 460.199 277.122 451.902 293.944L456.387 296.155ZM565.765 231.5C605.821 231.5 643.347 251.084 666.255 283.943L670.357 281.084C646.514 246.883 607.456 226.5 565.765 226.5L565.765 231.5ZM432.5 373.151C432.5 354.358 436.824 335.817 445.137 318.962L440.653 316.751C432.001 334.293 427.5 353.591 427.5 373.151L432.5 373.151ZM700.482 815.509C700.823 830.991 709.285 845.152 722.758 852.786L725.223 848.436C713.283 841.67 705.783 829.12 705.481 815.399L700.482 815.509ZM560.37 226.5C533.957 226.5 508.27 235.147 487.234 251.119L490.257 255.101C510.424 239.789 535.049 231.5 560.37 231.5L560.37 226.5ZM695.33 354.201C694.778 329.088 686.819 304.697 672.453 284.09L668.351 286.95C682.154 306.748 689.8 330.182 690.332 354.311L695.33 354.201Z" fill="#52FF00"/>
<path d="M1080 357.377L1082.5 357.377L1080 357.377ZM1078.23 940.767C1079.21 941.744 1080.79 941.744 1081.77 940.767L1097.68 924.857C1098.65 923.881 1098.65 922.298 1097.68 921.322C1096.7 920.346 1095.12 920.346 1094.14 921.322L1080 935.464L1065.86 921.322C1064.88 920.346 1063.3 920.346 1062.32 921.322C1061.35 922.298 1061.35 923.881 1062.32 924.858L1078.23 940.767ZM798.697 375.917L796.197 375.88L798.697 375.917ZM982.233 235.783L981.536 238.184L982.233 235.783ZM994.668 239.395L995.366 236.995L994.668 239.395ZM1062.86 296.839L1060.62 297.934L1062.86 296.839ZM1068.88 309.188L1071.13 308.093L1068.88 309.188ZM806.96 335.655L804.648 334.703L806.96 335.655ZM818.136 308.493L820.447 309.445L818.136 308.493ZM890.011 244.477L889.333 242.071L890.011 244.477ZM921.697 235.543L921.019 233.137L921.697 235.543ZM1077.5 357.377L1077.5 939L1082.5 939L1082.5 357.377L1077.5 357.377ZM794.5 838.036L801.196 375.953L796.197 375.88L789.5 837.963L794.5 838.036ZM981.536 238.184L993.971 241.796L995.366 236.995L982.931 233.382L981.536 238.184ZM1060.62 297.934L1066.64 310.283L1071.13 308.093L1065.11 295.744L1060.62 297.934ZM809.272 336.606L820.447 309.445L815.824 307.542L804.648 334.703L809.272 336.606ZM890.69 246.883L922.375 237.95L921.019 233.137L889.333 242.071L890.69 246.883ZM820.447 309.445C833.011 278.91 858.91 255.843 890.69 246.883L889.333 242.071C856.075 251.447 828.972 275.587 815.824 307.542L820.447 309.445ZM993.971 241.796C1023.11 250.262 1047.32 270.653 1060.62 297.934L1065.11 295.744C1051.2 267.194 1025.87 245.855 995.366 236.995L993.971 241.796ZM801.196 375.953C801.392 362.446 804.132 349.098 809.272 336.606L804.648 334.703C799.269 347.776 796.402 361.746 796.197 375.88L801.196 375.953ZM1082.5 357.377C1082.5 340.299 1078.61 323.445 1071.13 308.093L1066.64 310.283C1073.78 324.953 1077.5 341.058 1077.5 357.377L1082.5 357.377ZM982.931 233.382C962.722 227.512 941.273 227.427 921.019 233.137L922.375 237.95C941.729 232.493 962.226 232.574 981.536 238.184L982.931 233.382Z" fill="#0500FF"/>
<path d="M74.543 516.461V568H63.4688V528.977C62.8594 529.516 62.1328 530.031 61.2891 530.523C60.4688 530.992 59.5898 531.426 58.6523 531.824C57.7148 532.199 56.7422 532.527 55.7344 532.809C54.7266 533.066 53.7305 533.254 52.7461 533.371V524.02C55.6289 523.176 58.3477 522.098 60.9023 520.785C63.457 519.473 65.7656 518.031 67.8281 516.461H74.543Z" fill="#FF0000"/>
<path d="M403.375 597.789H424.75V607H391.211V603.203C391.211 600.625 391.645 598.316 392.512 596.277C393.379 594.215 394.469 592.375 395.781 590.758C397.094 589.117 398.523 587.676 400.07 586.434C401.641 585.168 403.129 584.031 404.535 583.023C406.012 581.969 407.301 580.961 408.402 580C409.527 579.039 410.465 578.09 411.215 577.152C411.988 576.191 412.562 575.23 412.938 574.27C413.312 573.285 413.5 572.242 413.5 571.141C413.5 568.984 412.891 567.355 411.672 566.254C410.453 565.152 408.59 564.602 406.082 564.602C401.746 564.602 397.598 566.324 393.637 569.77V559.996C398.02 557.16 402.965 555.742 408.473 555.742C411.027 555.742 413.312 556.082 415.328 556.762C417.367 557.418 419.09 558.367 420.496 559.609C421.902 560.852 422.969 562.363 423.695 564.145C424.445 565.902 424.82 567.871 424.82 570.051C424.82 572.371 424.457 574.434 423.73 576.238C423.027 578.043 422.078 579.684 420.883 581.16C419.711 582.637 418.352 583.996 416.805 585.238C415.258 586.457 413.652 587.641 411.988 588.789C410.863 589.586 409.773 590.383 408.719 591.18C407.688 591.953 406.773 592.727 405.977 593.5C405.18 594.25 404.547 594.988 404.078 595.715C403.609 596.441 403.375 597.133 403.375 597.789Z" fill="#52FF00"/>
<path d="M752.406 654.348V644.68C755.781 647.141 759.719 648.371 764.219 648.371C767.055 648.371 769.258 647.762 770.828 646.543C772.422 645.324 773.219 643.625 773.219 641.445C773.219 639.195 772.234 637.461 770.266 636.242C768.32 635.023 765.637 634.414 762.215 634.414H757.539V625.906H761.863C768.426 625.906 771.707 623.727 771.707 619.367C771.707 615.266 769.188 613.215 764.148 613.215C760.773 613.215 757.492 614.305 754.305 616.484V607.414C757.844 605.633 761.969 604.742 766.68 604.742C771.836 604.742 775.844 605.902 778.703 608.223C781.586 610.543 783.027 613.555 783.027 617.258C783.027 623.844 779.688 627.969 773.008 629.633V629.809C776.57 630.254 779.383 631.555 781.445 633.711C783.508 635.844 784.539 638.469 784.539 641.586C784.539 646.297 782.816 650.023 779.371 652.766C775.926 655.508 771.168 656.879 765.098 656.879C759.895 656.879 755.664 656.035 752.406 654.348Z" fill="#0500FF"/>
</g>
<defs>
<clipPath id="clip0_71_44">
<rect width="1164" height="1164" fill="white"/>
</clipPath>
</defs>
</svg>
