<?xml version="1.0" standalone="no"?>
<!DOCTYPE svg PUBLIC "-//W3C//DTD SVG 20010904//EN"
 "http://www.w3.org/TR/2001/REC-SVG-20010904/DTD/svg10.dtd">
<svg version="1.0" xmlns="http://www.w3.org/2000/svg"
 width="722.000000pt" height="544.000000pt" viewBox="0 0 722.000000 544.000000"
 preserveAspectRatio="xMidYMid meet">

<g transform="translate(0.000000,544.000000) scale(0.100000,-0.100000)"
fill="#000000" stroke="none">
<path d="M4566 5328 c-50 -9 -109 -46 -120 -75 -11 -28 3 -26 39 6 46 40 91
42 105 5 6 -14 10 -142 10 -290 l0 -265 43 3 42 3 3 247 2 247 33 25 c37 28
126 59 154 54 17 -3 18 -22 23 -288 l5 -285 50 0 50 0 3 275 c3 299 -1 326
-47 336 -14 3 -31 7 -37 9 -28 8 -132 -23 -176 -53 -26 -18 -49 -32 -52 -32
-2 0 -7 13 -11 29 -11 51 -43 64 -119 49z"/>
<path d="M915 5323 c-11 -3 -31 -15 -43 -26 -50 -46 -52 -59 -52 -332 0 -168
3 -256 10 -253 6 2 11 96 13 253 2 221 4 254 20 278 22 34 74 37 103 6 17 -19
20 -43 24 -238 5 -196 7 -219 25 -243 32 -44 108 -67 155 -47 14 5 37 26 53
46 l27 36 0 211 c0 242 5 261 60 261 54 0 59 -27 59 -315 l0 -245 33 0 33 0 3
277 2 276 41 7 c31 5 45 3 59 -10 18 -17 20 -36 22 -284 l3 -266 45 0 45 0 0
288 0 289 -25 20 c-21 17 -35 20 -88 15 -38 -3 -70 -11 -81 -21 -23 -21 -26
-20 -61 5 -40 30 -115 22 -147 -16 -22 -26 -23 -31 -23 -253 0 -190 -3 -231
-16 -250 -17 -24 -44 -28 -77 -10 -52 27 -52 28 -57 262 -3 122 -9 229 -14
239 -18 37 -87 55 -151 40z"/>
<path d="M2305 5321 c-11 -5 -29 -19 -40 -31 -19 -21 -20 -38 -23 -301 -2
-181 1 -279 7 -279 6 0 11 99 13 271 3 254 4 271 22 285 25 18 57 18 82 0 18
-13 19 -32 24 -283 l5 -268 44 0 43 0 -1 143 -2 142 25 10 c14 5 48 6 76 3
l50 -6 0 -148 0 -149 32 0 c42 0 95 42 119 94 22 49 25 133 5 181 -15 35 -67
75 -97 75 -21 0 -29 20 -29 76 0 94 60 167 133 162 30 -2 45 -10 61 -31 20
-27 21 -44 26 -290 l5 -262 45 0 45 0 3 245 c2 201 0 252 -13 285 -22 60 -62
80 -156 80 -68 0 -79 -3 -113 -29 -49 -37 -66 -79 -66 -165 0 -78 -1 -79 -96
-77 l-49 1 -2 75 c-1 41 -2 87 -2 102 -1 16 -13 42 -29 59 -23 26 -37 32 -78
35 -27 2 -58 0 -69 -5z m401 -362 c36 -39 18 -193 -23 -207 -10 -3 -13 24 -13
112 0 64 4 116 8 116 5 0 17 -9 28 -21z"/>
<path d="M3405 5323 c-31 -8 -61 -40 -74 -81 -15 -47 -11 -528 4 -525 6 2 12
100 15 255 3 139 9 261 13 270 17 34 102 42 124 12 9 -12 13 -58 13 -146 l0
-128 -30 -26 c-105 -94 -38 -277 85 -233 l35 13 0 84 c0 107 11 106 95 -3 34
-44 73 -86 87 -94 22 -13 29 -12 59 5 55 32 59 49 59 257 l0 188 -26 24 c-14
13 -35 25 -47 27 -34 6 47 39 108 45 80 8 79 12 85 -291 l5 -261 50 0 50 0 3
260 c3 276 -3 326 -40 346 -45 24 -185 -13 -297 -79 l-43 -25 52 -14 c29 -7
56 -16 61 -19 5 -3 9 -97 9 -210 l0 -204 -27 6 c-16 4 -44 25 -63 48 -74 87
-125 138 -152 152 l-28 15 0 123 c0 147 -10 183 -56 202 -33 14 -89 17 -129 7z
m85 -458 c0 -67 -2 -75 -19 -75 -19 0 -31 19 -31 48 0 20 36 102 45 102 3 0 5
-34 5 -75z"/>
<path d="M5440 5313 c-19 -10 -45 -36 -57 -58 -22 -39 -23 -49 -23 -293 0
-166 3 -251 10 -247 6 4 10 94 10 238 0 201 2 237 18 267 29 59 112 68 132 14
6 -14 10 -138 10 -275 l0 -249 50 0 50 0 0 145 0 146 63 -3 62 -3 5 -140 c6
-157 10 -164 70 -123 85 58 117 222 55 284 -13 13 -42 26 -65 30 l-42 7 4 84
c3 78 5 87 31 109 41 35 97 33 139 -5 l33 -29 5 -249 5 -248 25 0 25 0 3 252
2 252 31 25 c38 33 52 33 78 0 20 -25 21 -39 21 -281 l0 -254 48 3 47 3 2 275
c3 303 1 318 -54 333 -52 15 -101 0 -141 -43 l-36 -38 -36 39 c-30 34 -43 41
-86 46 -30 3 -67 0 -88 -7 -56 -18 -70 -48 -76 -164 l-5 -101 -44 -7 c-23 -4
-51 -10 -61 -13 -16 -5 -18 4 -22 102 -2 65 -9 116 -17 128 -38 58 -120 80
-181 48z m392 -360 c34 -31 16 -193 -22 -193 -6 0 -10 44 -10 105 0 58 3 105
7 105 3 0 15 -7 25 -17z"/>
<path d="M55 5311 c6 -5 24 -11 40 -13 l30 -3 5 -493 c4 -423 7 -494 20 -502
20 -13 180 -13 180 0 0 6 -15 10 -32 10 -66 0 -63 -30 -68 512 l-5 493 -90 3
c-58 2 -86 -1 -80 -7z"/>
<path d="M315 5310 c3 -5 15 -10 25 -10 53 0 50 27 50 -501 l0 -489 26 -10
c33 -13 161 -13 169 0 4 6 -6 10 -22 10 -16 0 -39 7 -51 16 l-22 15 0 490 0
489 -91 0 c-57 0 -88 -4 -84 -10z"/>
<path d="M6685 5143 c4 -10 22 -56 40 -103 18 -47 43 -107 57 -135 42 -82 44
-95 14 -95 -13 0 -35 4 -48 9 -78 28 -80 20 -8 -29 93 -62 135 -73 161 -39 10
13 19 29 19 36 0 7 -31 59 -68 115 -38 57 -90 138 -116 181 -45 73 -67 99 -51
60z"/>
<path d="M1135 4460 c-3 -5 -3 -15 0 -20 3 -6 9 -38 13 -72 4 -35 12 -63 20
-66 6 -2 12 3 12 11 0 25 34 77 49 75 7 -2 19 -19 25 -38 10 -32 46 -56 46
-31 0 6 -4 11 -10 11 -5 0 -10 9 -10 19 0 11 -10 32 -23 46 l-22 27 -27 -21
c-14 -12 -29 -21 -32 -21 -3 0 -9 18 -12 40 -7 42 -18 58 -29 40z"/>
<path d="M1340 4435 c-18 -22 -25 -102 -10 -120 10 -11 17 -12 34 -3 11 6 24
16 29 22 5 7 11 5 18 -6 18 -31 30 -20 24 20 -12 71 -15 80 -32 85 -10 2 -25
8 -34 11 -9 4 -21 0 -29 -9z m34 -72 c-5 -15 -15 -28 -23 -31 -11 -4 -13 4 -7
38 9 57 17 69 30 41 6 -14 6 -32 0 -48z"/>
<path d="M5700 4355 c0 -52 4 -95 9 -95 5 0 11 5 13 12 3 8 31 11 91 10 75 -1
90 1 107 18 19 19 20 19 30 -1 6 -11 15 -17 21 -14 6 4 5 13 -1 25 -5 10 -10
34 -10 52 0 30 -4 36 -36 47 -47 17 -64 1 -71 -63 l-6 -46 -48 0 c-27 0 -49 4
-49 9 0 5 15 24 32 42 38 37 22 55 -17 19 -31 -29 -45 -18 -45 36 0 24 -4 44
-10 44 -6 0 -10 -38 -10 -95z m220 9 c0 -19 -22 -64 -32 -64 -9 0 -11 61 -2
84 5 13 9 14 20 5 8 -6 14 -17 14 -25z"/>
<path d="M2632 4407 c-15 -18 -23 -99 -10 -114 15 -19 36 -16 55 7 18 20 18
20 36 -2 l19 -23 -6 40 c-3 22 -6 49 -6 60 0 15 -10 25 -33 33 -41 15 -42 15
-55 -1z m48 -43 c0 -19 -22 -64 -32 -64 -9 0 -11 84 -1 93 8 9 33 -12 33 -29z"/>
<path d="M3765 4386 c-22 -34 -17 -110 8 -114 10 -2 27 4 38 14 18 17 20 17
33 -2 21 -28 25 -15 14 46 -9 45 -16 58 -36 68 -35 16 -39 16 -57 -12z m39
-63 c-5 -15 -15 -28 -21 -31 -16 -5 -17 36 -2 75 l11 28 11 -23 c7 -15 7 -32
1 -49z"/>
<path d="M4820 4395 c-7 -8 -13 -38 -14 -67 -1 -47 1 -53 21 -56 12 -2 31 6
42 17 12 12 22 19 22 16 1 -3 2 -10 3 -17 0 -6 7 -13 15 -16 11 -4 13 3 8 34
-4 22 -7 47 -7 56 0 9 -14 24 -32 32 -38 20 -42 20 -58 1z m50 -41 c0 -19 -22
-64 -32 -64 -9 0 -11 61 -2 84 5 13 9 14 20 5 8 -6 14 -17 14 -25z"/>
<path d="M3626 4384 c-13 -34 -6 -83 13 -94 27 -14 54 -13 77 4 26 20 11 32
-17 12 -33 -23 -61 -4 -57 37 2 27 7 31 26 29 25 -4 30 13 6 22 -26 10 -42 7
-48 -10z"/>
<path d="M2452 4338 c4 -65 25 -74 52 -24 18 33 43 52 54 41 3 -2 8 -22 11
-42 7 -45 27 -46 23 -2 -5 66 -41 89 -77 49 -24 -26 -32 -25 -39 5 -11 45 -27
27 -24 -27z"/>
<path d="M4735 4338 c-27 -31 -34 -30 -48 7 -3 6 -7 7 -11 3 -10 -8 4 -98 15
-98 5 0 26 27 48 60 43 64 40 81 -4 28z"/>
<path d="M924 3984 c-12 -3 -36 -18 -55 -33 l-34 -29 -3 -256 c-2 -166 1 -256
7 -256 6 0 11 91 13 246 3 245 3 246 27 265 30 25 62 24 95 -2 l26 -20 0 -223
c0 -258 2 -266 75 -266 35 0 52 7 92 39 26 21 64 55 82 75 19 20 39 36 43 36
4 0 8 -34 8 -76 l0 -77 38 6 c55 9 102 63 102 119 0 64 -29 106 -77 110 l-38
3 -3 100 c-3 118 0 133 32 168 21 22 34 27 75 27 94 0 101 -22 101 -306 l0
-224 56 0 55 0 -3 238 c-3 258 -7 276 -61 316 -40 29 -145 28 -204 -2 -65 -34
-73 -58 -73 -219 l0 -137 -74 -73 c-76 -74 -117 -92 -130 -57 -3 9 -6 112 -6
230 l0 214 -28 31 c-22 24 -37 32 -72 34 -25 2 -54 1 -66 -1z m446 -479 c0
-43 -19 -73 -40 -60 -11 7 -14 103 -3 131 11 30 43 -21 43 -71z"/>
<path d="M2054 3976 c-17 -7 -40 -26 -52 -41 -21 -27 -22 -37 -22 -276 0 -159
4 -249 10 -249 6 0 10 86 10 239 0 226 1 240 21 265 16 20 29 26 59 26 25 0
40 -5 44 -16 3 -9 6 -108 6 -220 0 -226 8 -266 55 -284 15 -6 96 -10 181 -10
l154 0 0 133 c0 152 -5 166 -66 176 l-39 6 -3 87 c-3 84 -2 87 25 108 40 31
117 24 150 -14 23 -27 23 -31 23 -262 0 -184 3 -235 13 -231 9 3 12 63 13 256
0 277 -1 271 61 271 60 0 63 -15 63 -287 l0 -243 50 0 51 0 -3 270 c-4 315 0
305 -97 303 -39 -1 -70 -9 -94 -23 l-37 -22 -28 20 c-27 20 -72 27 -144 24
-26 -2 -47 -11 -73 -36 l-36 -34 3 -103 3 -103 45 -9 c25 -5 51 -16 58 -25 8
-10 12 -52 12 -119 l0 -103 -98 0 c-150 0 -142 -13 -142 239 0 219 -6 261 -43
279 -38 19 -100 23 -133 8z"/>
<path d="M3330 3983 c-41 -7 -87 -35 -104 -64 -14 -23 -16 -64 -16 -268 0
-154 4 -241 10 -241 6 0 10 85 10 236 l0 236 34 34 c30 30 40 34 85 34 39 0
55 -5 71 -22 18 -20 20 -34 20 -157 l-1 -136 -22 28 c-29 35 -81 38 -98 5 -17
-32 -7 -166 16 -203 28 -45 45 -55 91 -55 59 0 93 15 104 46 l10 26 40 -36
c48 -43 86 -47 127 -12 l28 24 3 224 c4 255 6 261 76 256 63 -5 66 -16 66
-290 l0 -238 45 0 45 0 0 261 0 261 -29 29 c-27 26 -36 29 -95 29 -58 0 -69
-3 -98 -29 l-33 -29 -3 -225 c-4 -261 -6 -267 -72 -223 -22 15 -54 41 -70 58
l-30 31 0 154 c0 172 -10 212 -57 236 -31 16 -114 27 -153 20z m83 -403 c22
-32 28 -49 25 -82 -4 -57 -26 -56 -55 2 -29 56 -31 121 -4 120 3 0 19 -18 34
-40z"/>
<path d="M4395 3975 c-22 -8 -45 -22 -52 -32 -16 -21 -19 -533 -3 -533 6 0 10
88 10 243 0 231 1 244 20 265 28 30 83 30 104 0 13 -19 16 -60 16 -250 l0
-228 24 -16 c21 -13 50 -15 169 -12 103 2 149 7 160 17 15 12 17 41 17 233 0
185 -2 220 -15 224 -8 4 -15 10 -15 16 0 16 70 39 108 36 l37 -3 3 -262 2
-263 50 0 50 0 0 274 c0 325 4 312 -98 303 -35 -4 -69 -10 -76 -15 -6 -4 -29
-14 -51 -21 -22 -8 -60 -27 -85 -42 -40 -26 -42 -29 -20 -30 54 -2 72 -6 81
-20 5 -8 9 -92 9 -187 0 -232 -5 -241 -137 -242 -117 0 -113 -9 -113 262 0
119 -4 228 -10 242 -19 51 -103 70 -185 41z"/>
<path d="M5510 3977 c-19 -7 -44 -27 -57 -46 -22 -33 -23 -40 -23 -277 0 -210
2 -244 15 -244 13 0 15 34 15 243 0 224 2 245 18 260 26 24 49 21 77 -8 l25
-24 0 -236 0 -235 30 0 30 0 0 249 c0 247 0 250 22 265 28 20 58 20 84 2 18
-13 19 -30 21 -248 3 -284 -3 -272 136 -266 74 2 91 6 103 22 11 16 14 65 14
233 0 214 0 214 25 238 31 32 78 33 99 3 13 -19 16 -61 16 -260 l0 -238 50 0
50 0 0 235 c0 257 -5 288 -55 321 -59 39 -162 13 -198 -49 -8 -15 -14 -95 -17
-252 l-5 -230 -50 -2 c-87 -5 -85 -12 -88 270 -2 221 -4 248 -20 264 -25 25
-108 21 -148 -8 l-30 -21 -22 20 c-29 26 -74 34 -117 19z"/>
<path d="M6664 3794 c26 -71 67 -167 98 -227 16 -33 27 -62 23 -65 -3 -3 -33
0 -66 7 -34 7 -63 11 -64 9 -5 -5 119 -77 154 -91 27 -10 33 -8 56 13 14 13
25 30 25 37 0 8 -17 37 -38 66 -21 29 -74 104 -116 167 -43 63 -80 117 -82
119 -3 3 2 -13 10 -35z"/>
<path d="M1204 3195 c-5 -30 -9 -34 -28 -29 -31 7 -48 -17 -44 -63 2 -31 7
-39 27 -41 13 -2 28 1 34 7 17 17 25 13 30 -11 l4 -23 8 22 7 22 17 -21 c13
-15 23 -19 39 -14 12 4 22 12 22 17 0 15 27 10 34 -7 13 -34 21 -2 12 48 -8
43 -15 57 -35 66 -40 19 -51 15 -68 -25 -14 -34 -17 -36 -24 -18 -4 11 -8 39
-8 63 -1 51 -18 56 -27 7z m106 -99 c-6 -20 -16 -36 -21 -36 -10 0 -12 60 -3
85 6 15 8 15 21 2 13 -12 13 -21 3 -51z m-130 4 c-16 -30 -35 -11 -26 26 6 24
9 26 23 12 12 -13 13 -20 3 -38z"/>
<path d="M5719 3185 c-1 -5 -1 -14 0 -18 1 -5 2 -39 2 -76 1 -74 14 -113 25
-73 8 27 13 27 30 5 12 -17 14 -17 43 5 36 26 41 27 41 7 0 -8 6 -15 13 -15
10 0 11 11 3 54 -9 47 -14 56 -42 69 -29 14 -33 14 -47 -1 -8 -9 -17 -30 -21
-46 -9 -37 -16 -29 -18 23 -1 37 -25 91 -29 66z m109 -87 c2 -14 -6 -35 -17
-49 l-20 -24 -1 37 c0 45 9 70 24 65 6 -2 12 -15 14 -29z"/>
<path d="M2480 3136 c0 -20 -7 -25 -42 -31 l-43 -8 40 -6 c40 -6 40 -6 38 -48
-1 -32 2 -43 13 -43 10 0 14 12 14 44 0 31 5 46 16 50 22 8 34 -1 34 -28 0
-12 6 -31 14 -42 14 -19 15 -19 43 2 27 20 30 20 40 5 17 -26 23 -9 17 46 -6
45 -10 52 -40 66 -30 15 -35 15 -49 1 -8 -9 -15 -20 -15 -25 0 -5 -13 -9 -30
-9 -25 0 -30 4 -30 25 0 14 -4 25 -10 25 -5 0 -10 -11 -10 -24z m135 -25 c6
-21 -8 -66 -24 -76 -12 -7 -14 17 -5 64 7 35 20 40 29 12z"/>
<path d="M3724 3105 c-20 -49 -7 -101 26 -97 13 1 28 10 35 19 11 15 13 15 24
-5 20 -37 28 -17 17 40 -8 43 -15 57 -35 66 -39 19 -51 15 -67 -23z m51 -34
c-3 -14 -13 -33 -21 -41 -12 -12 -14 -10 -14 22 0 53 9 71 27 56 9 -7 12 -21
8 -37z"/>
<path d="M4829 3113 c-12 -29 -14 -87 -4 -103 10 -16 34 -11 55 10 17 17 21
18 26 5 10 -25 35 -18 29 8 -8 28 -13 58 -14 73 -1 12 -44 34 -67 34 -8 0 -19
-12 -25 -27z m49 -19 c2 -11 -2 -33 -8 -49 -16 -42 -34 -18 -25 35 7 42 27 51
33 14z"/>
<path d="M4773 3090 c-8 -41 -18 -45 -52 -21 -36 26 -47 26 -61 1 -15 -28 -25
-25 -40 10 -7 17 -19 30 -27 30 -8 0 -13 -3 -11 -7 2 -5 14 -29 26 -55 26 -55
47 -61 57 -18 4 16 10 32 14 35 5 2 26 -9 49 -26 38 -28 42 -29 51 -12 16 32
24 93 12 93 -6 0 -14 -14 -18 -30z"/>
<path d="M3624 3083 c18 -74 19 -83 2 -83 -9 0 -21 10 -26 23 l-10 22 3 -24
c2 -29 28 -47 52 -37 14 5 16 13 11 39 -14 77 -14 77 29 61 18 -7 18 -6 6 9
-7 9 -27 17 -43 17 -28 0 -30 -2 -24 -27z"/>
<path d="M883 2557 c-69 -25 -68 -20 -71 -308 -2 -180 0 -259 8 -254 6 4 10
90 10 246 l0 240 26 25 c19 20 31 24 52 19 52 -13 52 -11 52 -257 l0 -229 25
-24 c23 -24 30 -25 145 -25 67 0 130 5 141 10 43 24 49 57 49 279 l0 210 26
20 c34 27 50 26 79 -4 l25 -24 0 -246 0 -245 45 0 45 0 0 254 c0 235 -1 255
-19 278 -44 55 -151 56 -203 1 -22 -24 -23 -31 -26 -253 -3 -194 -6 -231 -19
-242 -22 -18 -152 -17 -186 1 l-27 14 0 214 c0 246 -4 262 -73 294 -48 21 -60
22 -104 6z"/>
<path d="M1962 2558 c-64 -21 -67 -34 -70 -315 -3 -225 -2 -253 12 -253 14 0
16 29 16 250 0 237 1 251 20 270 27 27 75 26 94 -2 13 -19 16 -61 16 -255 0
-267 0 -269 78 -260 33 4 53 14 82 42 39 38 43 38 54 -7 8 -33 37 -43 103 -35
28 3 54 13 67 26 20 20 21 32 24 232 3 221 1 234 -41 242 -20 3 -20 4 6 15 45
19 104 15 127 -8 19 -19 20 -33 20 -265 l0 -245 45 0 45 0 0 275 0 275 -34 17
c-32 15 -39 14 -115 -6 -44 -12 -104 -33 -133 -46 -52 -23 -52 -24 -20 -24 73
-2 72 2 72 -226 l0 -205 -51 0 c-64 0 -78 16 -79 84 l0 49 -25 -23 c-13 -13
-28 -33 -31 -44 -8 -26 -44 -66 -59 -66 -7 0 -20 9 -31 21 -17 19 -20 43 -24
236 l-5 216 -26 19 c-32 24 -93 31 -137 16z"/>
<path d="M3091 2552 c-84 -32 -86 -39 -89 -318 -2 -166 0 -244 8 -244 7 0 10
73 10 220 0 266 5 285 72 292 78 9 78 7 78 -246 0 -184 3 -225 16 -244 15 -21
20 -22 207 -22 l191 0 -47 30 -47 30 0 65 c0 36 4 65 8 65 5 0 50 -43 101 -95
90 -92 95 -95 138 -95 l44 0 -22 33 c-13 17 -71 80 -130 138 l-106 106 129
144 c70 79 128 147 128 152 0 4 -42 7 -93 7 -76 0 -100 -4 -137 -22 -82 -43
-85 -50 -88 -292 -3 -183 -1 -214 12 -226 32 -26 16 -32 -79 -28 -59 2 -99 8
-107 16 -10 10 -14 75 -18 254 l-5 240 -35 29 c-40 33 -74 36 -139 11z m619
-39 c0 -5 -15 -22 -33 -40 -18 -18 -63 -70 -102 -117 -38 -47 -73 -85 -77 -85
-5 -1 -8 33 -8 74 0 95 18 141 62 160 34 15 158 21 158 8z"/>
<path d="M5393 2550 c-17 -10 -37 -28 -42 -39 -14 -26 -15 -521 -1 -521 6 0
10 86 10 239 0 226 1 240 21 265 24 31 40 33 62 8 15 -16 17 -50 17 -265 l0
-247 75 0 c42 0 90 6 108 13 37 16 97 64 97 78 0 14 -73 7 -77 -8 -3 -7 4 -9
18 -6 16 4 20 2 17 -8 -6 -20 -79 -43 -111 -35 l-27 6 0 239 c0 132 -3 247 -6
256 -17 43 -108 58 -161 25z"/>
<path d="M5704 2549 c-12 -14 -18 -36 -19 -71 0 -71 23 -77 27 -7 6 97 68 89
68 -9 0 -36 3 -43 18 -40 13 3 17 13 17 46 1 50 23 77 54 67 21 -6 21 -10 21
-276 l0 -269 40 0 40 0 0 238 c0 130 4 242 8 248 4 7 24 19 44 27 65 27 68 14
68 -270 l0 -243 35 0 35 0 0 253 0 254 25 11 c36 17 72 15 79 -4 3 -9 6 -128
6 -265 l0 -249 50 0 51 0 -3 269 c-3 248 -4 271 -22 290 -25 28 -73 27 -131
-1 l-45 -22 -23 22 c-31 29 -50 28 -116 -9 -36 -21 -57 -27 -59 -20 -2 7 -13
21 -25 32 -26 23 -99 26 -117 4 -7 -8 -18 -15 -25 -15 -7 0 -18 7 -25 15 -18
21 -54 19 -76 -6z"/>
<path d="M4175 2550 c-48 -19 -50 -28 -53 -302 -2 -167 0 -258 7 -258 6 0 11
90 13 243 3 270 7 287 64 287 17 0 36 -6 42 -13 7 -8 12 -101 14 -251 3 -271
2 -266 89 -266 59 0 95 16 103 44 3 11 6 116 6 231 0 234 5 255 59 255 53 0
61 -38 61 -282 0 -253 -2 -248 98 -248 50 0 65 4 91 26 l31 26 0 217 c0 180 3
220 16 239 19 27 69 30 79 5 4 -10 6 -129 5 -265 l-1 -248 56 0 55 0 0 233 c0
245 -7 297 -43 322 -28 20 -100 19 -143 -1 -48 -23 -54 -56 -54 -286 0 -189
-1 -198 -21 -208 -29 -16 -76 -3 -83 23 -3 12 -6 115 -6 230 0 193 -1 208 -20
227 -42 42 -139 39 -177 -5 -22 -25 -23 -33 -23 -240 0 -181 -2 -216 -16 -229
-17 -18 -42 -20 -64 -6 -12 8 -16 50 -20 241 -5 228 -5 231 -29 250 -25 20
-98 25 -136 9z"/>
<path d="M6780 2312 c21 -55 48 -119 60 -142 11 -22 25 -52 31 -67 l10 -26
-46 6 c-25 4 -57 10 -72 13 -27 6 -26 5 7 -17 66 -46 129 -79 149 -79 11 0 29
13 40 29 l21 28 -116 174 c-64 96 -118 176 -120 178 -2 2 14 -41 36 -97z"/>
<path d="M2173 1799 c-4 -24 -10 -29 -25 -26 -28 8 -48 -19 -48 -64 0 -37 2
-39 29 -39 17 0 33 5 37 12 5 7 10 4 15 -10 5 -12 14 -22 20 -22 9 0 10 17 5
61 -3 34 -6 75 -6 90 0 39 -19 37 -27 -2z m-18 -59 c10 -16 -5 -50 -21 -50 -8
0 -14 10 -14 23 0 34 21 50 35 27z"/>
<path d="M1150 1791 c-5 -11 -10 -26 -10 -35 0 -23 -18 -29 -36 -12 -18 19
-58 30 -78 23 -10 -4 -11 -16 -5 -54 4 -26 8 -67 8 -90 1 -24 6 -43 11 -43 6
0 10 20 10 45 0 34 4 45 15 45 9 0 27 12 40 26 l25 26 10 -26 c11 -31 33 -33
60 -6 19 19 20 19 30 -1 15 -28 31 -14 20 17 -6 14 -10 37 -10 52 0 19 -8 30
-27 40 -37 17 -51 15 -63 -7z m45 -22 c7 -22 -12 -79 -26 -79 -5 0 -9 15 -9
34 0 61 22 88 35 45z m-115 -29 c11 -7 12 -14 4 -27 -18 -30 -34 -27 -34 6 0
33 6 37 30 21z"/>
<path d="M2236 1733 c9 -110 18 -119 48 -47 21 52 48 57 56 10 5 -30 33 -56
47 -43 4 5 2 11 -4 15 -6 4 -14 19 -18 34 -13 53 -28 56 -96 20 -4 -1 -9 15
-13 38 -11 68 -27 47 -20 -27z"/>
<path d="M2429 1769 c-16 -16 -19 -31 -17 -72 3 -49 5 -52 28 -49 14 1 31 10
38 19 11 16 13 15 26 -3 21 -28 25 -16 14 47 -8 48 -13 57 -39 66 -26 10 -33
9 -50 -8z m39 -43 c3 -27 -12 -56 -29 -56 -10 0 -12 35 -3 68 8 30 28 23 32
-12z"/>
<path d="M5934 1765 c-19 -29 -21 -90 -4 -111 13 -15 39 -8 58 14 11 14 14 14
26 -4 21 -28 25 -15 13 48 -6 37 -16 58 -26 61 -9 3 -24 8 -33 12 -11 4 -22
-1 -34 -20z m44 -38 c2 -15 -4 -37 -12 -49 -14 -19 -16 -20 -22 -5 -9 25 5 89
19 84 7 -2 13 -16 15 -30z"/>
<path d="M3405 1760 c-32 -36 -31 -130 2 -130 9 0 27 10 40 22 20 18 23 19 23
5 0 -9 7 -17 16 -17 12 0 15 6 10 23 -3 12 -6 36 -6 52 -1 24 -7 33 -35 46
-32 15 -36 15 -50 -1z m40 -29 c6 -21 -8 -66 -24 -76 -12 -7 -16 77 -4 88 11
12 21 8 28 -12z"/>
<path d="M4666 1739 c-16 -39 -7 -103 16 -107 9 -2 26 6 37 17 26 26 27 26 35
-1 3 -15 9 -19 15 -13 6 6 6 28 -1 60 -8 39 -16 53 -36 63 -39 18 -52 15 -66
-19z m52 -19 c4 -24 -16 -70 -30 -70 -9 0 -11 61 -2 85 9 22 28 13 32 -15z"/>
<path d="M3339 1755 c-1 -6 -3 -39 -3 -75 -3 -99 -35 -139 -70 -88 l-16 22 0
-21 c0 -53 80 -47 107 7 13 27 7 137 -8 155 -6 6 -10 6 -10 0z"/>
<path d="M5887 1753 c-2 -4 -8 -23 -12 -40 -3 -18 -9 -33 -13 -33 -3 0 -21 14
-39 32 -46 45 -55 26 -9 -21 35 -36 38 -42 31 -79 -11 -65 11 -57 29 11 10 34
22 75 28 90 7 19 8 31 1 38 -6 6 -13 7 -16 2z"/>
<path d="M4628 1744 c-5 -4 -8 -16 -8 -26 0 -11 -5 -29 -11 -40 -11 -20 -13
-20 -44 18 -18 21 -36 36 -40 32 -4 -4 9 -26 28 -50 32 -39 35 -48 30 -86 -10
-72 13 -48 37 39 20 76 24 130 8 113z"/>
<path d="M5610 1711 c0 -83 22 -92 62 -26 15 25 32 45 37 45 6 0 16 -20 22
-45 6 -25 15 -45 20 -45 12 0 11 17 -2 63 -8 30 -15 37 -35 37 -13 0 -32 -9
-41 -20 -23 -26 -30 -25 -37 5 -10 39 -26 30 -26 -14z"/>
<path d="M1045 1105 c-5 -2 -34 -10 -63 -19 -57 -18 -106 -55 -128 -98 -17
-33 -21 -458 -4 -458 6 0 10 75 10 205 0 223 4 243 56 284 35 28 96 43 139 35
41 -7 45 -25 12 -51 -13 -10 -26 -27 -30 -37 -10 -25 17 -66 43 -66 27 0 25
-9 -9 -45 -71 -74 -87 -149 -48 -225 37 -74 91 -99 213 -100 54 0 63 3 90 31
l29 30 5 209 c4 186 7 210 24 229 25 28 70 27 90 -1 13 -19 16 -61 16 -260 l0
-238 50 0 50 0 0 259 c0 295 1 291 -81 312 -40 11 -53 10 -93 -5 -78 -30 -80
-38 -86 -291 l-5 -220 -65 1 c-82 2 -130 22 -165 68 -49 64 -36 149 38 239
l39 47 -30 0 c-32 0 -62 22 -62 46 0 7 17 24 38 38 20 13 43 30 50 39 12 14 9
18 -23 32 -34 14 -75 18 -100 10z"/>
<path d="M2000 1090 c-54 -18 -95 -53 -84 -71 3 -5 21 4 40 21 40 35 69 38 84
11 6 -12 10 -117 10 -270 l0 -251 50 0 50 0 0 235 0 235 56 25 c72 32 92 32
104 -1 6 -14 10 -131 10 -260 l0 -234 50 0 50 0 0 240 0 240 43 19 c61 27 70
29 95 20 l22 -8 0 -256 0 -255 55 0 55 0 0 255 c0 167 -4 263 -11 279 -26 56
-95 56 -201 -1 -46 -25 -68 -24 -68 2 0 17 -50 45 -79 45 -11 0 -55 -18 -97
-40 -78 -40 -94 -42 -94 -11 0 25 -32 51 -61 51 -13 -1 -49 -9 -79 -20z"/>
<path d="M3114 1090 c-30 -13 -44 -27 -53 -51 -14 -41 -15 -509 -1 -509 6 0
10 81 10 223 0 277 7 306 72 307 54 0 58 -20 58 -288 l0 -244 103 4 c99 3 105
5 145 37 58 45 55 61 -10 61 -38 0 -49 -3 -38 -10 8 -5 23 -10 33 -10 9 0 17
-5 17 -10 0 -17 -51 -31 -99 -28 l-46 3 -5 245 c-3 135 -7 246 -8 247 -1 2
-20 12 -42 23 -48 24 -82 24 -136 0z"/>
<path d="M3435 1079 c-20 -25 -25 -40 -23 -72 4 -58 28 -61 28 -4 0 48 17 71
47 65 14 -2 19 -15 23 -53 4 -35 10 -51 21 -53 13 -2 18 8 22 44 6 57 30 81
60 61 18 -12 19 -28 21 -272 l1 -260 23 -3 22 -3 0 253 c0 184 3 257 12 266
16 16 70 16 86 0 9 -9 12 -82 12 -265 l0 -253 55 0 55 0 0 249 c0 147 -4 260
-10 278 -13 37 -46 53 -109 53 -33 0 -53 -6 -69 -20 -12 -11 -24 -20 -27 -20
-3 0 -14 9 -25 20 -24 24 -67 26 -98 4 -21 -14 -25 -14 -47 0 -35 23 -50 20
-80 -15z"/>
<path d="M4319 1090 c-24 -12 -41 -31 -48 -51 -14 -40 -15 -509 -1 -509 5 0
10 99 12 244 3 223 5 246 22 265 26 28 91 29 106 2 6 -12 10 -115 10 -265 l0
-245 78 -3 c73 -3 77 -4 80 -27 4 -28 29 -70 52 -88 8 -7 32 -13 54 -13 31 0
45 6 71 34 18 19 35 44 38 56 5 18 1 17 -29 -10 -19 -16 -42 -30 -50 -30 -16
0 -74 52 -74 67 0 5 16 17 36 28 42 22 64 60 64 109 0 46 -22 66 -73 66 -54
-1 -88 -29 -96 -78 -5 -28 -11 -38 -29 -40 l-22 -3 -1 203 c0 245 -5 265 -69
290 -58 22 -87 22 -131 -2z m371 -415 c11 -13 10 -21 -7 -43 -27 -37 -67 -37
-71 -1 -6 48 50 78 78 44z"/>
<path d="M4735 1085 c-19 -18 -25 -35 -25 -70 0 -33 4 -45 15 -45 10 0 15 10
15 33 0 41 20 70 46 65 15 -2 20 -13 22 -51 3 -42 5 -47 28 -47 21 0 24 4 24
38 0 45 14 62 51 62 55 0 59 -19 59 -292 l0 -248 55 0 55 0 0 240 c0 280 -4
297 -69 323 -52 21 -94 21 -137 1 -30 -14 -35 -14 -56 0 -32 22 -55 20 -83 -9z"/>
<path d="M5493 1093 c-54 -27 -57 -45 -61 -315 -3 -221 -2 -248 12 -248 14 0
16 28 16 243 0 206 2 246 16 265 21 31 64 26 81 -8 9 -18 13 -92 13 -262 l0
-238 93 0 c50 0 109 5 130 11 37 10 107 62 107 80 0 5 -29 9 -65 9 -37 0 -65
-4 -65 -10 0 -5 12 -10 26 -10 43 0 22 -24 -34 -39 -85 -23 -82 -32 -82 222 0
238 -6 275 -45 301 -31 20 -100 19 -142 -1z"/>
<path d="M5892 1090 c-35 -33 -44 -135 -12 -135 11 0 16 15 20 55 4 49 8 55
29 58 31 5 41 -12 41 -70 0 -41 3 -48 20 -48 16 0 19 8 22 58 l3 57 35 0 35 0
3 -267 2 -268 55 0 55 0 0 265 0 266 -25 24 c-19 20 -34 25 -75 25 -28 0 -64
-7 -81 -15 -27 -14 -32 -14 -51 0 -30 20 -50 19 -76 -5z"/>
<path d="M6640 946 c0 -16 32 -131 45 -161 19 -42 55 -144 55 -154 0 -10 -73
4 -101 20 -12 6 -19 6 -19 0 0 -11 138 -101 155 -101 15 0 65 38 65 49 0 4
-23 46 -51 92 -28 46 -73 125 -100 174 -27 50 -49 86 -49 81z"/>
<path d="M6880 945 c0 -5 23 -76 51 -158 28 -82 48 -151 45 -154 -3 -4 -29 -1
-58 5 -28 7 -53 10 -55 8 -6 -6 142 -96 158 -96 18 1 59 35 59 49 0 6 -19 42
-42 79 -23 37 -68 114 -100 172 -32 58 -58 101 -58 95z"/>
<path d="M3302 288 l3 -93 35 3 c19 2 44 12 56 23 27 25 32 24 36 -8 2 -23 7
-28 28 -25 14 1 30 9 36 17 14 19 24 19 24 0 0 -8 7 -15 16 -15 10 0 14 6 10
18 -3 9 -8 34 -12 54 -5 29 -14 41 -38 53 -29 15 -32 15 -48 -6 -10 -11 -18
-27 -18 -35 0 -8 -4 -14 -10 -14 -5 0 -10 6 -10 14 0 24 -40 47 -61 36 -27
-15 -29 -13 -29 30 0 22 -5 40 -10 40 -7 0 -10 -33 -8 -92z m186 -16 c4 -24
-14 -62 -28 -62 -11 0 -13 50 -4 75 9 21 28 14 32 -13z m-103 -3 c8 -25 -26
-66 -44 -54 -18 11 7 75 30 75 4 0 11 -10 14 -21z"/>
<path d="M1227 330 c-12 -31 -21 -37 -32 -20 -11 17 -50 11 -69 -12 l-19 -21
-14 26 c-17 34 -33 34 -72 2 l-30 -26 -3 27 c-2 15 -9 29 -16 32 -11 3 -12 -8
-7 -54 9 -68 13 -76 29 -50 6 11 23 33 38 50 23 26 29 29 38 16 5 -8 10 -30
10 -47 0 -18 4 -33 8 -33 5 0 23 21 41 46 35 50 48 49 53 -5 3 -35 28 -57 28
-25 0 16 1 16 14 -1 12 -17 18 -18 40 -7 14 6 26 16 26 22 0 5 5 10 10 10 6 0
10 -7 10 -15 0 -8 7 -15 16 -15 10 0 14 6 10 18 -3 9 -8 33 -11 53 -5 26 -14
40 -31 48 -39 18 -55 13 -67 -19z m51 -20 c4 -24 -16 -70 -30 -70 -9 0 -10 45
-2 78 8 28 28 24 32 -8z"/>
<path d="M2356 318 c-20 -27 -21 -101 -2 -117 10 -8 20 -6 40 10 26 21 28 21
41 3 20 -28 24 -15 13 48 -7 38 -15 58 -26 61 -9 3 -24 8 -33 12 -11 4 -22 -1
-33 -17z m38 -65 c-5 -15 -15 -28 -21 -31 -16 -5 -17 36 -2 75 l11 28 11 -23
c7 -15 7 -32 1 -49z"/>
<path d="M4567 310 c5 -28 4 -30 -26 -30 -26 0 -31 4 -31 25 0 14 -4 25 -10
25 -5 0 -10 -11 -10 -24 0 -20 -7 -25 -42 -32 l-43 -8 44 -4 44 -3 -7 -45 c-4
-34 -3 -45 7 -42 6 3 14 24 17 49 5 41 7 44 35 44 28 0 30 -3 33 -42 2 -29 8
-43 18 -43 8 0 14 5 14 11 0 23 33 79 46 79 15 0 18 -6 28 -52 4 -19 13 -28
26 -28 11 0 20 5 20 10 0 6 -4 10 -8 10 -4 0 -12 14 -17 32 -15 47 -38 57 -74
30 l-30 -22 -7 45 c-4 28 -11 45 -20 45 -10 0 -12 -8 -7 -30z"/>
<path d="M5944 305 c-36 -86 -2 -139 58 -88 14 13 17 12 26 -3 13 -24 35 -9
22 16 -5 10 -10 32 -10 49 0 23 -7 33 -32 45 -43 22 -47 21 -64 -19z m46 -6
c12 -22 -3 -79 -21 -79 -10 0 -12 60 -3 84 8 21 11 20 24 -5z"/>
<path d="M2210 303 c-30 -38 -24 -77 14 -81 16 -2 33 1 39 7 23 23 37 11 37
-28 0 -30 -6 -44 -22 -55 -28 -20 -33 -20 -52 0 -9 8 -16 11 -16 5 0 -19 30
-40 53 -36 34 7 69 52 63 84 -2 14 -7 43 -11 63 -4 28 -13 42 -35 53 -39 20
-45 19 -70 -12z m54 -9 c8 -20 -11 -54 -29 -54 -18 0 -20 41 -3 58 16 16 25
15 32 -4z"/>
<path d="M4766 308 c-20 -28 -21 -102 -2 -117 16 -13 56 1 56 19 0 6 5 10 10
10 6 0 10 -7 10 -15 0 -8 7 -15 15 -15 18 0 18 -3 4 59 -9 41 -16 53 -41 66
-38 19 -34 19 -52 -7z m42 -36 c4 -24 -14 -62 -28 -62 -11 0 -13 33 -4 68 8
27 28 24 32 -6z"/>
<path d="M5822 323 c-20 -8 -44 -62 -37 -83 8 -25 57 -27 79 -4 15 14 17 13
27 -12 14 -39 3 -72 -27 -86 -22 -11 -28 -9 -40 7 -12 16 -14 16 -14 3 0 -37
63 -41 93 -6 18 21 21 57 11 118 -4 26 -14 41 -36 53 -31 18 -35 19 -56 10z
m36 -37 c4 -20 -15 -46 -34 -46 -17 0 -18 24 -3 51 12 23 32 20 37 -5z"/>
<path d="M5622 255 c4 -72 18 -77 56 -21 42 62 49 60 66 -16 10 -46 27 -33 20
15 -10 68 -41 79 -91 34 -18 -16 -23 -17 -23 -6 0 9 -7 24 -15 35 -14 17 -15
14 -13 -41z"/>
</g>
</svg>
